<mxfile host="app.diagrams.net" agent="Mozilla/5.0 (Windows NT 10.0; Win64; x64) AppleWebKit/537.36 (KHTML, like Gecko) Chrome/128.0.0.0 Safari/537.36" version="24.7.12">
  <diagram id="R2lEEEUBdFMjLlhIrx00" name="Page-1">
    <mxGraphModel dx="4328" dy="3180" grid="1" gridSize="10" guides="1" tooltips="1" connect="1" arrows="1" fold="1" page="1" pageScale="1" pageWidth="850" pageHeight="1100" math="0" shadow="0" extFonts="Permanent Marker^https://fonts.googleapis.com/css?family=Permanent+Marker">
      <root>
        <mxCell id="0" />
        <mxCell id="1" parent="0" />
        <mxCell id="h67H53mOF6zypW7Pc5uh-1" value="" style="shape=image;verticalLabelPosition=bottom;labelBackgroundColor=default;verticalAlign=top;aspect=fixed;imageAspect=0;image=data:image/png,iVBORw0KGgoAAAANSUhEUgAABawAAAO7CAIAAAA3P1RzAAAAAXNSR0IArs4c6QAAIABJREFUeAHs3Xl0FNXC9/t33fP8c9e6971rvc+zrMxJZ55JQgYyQMIUZB4SkIAgKsgk6gGUQUREVECUqIhHUBBEEZkRUUYVVEDmMUyBpDthkEmEMGTousCWbdmdhE7SSVd3vlm9sLpq1669P7vT59QvVbv+l1L9zyPVb2YrAggggAACCCCAAAIIIIAAAggg4BwC/8s5mkkrEUAAAQQQQAABBBBAAAEEEEAAgboJEILUzY+9EUAAAQQQQAABBBBAAAEEEEDASQQIQZxkoGgmAggggAACCCCAAAIIIIAAAgjUTYAQpG5+7N3IBJgkp5ENON1FAAEEEEAAAQQQQAABlxIgBHGp4aQzCCCAAAIIIIAAAggggAACCCBQlQAhSFUyrEcAARcU4FoeFxxUuoQAAggggAACCCCAgM0ChCA2U1EQAQQQQAABBBBAAAEEEEAAAQScWYAQxJlHj7YjgAACCCCAAAIIIIAAAggggIDNAoQgNlNREAEEEEAAAQQQQAABBBCoDwFu2a0PVepEoDIBQpDKVFiHAAIIIIAAAggggAACCCCAAAIuJ0AI4nJDSocQQAABBBBAAAEEaizAH+JrTMYOCCCAgDMKEILoZdT4H169jATtQAABBBBAAAEEEEAAAQQQcFEBQhAXHVi6hQACCCCAAAIIIIAAAgjYJsBfZG1zopQrCBCCuMIo0gcEEEAAAQQQQAABBBBAAAEEEHioACHIQ4kogAACCCCAAAIIIIAAAggggAACriBACOIKo0gfEEAAAQQQQAABBBBAAAEEEEDgoQKEIA8logACCCCAAAIIIIAAAggggAACCLiCQGMNQZj5xxU+vfQBAQQQQAABBBBA4C8B/u8tHwUEEEDAFoHGGoLYYkMZBBBAAAEEEEAAAQQQQAABBBBwIQFCEBcaTLqCAAIIIIAAAggggAACCCCAAAJVCxCCVG3DFgQQQAABBBBAAAEEEEAAAQQQcCEBQhAXGky6ggACCCCAAAIIIIAAAggggAACVQsQglRtwxYEEEAAAQQQQAABBBBAAAEEEHAhAUIQFxpMumIXAaZWtwsjlSCAAAIIIIAAAggggAAC+hMgBNHfmNAiBBBAAAEEEEAAAQQQQAABBBCoBwFCkHpApUoEEEAAAQQQQAABBBBAAAEEENCfACGI/saEFiGAAAIIIIAAAggggAACCCCAQD0IEILUAypVIoAAAggggAACCCCAAAIIIICA/gQIQfQ3JrQIAQQQQEBhjmI+BAgggAACCCCAAAL2FyAEsb8pNSKAAAIIIIAAAggggAACCCCAgA4FCEF0OCg0CQEEEEAAAQQQQAABBBBAAAEE7C9ACGJ/U2pEAAEEEEAAAQQQQAABBBBAAAEdChCC6HBQaBICCCCAAAIIIIAAAggggAACCNhfgBDE/qbUiAACCCCAAAIIIIAAAggggAACOhQgBNHhoNAkBBBAAAEEEEAAAQQQQAABBBCwvwAhiP1NqREBBBBAAAEEEEAAAQQQQAABBHQoQAiiw0GhSQgggAACCCCAAAIIIIAAAgggYH8BQhD7m1IjAggggAACCCCAAAIIIIAAAgjoUIAQRIeDQpMQQAABBBBAAAEEEEAAAQQQQMD+AoQg9jelRgRcV+AR1+0aPUMAAQQQQAABBBBAAAHXFyAEcf0xpocIIIAAAggggAACCCCAAAIIIKAoCiEIHwMEEEAAAQQQQAABBBBAAAEEEGgUAoQgjWKY6SQCCCCAAAIIIIAAAggggAACCBCC8BlAAAEEEEAAAQQQQAABBBBAAIFGIUAI0iiGmU4igAACTiHgrvlxc3NzijY3QCPd3Nzc3d0b4EAcwikExOdB/K44RYNpJAIIIIAAAroSIATR1XDQGAQQQKCRCvj6+q5evfqy5uf48ePbt29fvHjxu+++269fPw8Pj3qlGTJkyIoVKxISEur1KLWo3MfH55dffikpKVm9erWnp6ctNYSGhubm5o4YMcKWwpRxIoH+/fsvW7bMaDSWlJTcuHHj/PnzGzZsmDBhgpeXlxP1gqYigAACCCDgWAFCEMf6c3QEEEAAgXsCr7zyitlsVqv+qaioWLBgQURERD15FRcXq6q6dOnSeqrfolp3d3cbL3VJSkq6deuWgFm+fLlFPdZvfX19T5w4IcpnZ2dbF2CNHgRqenVPYGDgrl27qvr9uHnz5siRIxvmciHbP7p6cKYNCCCAAAIIWAsQglibsAYBBBBAoKEFli5dWtUJnlxvNpuvXbvWtm1buzcuLCzsjz/+UFV13bp1dq/cusKUlJSLFy+eOnXKYDBYb7VYk56efufOHYFw+/bt9PR0iwIWb8eNGyfjpFdeecViK2/1IBAWFmY0Gs+ePRsdHW1LewwGgwy2VFUtLy/Pz8/Py8u7fv269rdjxYoVttRWlzL9+/e/cePGpk2bbLwoqS7HYl8EEEAAAQTqSYAQpJ5gqRYBBBBAoAYCX3/9taqqZrN58uTJ2t3atWs3fvz4H3/8saysTJzvFRQU1McJ2M6dO8vKymbMmKE9ej0tDxw4UPSlXbt2Dz1Eu3btZN9VVf3iiy+q2cXLy+vChQvyxPjNN9+spjCbHCXQvHnzsrIys9mck5NjSxumTp0qxvTcuXP9+vXT7pKenr5v3z4Ze3366afarXZfXrBggaqqV69eDQwMtHvlVIgAAggggEDDCBCCNIwzR0EAAQQQqE5g8eLFIgSp6rSwR48eIgsoKyuzJTuo7mCVbXNzc/P19a1si/3XPf300+KcNjMz86G1Z2ZmakOQ0tLSZs2aVbVX3759ZQKiquo777xTVUnWO1BAhiCPPfbYQ5sRGBh45coVVVVv3bqVkpJiXd7Hx2f37t1i3EtKSurvljFFUT777DNVVa9cuUIIYj0QrEEAAQQQcBYBQhBnGSnaiYC9BR6xd4XUh0AdBD788EPz/Z+qQhBFUVauXCnK9O/fXxzKYDCMGTMmKytLvHV3d69q/lQ/P79u3br17t07JSXFxsk4tL1xc3NLT0/v3bt3dnZ29ad/bm5uGRkZvXv3fuyxxxISEiqdpqFGIUiPHj0qKiq00caqVau0bdMur1+/Xlty9uzZ2q1i2c3NLSwsrEuXLjk5Od27dw8ICLAuU+s17u7uBoOhXbt2OTk52dnZoaGhNa2q+oeeeHt7i8q7du3q4+NjS+XyiUMWhcWnxcPD46GfB29v7/bt2+fk5HTu3NkuU5DWKARJT08XY3rmzJmqcrqEhISSkhJVVcvKylq2bGnRUxvfuru7p6Wl9e7dOycnp3nz5pX+Kj00BPH09GzdunVOTk5WVpYtd3spivLQAar0l8jGTlEMAQQQQAABawFCEGsTJ1jD2asTDBJNRACBmgiIiVHNZvNTTz1V1X4ffPCBCEGGDh0qyrz00ktms/nSpUsJCQnr168vKSkpLS1du3attobg4OA1a9bcvn274v5PeXl5YWFh69attWUURXn22We3bdvWvn17i/WKosyYMePKlSvl5eWihtLS0m3btsXFxVmX7Nq16/nz52XJ8vLyGzdufPXVV1FRUaKwm5vblClT1qxZI05rFy1aNG3atOqn+ZAhSEFBgTjRvXXrVlJSkvXRo6Kirl27pqqqDE0sQhAvL6/333//6tWrZWVloi8VFRW3b9+eM2eORW1xcXE//vjj6tWr5XqDwdCiRYvU1FS5xnrhlVdeKS4uLi0tlQJlZWXr16/38/OzLqwoSmBg4JgxY3Jzc999993hw4d7eXlFRkYWFxffunXLOgszGAwLFy68efOmbPmtW7eWLVtmfaY9fvz43NzcgICAtm3bbt68+fr167du3Tp//vy8efNEiNCqVasNGzaUlJSUlZWVlpbm5eVVOu6KogQFBS1ZssTioIsWLbLIX9LS0rZv3/7555/LG7VCQkKaN29ufc2Om5vbhAkTFixYUF5ebjably9f/vbbb1d/ZVO7du3Ep+XcuXNVSSqK0q1bt7179+bm5orwIioq6u7HfuzYsZXKZ2dnz549W8YlAQEBn3/++bVr1+TAlZeXX79+ffbs2TIKCQwMnDFjxt69e1VVvXnz5qxZs1577bWwsDBZv6en53/+85/r16/LSu7cubNu3TrrIOzxxx+fPXt2ixYtAgMDFy9efOnSpVu3bl29enXdunXigx0QEPDZZ59dvny59P7P+fPnn3vuOXkgF1jg/8W5wCDSBQQQcGoBQhCnHj47NZ7/NbYTJNU4rQC/A44fuqFDh1oEHNZtWr58ubhlZuDAgWLrnDlzzGbzn3/+qZ0h8uzZs3LftLS0q1evinNIUb9Yvn79elpamiymKMqZM2dUVd21a5d2ZVBQ0L59+8QuFv+WlJS0aNFCWzg7O1uW0R5LVdVLly41bdpUUZQBAwbIMnLh/Pnz1VxfIEOQdevWffLJJ2L2h0qnfhg5cqTYunjx4ps3b6qqqg1BDAbDgQMHxEErKirK7v+Ul5eLNdOnT9f2ZcaMGWL9iBEjnn32WaPRKFtbXl6+ePHi8PBwbXk3NzcxOmKAysvLRRQi2mP9UJuAgIB58+bJsEZUXl5evnnzZrFssUtcXJx2rhPZGFVVi4qKtDeAtG7dWmw9dOiQfKqOLH/w4MEXXnhBe3uR2HTz5k2ZCMh+paWliftQ5O5y4dixY9rwZcmSJWK+0m7duo0fP/7ixYuyZFlZ2ccffyzDi7S0NOuj//HHH/Kg1gsJCQlimMxmc25ubkREhC3PZ1m4cKGqqjdu3LCuMCQkRPxS/PLLL4qipKamilmBRZvNZnNFRYWcZGTRokWihrlz58pOyYXNmzeLraGhoeI3SG6SCxcvXoyJiZHNCAgIuHTpkhg4a94///yzX79+IuyTNYhcb/To0bISFhBAAAEEEKiLACFIXfTYFwEEEEDAPgIDBgwQwUFVpzryISl37tzJyMgQR5UziYjzpT/++GP58uVdunQRWyMjI+WZc15e3gsvvPD000+vXbtWFD558qT25oKCggJVVX/77Tdtf3744Qd5Njhv3rzx48e/9957t2/fFjWYTCZ5L4m/v79MCjZt2vTss8+OGDHitddek+fDouaWLVvKUEae423ZsqWaC/5lCLJp06bk5GRx9JKSksjISG1TfX19RWfLysr69u0rTiO1IciUKVNEX9auXdunT5+YmBh3d/fk5OTjx4+rqlpcXOzt7S0rfOKJJ0Tzfv/9dykgG6yqakFBgTYFkDf4HDp0aODAgeI+oCZNmojbc27duqXNKQwGw5EjR7S1WS//9ttv8hoEg8EgRkdcgzBjxozx48d/9dVXcq9t27bJlrdq1UquFwt79ux56623/vzzTxHQyOQlLy9v/Pjx8qqcgwcPaqOo0NBQOXZ//vnnm2++OW7cuJUrV8rdN27cKEdt0qRJ4tN7/vx5ay6z2bx7927RwsjIyHPnzlm00CJ6k32RCxs3bhS7mM3msrKyGzduHDp0aMGCBaNGjdKOgiyvKMrIkSNFfy0mUlUURUSHdzFfeuklT09PORbXrl3Lzc0dNmxYv379Jk6cKD5Ct2/fFhHGwIED5VOKZPvFRMK+vr7Hjh0TK+/cuZObmztu3Lj58+fLuOfo0aPy0xUQECBhxS7nz59/6623Tp06Jd5K4atXr77xxhszZ84sLS0Vs7FaXICj7S/LCCCAAAII2C5ACGK7FSURQAABBOpLICcnR/z9udJrHLp06SJOYlVV3b9/v5zEYdOmTfLEafz48RaN27BhgzgPXLBggXbT6tWrxSmrdhdxmn3ixAlZ8plnnhGVX716VXvZSGho6NGjR0UN//73v0X5IUOGiJO3X3/9VdagKIrBYCgsLBT1dOvWTWwaNmyYWFP9jTCisDYEURRl165dYt/c3FztgQYNGiTWHz58ODw83PpKEJHR7Nu3T566i907duxYXl5+584dbWOysrJEbeLf69evz507d/Dgwc8//3xeXp44z580aZJsgKA+f/68vB9EbEpNTRWF5R1MiqLI/OLMmTO9e/cWSu+884441xVHPHXqlDxtnjZtmqjk5MmT2itQmjVrJk+npW1qaqo8i1ZVddmyZaIlLVq0kJe9VFRUaKeM3bNnj6qqd+/dSExMlD2aP3++9JRRl6Io7dq1Ex/F0tJSeXPQ3dRAm31cunTp3XffHTRo0OjRo4uKikQ9zz77rKw8PT1dfNplYCc3VbpgMBh27dql7ZeoU/z766+/9unTx2JH6TB//nztpsjISPHZMBqNfn5+MTExIuwoLCyUqZMoP2fOHFH/hAkTZA2rVq1SVfXy5cva8OXll18WJc+ePau9TSwuLu7s2bPid/CJJ54Qlfj5+ZlMJtn+vLw8sd5gMEgrVVXXr18vDyrug1NV9cUXX5QrWUAAAQQQQKDWAoQgtaZjRwQQQAABuwlkZWWJc7yCgoKpU6fm3v/58MMP165dW1hYKE//ysvL27ZtK4/6448/irOpn376Sa4UC506dRJ77dmzx+LsLjg4WFyHf+zYMbnXwYMHVVXVrvntt99E5danXs2aNRNnkvK4IpsoKyuznl1izJgxoh554j1kyBCxxpanw1iEIDLssLh2Q97qMnLkyJSUFNH3b7/9VgRG3t7e4tT95Zdfll0WC08++aSYZaNv375ykzYEsbidISUlRVyNsn37dlle3DRkcb6tKEpmZqZIB6ZOnSoKp6amijDi6tWr0dHRsgZFUYYNGyYH+uzZs+I6HT8/v8uXL6uqWlpaqo1pxI59+vQRknJak7S0NFnJhQsXtBf77N+/XxSWoyYqefLJJ0UjX3rpJbEmNDRUPpAlNjZW20hFUfr16ycOMWXKFLFJG4KcOXNGm9RISe1UNenp6WJOEFueDiMO4ebm1rVr18mTJ69fv14bFogemc3mPXv2JCQkyKYaDAbhdvr0aS3C9OnTxS7iUx0bGys+yefOndNeraMoStu2bUUs9eSTT8pqxY0/2qfDeHl5iQCxoqLC+sOfkZEhKlm8eLGoRBuC3LlzR3sX0ocffijadvHiRe30w/KGoO+++062hAUEEEAAAQRqLUAIUms6dqyrANMw1FWQ/RFwIYFOnTrJP9SLEyHrf69duyYuHJD9FiHI3WlBRo4cKVeKBXG2VlFR0bVrV4tNiqIsW7ZMTOIg//gvzpCLiopE4YiICDHPyPnz593c3OQDLOSC+BO30WhUFMXb2/vGjRviJhGLwOXusSIjIwsKCv7888+OHTuKyuXNI5W2zaK1FiGIh4eHuKbDbDbLs9OMjAxxq8K5c+c8PT0zMzOF3tq1a+VVM+3bt3/11Vdl5W5ubh4eHn379pXzQWgvVdA+avett96SeymKIiMk7dwr8fHx06ZNCwkJkSXd3NwyMzNPnjwpWiIv8HnuuefEmnnz5snCYsHPz0/eKnLu3Dlx6n632aL87t27vby8pL9YSEpKEh+b7du3C3kZgpjN5ueff157iE8++URUZfFpad68uThRnzVrliifkZEhbuX49ttvLY7o7u6ekJAgZhuRE5eICXorrTwxMVFUdfz4cXlti3w6zIABA7QtrNFy586d33vvPZPJJEOfS5cuaWfMXb16tXiwrsxxPD09xcwdxcXF4lheXl5Hjx4VLS8vL1+xYsWwYcMiIyPlx8aiSeLpMNeuXQsKChKbmjZtKjSOHj3q4eFhwRURESEm6z1w4IAorw1BLJ5zlJ2dLdIobWB099Kh0NBQ8cuYl5cnDS0axlsEEEAAAQRsFyAEsd2KkggggAAC9SXQvn17OYOAOCXT/ltUVPTaa69p/8Au2iFuh6n0mTLiZC8/P7/SFstTcZmq7NixQ1XVCxcuiPKZmZnixNhsNt++ffuW1Y8487x48aKiKElJSeLkbdu2bZWePYoYRbZERgzW8zXIMnKhXbt2QmbTpk1i5ahRo8ThNm7cKNasXbtWrBEXXHTt2lXoaUMQUTI8PPy1115bsWLF0aNHb9y4Ic+f787eqg1B+vXrJ0+MrZMakcJcuXJFNlIs+Pj4jB07dtGiRXv27Ll69ao21ZKRx5dffilq1l54IusRd1uoqipDkOHDh4vy4kE2FuNw+/Zt0fF9+/aJO3FkCHLx4kU5HamoPzc3V9yaYRE9JCQkiKshvvnmG1Fy4sSJotrqDyqnBZXl79y5o713RlGU8PBweb+JvCKjWbNmIrSyiGmkg8VCSkqK3Ndik5ubW3Z2trw2RBsT9OjRQwzBxIkTxV7y4o7//Oc/sp74+Hh5x5bwKSsrMxqNs2bNsrg2RFEUYVhSUiKf+dKtWzfxKar0N0UO0PHjx8WvhgxBysrKxGzBsiXp6emCXUZmYpPBYBDz3Zw9e1Z7G47ckQUEEEAAAQRqJEAIUiMuCiOAAAII1ItA586dxQnb3r17J9z/efrpp5988kk57UKlR5UToz7++OPaAv7+/levXjWbzXJKCO1WRVGGDh0qTq3l+fBPP/0kJjsQJWV7RLFK/zWbzWK2ERmC/PTTT5WGIBZH79atm6jw6aeftthk/dY6BGnatKm48OTmzZsBAQEJCQkirykpKRF/85f1b9q0SbYnMDDw+++/13ZEPAdE3JdhEYLIm25KSkq0j0EVzcvLy1NVVRuCeHt7y4kb5CEqKipkDiJDEDkRqfWtE4qivPTSS2J3GYK88cYbssKqFsxms5y3QoYgv/zyi8VVOeIEXlXVIUOGaJ2bNm0qcgo5D8XMmTOrOpZcX15eLic6eeedd8R6EYppK/f39xe3pRQWFsogIz4+Xlw9YX2nlXZfsfz888+rqnrx4kV/f3/rrWKNwWCQ1wfJ2TdCQkLETT179+4VxcTlUXfu3ElJSdFW5eHh8fLLLx89erS0tFTEEKI7ZWVlb7zxhrakeJT1zZs35adixIgR2l2kj3bBbDaLKVQVRZEhyIULFyymp5EhyJdffqk9qK+vr7jw6sKFC9UgaHdhGQEEEEAAgWoECEGqwWETAggggEADCYg5Qcxms3wkpy0HrioEiY6Ovn79utls/vzzzyutZ+zYseIk7dFHHxUFtm3bdnfmxZKSEvFWXply9OjRbdu25Vn9bNu2beTIkeIsLiQkRFxKUFBQYHHirShKSEjI+vXrd+/e3axZM1F5enq6OLqchKLSRoqVMgTRPrnm559/ljXIc/uVK1eKXWQI8uuvv8rzzB07dsiT1ZMnTy5YsGDs2LE9evRo3bq1mONDeyXIhAkTRP2XL1+Wp+6ykeIqG20IIqcRFQ+aWbZs2YQJE/r16xcTEyNuZJAhiHw6T48ePWSFckFegSJDEPGUE1VVd+zYsXv3botxOHbs2Lp162SSpSiKDEF++OEH2XdRv4R6aAgik5etW7fu37/f4qB5eXmrV6/W5m6ffvqp4LK+8ig0NFQkVtoQRN5sJadKkQLWC999952oXOYI1mUURZHXB2mv8hDapaWlcXFxgYGBIhM5efJkpY9ZcXNzCwsLGzJkyKJFi0SsJi4MmTlzpjziY489Jp6vLD/MvXr1EleC7Nmz57fffrO22rBhw5AhQ+RYyBCkuLhYrhT1VxOCFBcXiwu1CEHkWLDgkgLcKu6Sw0qndChACKLDQaFJCCCAQKMTkCHI3Llzbe98VSGIm5vb+fPnrR95K2veunWrqqp//PGHPA1bunSpeAKrKJOQkCCuDpBzGch9xYKfn5/2kTFiYtQ7d+60adPGouTAgQPFSaw8mYyJiRF3Q1hMt2Gxo3grQ5B9+/bJAi+88IKos6SkRFSlnTJWhiC//PKL6GCXLl1E+XXr1lncUJCYmCgSHG0I8vbbb4vyxcXF1ifM4uaLS5cuifZER0eL8/z9+/dr5+YUs6WIRwLLGxxkEvH666/L7siFyZMni+OePHlSzP4g+yIn4JCFxUJISIj2ropqQpA33nhDxEAWN6EkJycLw6+//lrUKedh+eijjywOJ95GRERoH4Min3ejHSNZUvCeOXNGxkmBgYGXLl1SVVXO51rpUcRKaaKtwbr8+PHjRe8+++wzubVTp05yZadOnYTt9OnTZQGxYJ3ceXp6Tp06Vd7zJaOHlJSUsrKyioqK7OxssW9CQoLQ27Bhg0W14q2/v7+ceUd7JYh1CNK8eXNxRIuxDgwMFDPXmEwmi09vpUdkJQIIIIAAAtULEIJU78NWBBBAAIGGEHjiiSfEQ2flfQ22HLWqEERRlM2bN6uqWlZWZv1IkZSUFHEzgpxTQ06VevPmTXlcMWFkeXm59Y0boaGh586dKy8vf/vtt0V5+YhceUuFrEc+anTEiBFipZubmzipW7FihSxW1UKlIUhUVJS4fEOc1qqqqn1WiwwOjhw5ImbKEM8EKS0tjYqKkgcSf3JcsGCBOE/Wys+YMUPUXFRUZDEVZXBwsLy/Q1TVvn378vLyioqKnJwcWblYkFfcrF+/XtyYI9t2+PBhi+fpent7Hz9+XBz38OHDXl5eYlJMkUZdvXpVzkMhj5KRkXHr1q2ysrJnnnlGrGzatKm4imHLli0y4RKbXn75ZdHTsWPHyhoURUlNTRWn8TKSiIqKktPiakuK5Q4dOojsqWfPnmKNuM1EVdU9e/ZYlE9ISBBTuhw5ckT0SBQQV9Ns2bLForz124iICCFQUVGhveZFW9LLy+vUqVOCThtmeXp6iufR3rx5UxQoLS2NjIzU7vv555/fuXNnyZIl2pWKori7u4tbbEpKSuSUt3IaVHkRk8FgEIHjjRs3rGftiY6Ovnr1allZmbzxx83NTYyydQgin2r0/fffaxsTHBwsZlfNz8+3juS0JVlGAAEEEEDAFgFCEFuUKIMAAgggUL8CAwYMECGIxZM7qj9qNSGIfGrpqVOn5CmcoigRERFiGsjy8vKsrCxZv3hejDYEGTdunDirPH36dHBwsCzp4+Mjn0oj7/Lw9/cXZ5t3HzqjTROio6PFs2n//PNPbSUiR9iwYYOcs0PWb7FQaQiiKMq6devEKb2qqhUVFX1sC/O+AAAgAElEQVT69JE7yieqHD16VAQNctIKi6lY5eN7VVV9//33ZQ1y4liTyWQRgkRFRYnrPg4fPizKixBEVVWLizu6d+8uwiaRDojLDby9vcWtDRUVFf/+97/lEQ0Gw/r16wW4uPlFXp6wcOFC0VPrc2PxcFateXR0tEg05PNi5CGef/75SkOQVq1aiblLZKSlKMq3334rGrNmzRptmBIZGXnx4kVxn4i8rea9994Tha1DkBYtWohNP//8s7aeEydOiG7K5lWzMHPmTNHyCxcuaJ//InZJT0/fs2ePOEpxcbHFtRIy+hEF8vLytAcyGAy///67iAu1vw53BeRDcC5cuCDrlI/UnTRpkqxHTgeza9cubdDj5+cnUy3tvTwiXvz999+1IIqiNGvWTAyExUBHRUWJD9LevXstgjPZBhYQQAABBBCwXYAQxHYrSiKAAAII1JfAsGHDRAgiTyxtOZK4DaG8vLxLly7W5cXFIGaz+e5fql999dXhw4d/9NFHIpJQVXXjxo3aAMI6BPH09BQzgJrN5uLi4qlTp7744ovvv/+++Lu3qqrXrl3TXlgh57MoLy9fsmTJwIEDJ02aJO56UFV12rRp2hYeOnRIzC2qvadGW0AuVxWCyOfXqKp6+vRp7clnmzZtxBmvDEGys7PFmpMnTwYGBiqKEh8fv3z5cnH3gdi0ffv2Xr16CRN5C8+xY8e0NSuKEhcXJy5MkNNtyjVXrlwR3TEYDLNmzZLzSojZHHJyckRVAwYMEOe6ZWVlCxcunDBhwn/+8x8xXYVoiaqq8soRMamK3Hp3RF599dVx48bNmzdPDuWxY8fkUEZERIjbT+TzYqSkvGHE4kqQtm3bCodx48bJwvHx8eJaG7PZvGfPnokTJ7788ssLFy4UAZCqqgcOHJAy8sIZ6ys7WrVqJTq1ZcsW2UhFUcREvDdu3OjQoYM8aFULvr6+Mk0oKSlZtGiRmDx41qxZeXl5cvbZkpKSjIwMi0rCw8PFZRSiGe+8845FgWnTpolNZWVl33777ahRo55++uk333xThCOqqi5dulTuEhoaKi5iOnz4sAz1DAaDCIZUVT116tTkyZPHjBnz8ccfy1E7e/asvKFGUZR9+/aJD7/MuUT9VV0JEhcXJ66msb7MSjaMBQQQQAABBGwXIASx3YqSCCCAAAL1JTB06FARggwePNj2Y8yZM0c8mNP6z+OKogQHB4u/OctTa7FgNpsPHDhg8ShT6xBEUZQmTZrIyENbidlsvnTpUmZmpkVTp0yZIs9IteUPHTok54MQu7z00ksygOjfv79FPdq3mZmZ4gzQ4ioDDw8PkdFor4MQO8oQJC8vT/7lfNOmTfLKEW3bfv/99y+++EKuEVPJjho1SqzZuXOnxZlqcnKy+LP81q1bZTs/+OADWYN24datWzNmzJAmMpSZO3eudWPEB0DsPn/+fFm5oii9e/cW0Ya2crF8/Phx8UwcUT4oKEicpZ8+fdri1okhQ4aIg44ePVpb+dixY8X6MWPGaNc/+eSTlR7UbDbv379fe3nR7NmzRWMsHmuiKIq8KkdOOCIOMXjwYHFQs9n8wgsvaI9b6XJ0dPS5c+esuy/WmM3m06dPW9/5JaqS41taWmrxXBhx28u3334rP40WhygsLLT4TZETtV6/fj0+Pl4c4tFHHxXsFrubzebCwkKLX08xrW9JSYn8cIpKkpKSxEdFPqtYrG/WrJlo3nfffSfW8C8CCCCAAAJ1ESAEqYse+yKAAAII2EcgOjr61KlTR48e1V5b8dCqU1NTz549W80DZfz8/GbMmCHujxCnZzdv3nzzzTfl3/DlIcTjY7W3w4hNYWFhK1eutDi1W7RoUUREhNxXuzBkyBDtH95VVV2yZInFaaSiKJ6enosWLRLVTpkyRVuDxbKnp+ecOXP2798vH2QjCzRr1mznzp2fffaZxdm+l5fX+vXrr169qr23yGAwyCOK45rN5qVLl0ZFRQUFBYlbhFRVzc3NFbdCCDTrgMbHx2fbtm2lpaXam1nc3d0nT54swhpptX379pSUFC8vL/HkHVVVt27dKiOVESNGaE+bDx8+PGTIkFWrVondRTNkT+/e/pOYmLh7925Zuaqqt2/ffvvtt62HcsuWLaqqrl69WnvlhaIoQmDhwoUWwxEdHf3777+fO3dOntLL42ZkZBw8eFB70Js3b06aNMnioOIJO7dv37aeFtff3z8vL6+kpMRiwhQ3N7fc3Fxxbj979mx5xGoWAgICvvzyS21jxPKRI0cGDRpk0VltPUlJSWJoCgoK/Pz8tJvEspub28CBA8U0Jdr6V6xYIR+FK/fy9/ffuXOnuAmrU6dOcn1sbKyYb1jWUFFRMWvWLHkrjSwppnrNz8+3aLO7u/ubb765bt06iwdj+/j47N279/bt23ISFlkVCwgggAACCNRCgBCkFmjsggACCCDgZAJ9+vQZPXp0cnJyVe0Wtyf88ccflRZo0qTJ3esFJk6cOHz4cIsTYOvyd2eUfOqppyZOnDhmzJiYmBjrAnJNkyZNLK5KkJvqaSE8PHzChAkzZ84cMWKE9uIUNze3fv36WV8mUKNm+Pr6jhw5cubMmS+99JLFHJlZWVlyftmsrKxx48aJFKlVq1YDBw6Uz5SRedP48eMrPXR6evqECRNeeeUV63Sm0vJ2WdmuXbtXXnll4sSJffv2tUuFspLw8PAxY8Y89BMly4sH7ty9bGri/Z8hQ4ZYRwzawmJZPnq2qofdyF0SEhLuPmp34sSJI0eO1N7AIgvIhQ4dOlR60VZycvKECRMmTpz49NNPy8BL7sUCAggggAACehAgBNHDKNAGBBBAAAEHC4gQ5MKFCw5uh6sfPjk5WVyVcPLkSYsT+ICAADm1hN3jBse7iofxOKId4vlE5eXl1YSAjmgXx0QAAQQQQMAxAoQgjnHnqAgggAACuhI4cuSIqqryiSe6apsrNUY+jkRV1Q0bNsjJNRVFee6558TtITdu3BCzt7pSxx3VF4PBIB7Hk5+f76g2cFwEEEAAAQR0JUAIoqvhoDEIIIAAAg0q4OPjM2HChI8//lhM9rl58+YGPXyjPFinTp3ko3OvXLkyatQog8EwatQo+eCVVatWNUoYO3fa399/xowZBw4cEDOwWjyfyM4HozoEEEAAAQScR4AQxHnGipYigAACCNhbYPTo0eIUUUz0+Mwzz9j7CNRXiUC/fv1k5CHn0RQLhYWFVU06W0lFrKpaQNwFI1Utbj6qej+2IIAAAggg4OIChCAuPsB0DwEEEECgGoEBAwaIEOTatWsWT0itZi821V0gPDx89erVFgnIwoULuRGm7raihpycnLKystLS0nnz5pEr2UuVehBAAAEEXECAEMQFBpEuIIAAAgjUXsBgMNTouby1PxJ7WgnExMTcfULwRx99lJub26FDB6vtrEAAAQQQQAABBOwsQAhiZ1CqQwABBBBAAAEEEEAAAQQQQAABfQoQguhzXGgVAggggAACCCCAAAIIIIAAAgjYWYAQxM6gVIcAAggggAACCCCAAAIIIIAAAvoUIATR57jQKgQQQAABBBBAAAEEEEAAAQQQsLMAIYidQakOAQQQQAABBBBAAAEEEEAAAQT0KUAIos9xoVUIIIAAAggggAACCCCAAAIIIGBnAUIQO4NSHQIIIIAAAggggAACCCCAAAII6FOAEESf4+JErXrEidpKUxFAAAEEEEAAAQQQQAABBBqzACFIYx59+o4AAggggAACCCCAAAIIIIBAIxIgBGlEg01XEUAAAQQQQAABBBBAAAEEEGjMAoQgjXn06TsCCCCAAAIIIIAAAggggID9BJgtwH6W9VQTIUg9wVItAggggAACCCCAAAIIIIAAAgjoS4AQRF/jQWsQQAABBBBAAAEEEEAAAQQQQKCeBAhB6gmWahFAAAEEEEAAAQQQQAABBBBAQF8ChCD6Gg9agwACCCCAAAIIIIAAAggggAAC9SRACFJPsFSLAAIIIIAAAggggAACCCCAAAL6EiAE0dd40BoEEEAAAQQQQAABBBBAAAEEEKgnAUKQeoKlWgQQQAABBBBAAAEEEEAAAQQQ0JcAIYi+xoPWIIAAAggggAACCCCAAAIIIIBAPQkQgtQTLNUigAACCCCAAAIIIIAAAggggIC+BAhB9DUetAYBBBBAAAEEEEAAAQQQQAABBOpJgBCknmCpFgEEEEAAAQQQQAABBBBAAAEE9CVACKKv8aA1CCCAAAIIIIAAAggggAACCCBQTwKEIPUES7UIIIAAAggggAACCCCAAAIIIKAvAUIQfY0HrUEAAQQQQAABBBBAoM4Cj9S5BipAAAEEXFOAEMQ1x5VeIYAAAggggAACfwlwOsxHAQEEEEAAgQcChCAPJPgvAggggAACCCCAAAIIIIAAAgi4tAAhiEsPL51DAAEEEEAAAQQQQAABBBBAAIEHAoQgDyT4LwIIIIAAAggggAACCCCAAAIIuLQAIYhLDy+dQwABBBBAAAEEEEAAAQQQQACBBwKEIA8k+C8CCCCAAAIIIIAAAggggAACCLi0ACGISw8vnUMAAQQsBHhIhAUIbxFAAAEEEEAAAQQakwAhSGMabfqKAAIIIIAAAggggAACCCCAQCMWIARpxINP1xFAAAEEEEAAAQQQQAABBBBoTAKEII1ptOkrAggggAACCCCAAAIIIIAAAo1YgBCkEQ8+XUcAAQQQQAABBBBAAAEEEECgMQkQgjSm0aavCCCAAAIIIIAAAggggAACCDRiAUKQRjz4dB0BBBBAAAEEEEAAAQQQQACBxiRACNKYRpu+IoAAAggggAACCCCAAAIIINCIBQhBGvHg03UEEEAAAQQQQAABBBBAAAEEGpOAnUOQRxqTHX1FAAFnFeCryllHjnYjgAACCCCAAAIIIFAnATuHIHVqCzsjgAACCCCAAAIIIIAAAggggAAC9SZACFJvtFSMAAIIIIAAAggggAACCCCAAAJ6EiAE0dNo0BYEEEAAAQQQQAABBBBAAAEEEKg3AUKQeqOlYgQQQAABBBBAAAEEEEAAAQQQ0JMAIYieRoO2IIAAAggggAACCCCAAAIIIIBAvQkQgtQbLRUjgAACCCCAAAIIIIAAAggggICeBAhB9DQatAUBBBBAAAEEEEAAAQQQQAABBOpNgBCk3mipGAEEEEAAAQQQQAABBBBAAAEE7CPwiF2qIQSxCyOVIIAAAggggAACCCCAAAIIIICA3gUIQfQ+QrQPAQQQQAABBBBAAAEEEEAAAfsI2OdyCvu0xSG1EII4hJ2DIoAAAggggAACCCCAAAIIOEig0QcBDnLXxWEJQXQxDDQCAQQQQAABBBBAAAEEEEAAAQTqW4AQpL6FqR8BBBBAAAEEEEAAAQQQQMBlBLiMxLmHkhDEuceP1iOAAAIIIIAAAggggAACCCCAgI0ChCA2QlEMAQQQQKDRCTzyiOLh5+8bEROc1ia8Xffobn2ju/fjhUDjFej2eET7rJD0Rw1xzTz9gxR390b3pUCHEUAAAQScXOARRSEEcfIxpPkIIIAAAvUjEJL+aNPHhyc88RwvBBCoSiCqc46bp1f9/ApSKwIIIIAAAvUiQAhSL6xUigACCCDgvAIevn5N+xF/kP4gYKuAIa6Z8/6+03IEEEAAgcYmQAjS2Eac/iKAAAIIVCfgFRgS3/9Z7d+94/s9G925d1S7buGt2gc2axGQmKazV/OApOaBSc3vtSrp3rJ4G5jUIrDZvVdAUgu5LNYE3V8vlgObtQiq/JUe1Cw9ODk9ODkjqNnfy8HJGcEp91/JGQ+WWwanPHilahZSWwZX92oVnGr5CkltHZJ273V/01/L99Y0v/+6v0kshzZvU+WrRZvQFm3/2tqi7b3lB6+wBwtiTViLtmHpmWHpmX+9vb8s1oSlt7v/ynywcP9tRruwyl7hLduFt/xrk1gOb/nog1f7BwuPhrdsX9mrQ3jLDuGtOkTcf2mX761pff8lF+6/jWzdMbKNY14RrTtGtuvWpGOveKuUMCS9XXW/V2xDAAEEEEBANwKEILoZChqCAAIIIOBwAXcPbfwR3T4rKDrWPzzKy8/g8KbRAAR0JeDlZ4jq2Ev7++IXHaerFtIYBBBAAAEEKhUgBKmUhZUIIIAAAo1RILprX3FSF99/RFBckqePr+Lm1hgh6DMCtgkYImPj+/115VR8v2f5fbGNjVIIIIAAAo4UIARxpD7HRgABBBDQj4C7t4/8s3ZoWmv9NEzHLXlEx22jaQ0kEJKYKn9x/KK4GKSB2DkMAggggECtBQhBak3HjggggAACLiUQkJj212Ug/Z718PZxqb45oDPkIw5Ad8ghDSHhTXMGi9+d2F4DHdIGDooAAggggIDtAoQgtltREgEEEEDAlQViez4lTuTCmOLRlceZvtlZwN3TMzS5hbwYxM61Ux0CCCCAAAL2FiAEsbco9SGAAAIIOKeAPIvzDYtyzh7QagQcIxAcmyB/fRzTAo6KAAIIIICAzQKEIDZTURABBBBAwKUF5FmcT3CoS3eUziFgZwHfoND4/iPEb1B4eLiXl5edD0B1CCCAAAII2E+AEMR+ltSEAAIIIODMAjIE8Q4McuZ+0HYEGlrA3dMz/vHh4jeoecvW6enpzZo1c+PJSg09DhwPAQQQQMAmAUIQm5gohAACCCDg8gIyBPEyBLh8Z+kgAvYVaNp3qPgNSmuTmf7gx9PT075HoTYEHCbAXM8Oo+fACNhfgBDE/qbUiAACCCDgjAKEIM44arRZJwJN+wz560oQTQiSlpamk+bRDAQQQAABBKQAIYikYAEBBBBAoFELEII06uGn83UTkCGI9kqQ9PT0yMjIulXM3ggggAACCNhZgBDEzqBUhwACCCDgpAIyBPH0MzhpF2g2Ao4SqCoESU9Pd1STanBc7nSoARZFEUAAAacXIARx+iGkAwgggAACdhH4OwTx1VEIEhMTM2/evKZNm9qlj1TSeAT8/f23bt1aWsXPc889Z1+KakIQd3d3+x6L2hBAAAEEEKiLACFIXfTYFwEEEEDAdQQ0IYiffno1efLk4uLid9991+5NSk1NDQwMtHu1VKgTgRs3bpSWli5YsGD8P38mTJhw6NAhscmOTa0mBAkN5ZnTdpSmKgQQQACBugoQgtRVkP0RQAABBFxDQJ8hyGuvvXbu3Lnp06fbFzkwMNBkMu3YscPLy8u+NVObHgS++OKLmzdvhoSEVNWYiRMnlpaWVrW1FuurCUHi4+NrUSG7IIAAAgggUE8ChCD1BEu1CCCAAAJOJiBDEA9fHV0J4uPj07ZtW7tfshEUFFRQUHDw4EGDQUf3/jjZJ0bHzT169OixY8eqaWB0dHRpaWl2dnY1ZWq0iRCkRlwURgABBBBwoAAhiAPxOTQCCCCAgI4EaheCeHh4+Pv7i26I5YCAAA8PD23H3Nzc+vbtGxMToyiKv79/cHCwp6entkBwcPDw4cMnT56clZXl6+ur3VTVcmBg4BNPPPHGG288//zz4eHh1sW8vLy6dOky8v5P9+7dLWIUf3//06dP79q1y9vbW+7r6ekZExMzYsSIt9566/nnn2/SpAmzOUgc51rIz88/dOhQNW0OCwsrLS0dNmxYNWVqtKmaECQhIaFGVVEYgRoKMLFtDcEojkCjFyAEafQfAQAQQAABBO4L/B2C+NgUQwi2uXPnHj9+PDU1dfDgwT/88MOxY8eOHz++efPmjh07StfWrVsXFBR899137733Xl5entFofPfdd93c3ESB3Nzc06dPm0wmo9FoMpl2794dHR0t942JiVmzZk3nzp3lGkVRJk2adPLkSblLQUHBrFmztAX8/f03btxo0vzk5+dPnz5dHPT5559fs2ZNYWHhyZMnV61a9e6773p6eiYlJf3www+iDfLfxYsX+/j4aGtm2SkEbAxBhg4daq/uEILYS5J6EEAAAQTqW4AQpL6FqR8BBBBAwDkEaheCbNmyxWQyffPNN0VFRUajsfD+j/H+T05Ojuh5VlaWyWQSsYXIJT799FO3+z/z5s0TO+7atWv16tXHjx83mUw//vijvB5k1KhRJpPpiy++kKHJ9OnTi4uLjUbjiRMnfv3115MnTxqNxqKiIhmsuLu7r1y50mQyFRYWfv/99z/++KNIXoqKil555RV3d/f169eLAEWEHadPn05KSjp69Kho/549e1asWLFt27bCwsKioqKXXnrJOcavUbYyKCgoLy+viifA1HJ17UacEKRRfgDpNAIIIOCUAoQgTjlsNBoBBBBAwO4CtQtBVqxYISIPk8k0bdq0uLi4pk2bLl682GQy5eXliRtV+vfvL0KHM2fODB06tHnz5uI2k6eeespoNJ45c2bw4MGiO2lpacePHzcajSNHjhRrRo4caTKZvv76a7GLuKjEZDLNnj1bXKPh4+Pz3nvvmUymU6dOiTtuOnbsWFBQUFhYOGjQIFGJh4fHxx9/bDQajx07FhISEh4e3rlz54KCgiNHjnTv3j0tLW3MmDEmk+n48eOtWrUSuyiKMmfOnKKiou3bt3NTjDTR28K5c+dKS0uHDx/e8p8/IiP757p/vOvWrVtpaemUKVO0a9u0abN27drS0tJp06bVtKeEIDUVozwCCCCAgKMECEEcJc9xEUAAAQT0JVDHEGTRokWyP76+vocPHy4uLh4wYICiKE888YQIQQYOHCjLeHp67t27t6io6J133pErFUV58cUXTSbTr7/+KlaKEGTp0qUiiVi0aJHRaPzll1+0u/j4+OzatctkMo0ePVpRlLlz5xqNxp9++kkbXkREROTn5999Isyjjz6qKIqYGPXAgQNiYtRx48aZTKYTJ060adNGzlfSqVOnEydOrFq1ymKKE+2hWXagQFZWVmlpqTa3ko2py+0wO3bsuHXrlrzySNZZ/QIhSPU+bEUAAQQQ0I8AIYh+xoKWIIAAAgg4UqAuIUhBQUFaWpq29V999ZXRaBRTdYgQJD8/PykpSZbp3r17cXHxyZMnLZ7P0qxZs8LCwjNnzoiZQXr06GEymb7//ntPT08fH5/du3cbjcbvvvvu7bfffvHFF5+///Pcc8/99NNPJpMpNzfXy8vr559/NplMU6dOlcdSFMXNze2FF16YPXu2mAk1MDDw9OnTMgSJiYk5deqUuB1m27ZtH374YZs2bbS7s6xDgalTp1b1mNu6hCDDhg0rLS0NCwurUZcJQWrERWEEEEAAAQcKEII4EJ9DI4AAAgjoSKAuIcjOnTvlBRSiS9OmTTMajcuXL5dXghw7diwqKkp2eOLEiSaTadWqVXKNWAgODj527FhRUVFmZqaiKJmZmTIECQkJOXbsmJjIo6ioqFjzI6YaGT9+vMFg2Ldvn9FoHDVqlEXN2rcBAQH5+fnaR+SmpaVt3LhR3tpz/vz5/fv3jxo1yqJf2kpYdqzAO++8Ux8hyFNPPVVaWhoREVGj3hGC1IiLwggggAACDhQgBHEgPodGAAEEENCRQF1CEO29MKJLr7zyitFoXLFihTYE0T725e233zaZTPPmzbMgCAsLO3HiRGFhYfPmzRVFadWqlclk2rp1q7e3twhBCgsL9+3bd+DAgcLCQpFZiDWvv/66h4eHt7f39u3bTSbTlClTLGru16/fhAkTxL0tfn5+x48fP3bsWHBwsLZYSkrK0KFDt23bdvbsWZG2LF26tKZ3RmgrZLn+BAhB6s+WmhFAAAEEXFiAEMSFB5euIYAAAgjUQODvEMS7Bo/IFROjrl271uJIixcvNhqNc+fOrSoEmTBhgslkWrNmjcWO7du3N5lMR44cEeszMjKMRuPPP//s7e3t6em5c+dOo9E4ZswYi70CAwNbt24t0op58+YZjcYff/xRO5dHaGjoqVOnioqK2rZtqyiKr6/v/v37T58+LaZuFWu8vLxktVFRUe+9954IWSqddUKWZMFRAoQgjpLnuAgggAACTi1ACOLUw0fjEUAAAQTsJqAJQXxsr1SEIPn5+fHx8XKvpk2bnjx58u6UH3379lUU5bHHHhNPZtFeCdKpU6eioqKCggLtRCGKoixdutRoNH7xxReiNm0IcnfNRx99ZDQat2/fLo+lKIq/v//u3bvvzmzap08fRVHatGkjntSbnZ0ti7Vt21ZMNSJuyfHy8tq5c+eZM2eaNGmiKEpSUtKRI0e2bt1qMUGJeFTNY489JuthQT8ChCD6GQtaggACCCDgRAKEIE40WDQVAQQQQKAeBeoSghiNxi1btoSGhnp4eISGhq5fv95kMv3222/iKbZZWVlGo/HIkSN+fn7aDmzatElc5dGkSRMvLy9fX9+pU6eKqKJ9+/aipEUIkpqaWlBQYDKZFi5c6Ovr6+XlFRYWtmTJEpPJdPr0aZGneHh4fPvtt+KIzZs39/DwCAoKEjOniglW7z7+1sPDY8uWLUajsUOHDoqiZGRkiGo/+OADPz8/Dw8PLy+vUaNGialSxY052pazrAcBQhA9jAJtQAABBBBwOgFCEKcbMhqMAAIIIFAvArULQb744gtxz4jRaDx+/PiGDRvE1RMFBQWdO3cWDRUhyO7du7XPrFUUJSEh4cSJE0ajMT8/f+fOnWLH4uLiGTNmyGk4LEIQRVEmTJhQVFQkLi3ZtWvXmTNnjEZjUVHR+PHj5V6RkZGHDx82Go1nzpzZvHmzOMqZM2dSU1Ol3UcffWQymQ4cONC1a1d3d/dPPvlEVHvixImNGzfu2rVL9GvlypXa22rk7iw4XIAQxOFDQAMQQAABBJxRgBDEGUeNNiOAAAII2F9AhiDu3jW4HWb+/Pkmk+mrr74SN6SI4GDv3r09evSQTYyKitq5c+frr78u18iF5OTkH374QcYox44dGz16tNwqrtGQc4KI9e7u7mPGjDl9+rR4IozRaDx48GD//v21eymKkpqa+vPPP4uaTSbTsWPHxL05slhMTMxvv/1WVFT0zTffiJUjR8hMoroAACAASURBVI48evSoyWQSU6KKu3Isrl6Ru7PgcAFCEIcPAQ1AAAEEEHBGAUIQZxw12oyACwk84kJ9oStOLlCXEOTdd9/18PDIzMzs2bNn69ata3rpREpKSq9evVq2bKmdmlRwikfkbty40eJRtYGBgdnZ2X379n300UctLjCR4+Du7t62bdu+fft269bN17eS2V7d3Nw6duyofRiq2CUnJ6dnz55xcXGyKhZ0KEAIosNBoUkIIIAAAvoXIATR/xjRQgQQQACBhhCoXQjy/vvvm0ymmTNn1lMTs7KyTCbTqlWrahqs1FN7qFY/AoQg+hkLWoIAAggg4EQChCBONFg0FQEEXEuAq2B0Np61C0EmTZokpim1e2/8/PxefPHFb7/9tqio6KOPPrJ7/VTo7AKEIM4+grQfAQQQQMAhAoQgDmHnoAgggAACuhP4OwTx8ra9ca+99lo9hSC5ubnFxcUmk6mgoEA+LMb2hlHS5QUIQVx+iOkgAggggEB9CBCC1IcqdSKAAAIIOJ9A7UKQPn367Ny5c9CgQXbvcGpq6owZM8aOHZuWlmb3yqnQBQQIQVxgEOkCAggggEDDCxCCNLw5R0QAAQQQ0KNA7UIQPfaENjUOAUKQxjHO9BIBBBBAwM4ChCB2BqU6BBBAAAEnFSAEcdKBa7TNJgRptENPxxFAAAEE6iJACFIXPfZFAAEEEHAdAUIQ1xnLxtGTZ599trS0tNK+5ufnHzp0qNJNYmVYWFhpaenQoUOty7z++uulpaV+fn7Wm6pZ07TPEPEblNYmM/2fPwkJCdXsyCYEEEAAAQQaWIAQpIHBORwCCCCAgE4FCEF0OjA0qwqB+Pj4u2nFZ599Zr291iGIj4/PpUuXTp8+bV1n9WsIQar3YSsCCCCAgH4ECEH0Mxa0BAEEEEDAkQJ/hyCeXo5sB8dGwGaBpUuXltr759atWxERETY34a+ChCA1FaM8AggggICjBAhBHCXPcRFAAAEE9CUgQxA3QhB9jQytqU6gY8eO69ats0hC7tz/sVipfXvnzh3tW7F85cqV6dOnBwUFVXe8KrYRglQBw2oEEEAAAd0JEILobkhoEAIIIICAQwQIQRzCzkFdQ4AQxDXGkV4ggAACjUGAEKQxjDJ9dLDAIw4+PodHAAGbBAhBbGKiEAKVCRCCVKbCOgQQQAABPQoQguhxVGgTAggggEDDCxCCNLw5R3QZAUIQlxlKOoIAAgi4vAAhiMsPMR1EAAEEELBJgBDEJiYKIVCZACFIZSqsQwABBBDQowAhiB5HhTYhgAACCDS8gCYE8Wz4o3NEBJxagBDEqYePxiOAAAKNSoAQpFENN51FAAEEEKhSgBCkSho2IPAwAUKQhwmxHQEEEEBALwKEIHoZCdqBAAIIIOBYAUIQx/pzdKcWIARx6uGj8QgggECjEiAEaVTDTWcRQAABBKoUIASpkoYNCDxMgBDkYUJsRwABBBDQiwAhiF5GgnYggAACCDhWgBDEsf4c3akFCEGcevgqb/wjla9mLQIIIODsAoQgzj6CtB8BBBBAwD4ChCD2caSWRilACNIoh51OI4AAAk4pQAjilMNGoxFAAAEE6ijg5uZmUYMMQaIzMqPT2/BCAAHbBeIfHy5+g9LaZKb/8ychIcHid423CCCAAAIIOFCAEMSB+BwaAQQQQMABAt7e3hs3bvz9999bt26tPTwhiO1nvJREwEKAEET7ZcIyAggggICeBQhB9Dw6tA0BBBBAwP4CgwYNKisrU1V1zJgx2tplCOITGOxl8OeFAAK2CzTtO5QrQbTfJywjgAACCOhWgBBEt0NDwxBAAAEE7Cbg5uY2ZcqUNWvWnDhxory8XFXVioqK3r17aw8gQ5CgmPig6FheCCBgu0DTvsMIQbTfJywjgAACCOhWgBBEt0NDwxBAAAEE7Cbg5eX1xx9/mO//3Llzp7y8vKysrEWLFtoDEILYfsZLyUYiEGhzGkgIov0yYRkBBBBAQM8ChCB6Hh3ahgACCCBgN4GMjIzBgwf37t07NTX1xo0bt2/fDg8P19ZOCNJITuzpZn0IEIJov0xYRgABBBDQswAhiJ5Hh7YhgAACCNhfIDk5+ebNmzdu3AgJCdHWTghSxblxTBXruWMIgb8FCEG0XyYsI4AAAgjoWYAQRM+jQ9sQQAABBOwv0LJlyzt37ly+fDkwMFBbOyEIYQcCtRYgBNF+mbCMAAIIIKBnAUIQPY8ObUMAAQQQsL+ACEEuXboUEBCgrZ0QpNYnwOyIACGI9suEZQQQQAABPQsQguh5dGgbAggggID9BTp27FheXm4ymQwGg7Z2QhDO5IOiY22fChQurQAhiPbLhGUEEEAAAT0LEILoeXRoGwIIIICA/QU6dOhACKI9fWUZgboLEILY/6uKGhFAAAEE6keAEKR+XKkVAQQQQECvAp06dSovLy8oKOBKkLqf+lIDAkKAEESvX3i0CwEEEEDAUoAQxFKE9wgggAACri2QlZVlNpvz8vK8vb21PeV2GM7nEai1ACGI9suEZQQQQAABPQsQguh5dGgbAggggID9BQhBan2iy44IVCVACGL/rypqRAABBBCoHwFCkPpxdbZaH3G2BtNeBBBAoNYC9g1B4pq3bJPdOzQ2vqqTw6Do2NC4hF5DnmvZLbuaMmxCwKkFCEFq/Y3EjggggAACDSxACNLA4BwOAQQQQMDBAvYNQeZt2bnZdPXJF1+u5gy219DnNxuvrDp8pklK82qKsQkB5xUgBHHw9xqHRwABBBCwWYAQxGYqCjqZAFe3ONmA0VwEGkygbdu2N2/eXL16tbu7u/agtZsTZOHWPZtNV7Ofebaa09dOjz+5seDSuhNn41q0rKYYmxBwXgFCEO2XCcsIIIAAAnoWIATR8+jQNgQQQACBehEIDAz09PS0qLp2IUhkUkqTlBbBTZpWc/qa+mhnQpBqfNjkAgKEIBbfJ7xFAAEEENCtACGIboeGhiGAAAIINKhA7UIQW05fU9sTgsTaAkUZ5xUgBGnQbysOhgACCCBQBwFCkDrgsSsCCCCAgAsJ1C4EefXjBd+dPNdz8Ah5+iqmQf1o3Q9rjhQu3XNs3Ptzug54ZgO3w0Q30hwkNCktsd+wyJbt5SfEJRcIQVzou5CuIIAAAi4uQAji4gNM9xBAAAEEbBSoXQiyeOfhTYWXn319ujizjUlNX/TL/k2FlzcWXNpkvCIWNhZe3nDmInOCuOTJ/0M71f69JT1X7eu6cEtwXOJDCzukQHhqy7ge/UKbpdXl6IQgNn7PUAwBBBBAwOEChCAOHwIagAACCCCgC4FahiA7Dm8qvDJw7KtB0bFhcYkLftq9seDS9/nnx70/p212Tt/nRn+x/cDGgkvMCVKXE2xH7Rscm9D9i61dP9tYlwa0fPnd3t8da5/7VVC1E8fU5RB13DfxiRGPrT0c16NfXeohBNHFtxiNQAABBBCwQYAQxAYkiiCAAAIINAKBOoUg4+6FIJ37D7yfgFzo3O8peT4Z16LlmqPGv0KQ5jwdxpluigmOTeix+JduCzfL0XTJhcQnRvT65iAhSCP4kqOLCCCAAAL3BAhB+BwggAACCCBwT6DSEMQ/Iso7KMQ/Irqqs19xO8ywSW8FRce++vGCjQWXFmzdHRqXoC0/Yfb8TYWXVx8+0yS1hXY9yw4WaNI0rnvfhL5DEvsOiX9sYGhyumxPbJfeiX2HJPYb1uPrHd2/3Jb4+L0yiX2HNM1+4q8yMfHxvQfF9egfHBPftNeTiX2HxHbrG9QkTtYQkpgqar6/49DYLjlyk1iI7dYnoe/goCZxsV1z7tXc6ynr+2VCmzWPzxmU2HdI9KPdguObJfYd0qR9D4t6Hvo2OrNr4uNDQ5u1CG/eJqHPMwl9nonMeFS7l3UIEhyXmNBncHzOM8Gx//gka/eyWOZKEL5GEUAAAQScRYAQxFlGinYigAACCNSvgEUI4h8R9a9//df/evDzr//6r0qjkM9+/G1j4eXxsz4Jio6dvXbzpsLLby74WnsyHBQdmzP835sKLt0LQVIIQfRyJUhIfLMu8zf2WnOg56p92Sv39ry/ENf9cXFu3+7thb3WHBRbe67a12vNgftvD3b59Pug6HtJR0hCco+vfun08drOn37Xc/X++68DHd5fGhQTL2qIats5e8We7JV771W+al+76QssUoNHZy7OXrar1cQPen1zsOeqfT1X7++x5Nfw5q1lMVFDz9X7s1ft6/XNwfTRb2Wv2NNywkxZwMaF9Ben9lpzoMXIKb2+OdRz5d6eq/c/9s2h5MFj5O7WIUjLV97ruXp/8qDRssxDFwhB6vfridoR0JXAI7pqDY1BoMYChCA1JmMHBBBAAAGXFNCGIIFRMf/6r78TEJGE/F//+pf1qeCnm7fLEGTO+m2bCi9P/Pgzi2I5z47cWHhpzdHCmLS/rzWwKMPbBhZIGzGx56p9zV+YHJqYGpqYGtW2S9byXd0eTF8aEp8cmpQW2qx59/u3w9xbvv8KSUwR7RQhSNbS39KeezU0KS0sucX93ORA2oiJf3WkSZyoObJ1h54r91YagvRcubf9e0vCm7cJTUprMfL1nqv3tZ+5WOweHJfYZf6G7JV7kwY8F5qYGtmqfac5a7NX7q1dCNJzzYFuX/wU07lXaGJqTJfePZZsz172W3jaX4GLRQgS16N/z1X3W6K5sOWho0MI4pLfinQKAQQQcEkBQhCXHFY6hQACjV0gKCgoIiIiNjY2nh+bBbqMmiReGR06N0ls9uASkH/818MQaHE2qA1B/rod5qddFrfD9B7+73tzgpw827RFK4vdeesogdaTZmUv2xWWVt2IVDMniAhBui7YJO9hCUtJz16+q+PslRbXAYU3b11VCJK9Ym9ERuZfAjFNu362sceSX0Pim92bZDclI2v5bpmJBEXHxnZ/vOeqfbULQXqtOZjQd6ikTntuUs81BxIeHyLWaEOQsOT0Hku29/hyW2hSzR4WQwjS2P9Xh/4jgAACziNACOI8Y0VLEUAAgaoFvLy8Xnjhhe3btxcWFt65c0flp24CU6dO/Uf48eDN//ff/yPPJMWCNgTp9PiTGwsurc+/kD1ouLbYO19/IyZMTWjZVrueZQcKJPYf3uubQx0/WhXfe2BMp14hianWjXloCNLxo9XymS8hTZt1/WxThw9XyDWiwupCkGW7tFlDhw9XZC3ZHppw72KT8Oats1fsyRj716OXg6JjI9t0qvWVIL3WHIzt+vekJEkD7s2Emtjvr1jkXgiy5kDqiFea9hzQ4YNlPVfui635k2IIQar+emYLAggggIC+BAhB9DUetAYBBBCokYC3t/fIkSNv3rwpT/nv3Llz9uzZw4cP79mz55dffvmZH5sFduedEK8du3a/Nvn1B7nHP/77P+6eFqfK2hAkKDp27oafxYNgug54JjYtI6nNo1MXLROPyF2f/3tiqwd/9o/Wy9QYFt1pVG9bvDi1x5Jf78/3cW/Kjw4fLAtt1lwrUKMQRLujdrm6EGR5A4Yg3bQhyHMWIYiY0+T+7CT7O8/5NjimqbYLtiwTgtToq5vCCNRKgKk4asXGTghYCRCCWJGwAgEEEHASgfnz58uLPq5fvz5y5Mj4+Hgnabsem6mdE8Q/Ivof4ceDN4FRMRYnhPN/2LnZdPXZydPE+oSWmV/vzttUeGVjwaUNZ37fWHBxY8HlTcYrG85cXJ9/IYEQRGfpT0hCclhyekLOM23fmNtz1f5OH3+jfR6KA0OQsNSW2St2Z06dLz9v0Y92r9OVINWGIPcekdtzQGhS89avze65+kDyMy/K49q4QAiixy812oQAAgggUJkAIUhlKqxDAAEE9C2Qk5NTXl6uqurt27cXLVrk7u6u7/Y6R+u0IUhQdOz/uHs+iD7++q/i7Wt9Qti5/9Ovf/plbFqG3BSZmPzWwqWrDxfcuzXm9O9f7jg4dOIb3+ef/z7/fHxGG1mMBccKBMclBv/zScaPzlyc9fWO0AdTnwZFxzowBAlJSO7+5daspTsjW3e815K4xLZvflKXOUHisvpL8ORBo+/NElLZnCChiandv9yWvXxXePOafVYJQZzja45WIoAAAggoCiEInwIEEEDAyQR27Nghbn559dVXPT09naz1Om6uRQgSFB3rGxL+v//Pf//f/8//+7//z3/7hoTLc0hbFiKTUpqktGiS0jysaWJQdGx6lx6te/SyZUfKNIxAx9krs77eHtWmkzjc/Rk9NnZf/HNIfLK2AfcmK/3qZzFZqXa9mBhVOyeIdqt2OTytVc+VezOnWT4z6N4jcqu+HSYoOjZpwL2bVnqt2nfvnp1V+9rNWFSXR+R2nL0y5P5cp6HNWnSZt77nyr1RmV1EO7UTowZFx8ZlPXHv6TAfLLWY4VXbKevlxheCcGOCjr/NaRoCCCBQrQAhSLU8bEQAAQT0JBAQEHDr1i1VVQsLC/39/fXUNFdoi3UIYn2mxxqXEUjoOyR75d6eqw9kL9uV9fVOMTNIi9FvWnQwZciYnqv3/zVvyDcHM6ctEAUeGoJkTp2X9fXOHl/v6PH1jp4r92Yv3y2Wu3+5LeT+1KcPDUGComObdMxu9/bC9rlLUoeNj2zTsQ63wxxoO3XeY2sPZy3b1XPNgV6rD7SZ8rHMOCxCkKDo2Mxpn/VcvS+x3z/m97WQsXjb+EIQV/jSow8IIIBA4xQgBGmc406vEUDA+QSioqJKSkpUVZ07d67ztd4ZWkwIYnFa6/JvIzLatXrl/XbTF7Z7e2Gb1z+O6donKDrOstdN4hIfH5Y5bb4olvbcq6JAcNOktm/MyRj3towSLHZs/sLke7tYvTLf+jS4aVJQdGyLUW9kTp2nvfAkfcz0tm/MFVstarv3dJjW90KQjLFvW2+qfk36i1N7rTnYpGN2/GNPt31rXubU+QmPDw2KiZd7xXbr++iMRdHtusk1ockt2k2d3+b1/4hH1cj11SwQgjjDlxxtRAABBBC4J0AIwucAAQQQcAKBqKgocQtMbm6uEzTXOZtICFLNKS6bHC6Q2G94z1X7UoaMrWlLRAgSq5kYtaY12FKeEMQ5v/ZoNQIIINAYBQhBGuOo02cEEHAugaCgIHENyL///W/narlztZYQxJZzXco0pECH95Z0/3Jb9y+39lj8c6/V+3ss2R6W+vcUvDa2hBDEub6IaC0CCCCAQH0LEILUtzD1I4AAAnUVuHbtmqqqc+bMqWtF7F+tACGIjSfVFGswgTaTP+rwwbL7r6WtX51lPT+rLS1JHjS646wV2rtdbNmrpmW4EqTabxc2IoAAAgjoSIAQREeDQVMQQAABa4H169erqrp582brTayxrwAhSE3PeymPgBQgBLHv1xG1IYAAAgjUnwAhSP3ZUjMCCCBQV4F27dqpqnr58mV3d/e61sX+DxMgBJEntCwgUFMBQpCHfcGwHQEEEEBALwKEIHoZCdqBgAsKPOKCfWrgLt28eVNV1ZiYmAY+buM8HCFITc97KY+AFCAEaZxfm/rpNf+PQz9jQUsQ0L8AIYj+x4gWIoBAIxV49dVXVVX97rvvHN3/xvL/LQlB5AktCwjUVIAQxNFf1BwfAQQQQMBWAUIQW6UohwACCDSwwPXr181ms7+/fwMft9EejhCkpue9lEdAChCCNNpvTjqOAAIIVCqg57+hEYJUOmSsRAABBBwskJWVparqDz/84OB2NKbDE4LIE1oWEKipACFIY/qypK8IIICAcwsQgjj3+NF6BBBwVYGCggJVVYOCgly1gzrsFyFITc97KY+AFCAE0eF3Gk1CAAEEEKhUgBCkUhZWIoAAAg4WUFW1tLTUwY1oZIcnBJEntCwgUFMBQpBG9n1JdxFAAAEnFiAEceLBo+kIIOCqAp07d1ZV9dNPP3XVDuqzX4QgNT3vpTwCUoAQRJ9fa7QKAQQQQMBagBDE2oQ1CCCAgIMFVq5cqapq+/btHdyORnZ4QhB5QssCAjUVIARpZN+XdBcBBBBwYgFCECcePJqOAAKuKnDkyBFVVSMiIly1g/rsFyFITc97KY+AFCAE0efXGq1CAAEEELAWIASxNmENAggg4GCB33//vaKiwsGNaHyHJwSRJ7QsIFBTAUKQxveVSY8RQAABZxUgBHHWkaPdCCDgwgK3b9++ePGiC3dQn10jBKnpeS/lEZAChCD6/FqjVQgg0FACjzTUgTiOHQQIQeyASBX1LMB3Sj0DU73+BFRVLSoq0l+7XLxFhCDyhJYFBGoqQAji4t+PdA8BBBBwIQFCEBcaTLqCAAIuIeDr66uq6unTp12iN87UCUKQmp73Uh4BKUAI4kxfdrQVAQQQaNwChCCNe/zpPQII6E/AYDCoqpqfn6+/prl4iwhB5AktCwjUVIAQxMW/H+keAggg4EIChCAuNJh0BQEEXEKAEMRRw0gIUtPzXsojIAUIQRz1xcVxEUAAAQRqKkAIUlMxy/LMV2EpwnsEEKibACFI3fxqv7cMQYLjEoNjmvJCAAHbBQhBav/Vw54IIIAAAg0rQAjSsN4cDQEEEHiYACHIw4Tqa7sMQaIzMqPT2/BCAAHbBeIfHy5+g9LaZKb/8ychIaG+fmmpFwEEEEAAgZoLEILU3Iw9EEAAgfoUIASpT93q6pYhSGRay4iUdF4IIGC7QPzjwwhBqvt+YRsCCCCAgG4ECEF0MxQ0BAEEELgvQAjiqA+CDEGCYuLlTAcsIICALQLcDuOoLy6OiwACCCBQUwFCkJqKUR4BBBCoXwFCkPr1rbp2QhBbznUpg0ClAoQgVX+1sAUBBBBAQF8ChCD6Gg9agwACCBCCOOozQAhS6cktKxGwRYAQxFFfXBwXAQQQQKCmAoQgNRWjPAIIIFC/AoQg9etbde2EILac61IGgUoFCEGq/mphCwIIIICAvgQIQfQ1HrQGAQQQIARx1GeAEKTSk1tWImCLACGIo764OC4CCCCAQE0FCEFqKkZ5BBBAoH4FCEHq17fq2glBbDnXpQwClQoQglT91cKWxijwSGPsdEP1GdyGkrbrcfQ1bIQgdh1cKkMAAQTqLEAIUmfCWlZACFLpyS0rEbBFgBCklt877IYAAggg0OACeglBwgM8nu8R+uP05NPzM3ghgIBDBPZ/2PyNp6JSor0b/IuIA/5DgBDkHxwN+IYQxJZzXcogUKkAIUgDfldxKAQQQACBOgk4PgRxUx5ZOiHBIad89j3oGeIbBFxFYPvM1NhQzzp9tbBzHQQIQeqAV6ddCUEqPbllJQK2CBCC1Onbh50RQAABBBpQwMEhSEyo58lPWtg3jKA2BBCwi8ALWaEN+F3Eof4WIAT526JhlwhBbDnXpQwClQoQgjTs1xVHQwABBBCovYAjQ5AQf4/jc/+RgEwbHNejdXjrlJDYCN9gg0eAr7tTvwJ93QP97r0CfN3lslhz/18PzbIo6RHoV8tXkGbHID+Pv1+Gfy4bPILq6+WprTnY4Fndy98zWLxEMfm2Vgsh/p7iFfxgQa6pciHAM0S8xC7ybU0WQgM8H7y8QgO8HiyLlWJN1f8GeoVavcICvcRLbJJvwwK9wwO9w4PuvcICvcIDvcTyX/8Ge4eL1/0CYjki2PveK+T+S7McGeIdGeLz4OV9/613VKhPfKRvRrxhQr8mFulJz5YBtf92Yc/aChCC1FaurvsRglR6cstKBGwRIASp6xcQ+yOAAAIINJSAI0OQw//5KwHJn5f+cv+Y6MiAkCDfhuo4x0EAgUoEvDzdXx3wjygkMsijknKsqk8BQpD61K2ubkIQW851KYNApQKEINV9ubANAQQQQEBPAg4LQXLaBMq/OfduF+7h7vbII/p6cI6ehom2INCgAu1SguSv5zevJTXosTmYohCCOOpTQAhS6cktKxH4/9k7D7emkv1x/xc3gICrbiC0hDRCCJAEkI4gVey69g5YsKDuqmtde18VVEQE6ahAwN5AehMCpJwk6iro3t31em+e5/vzZxg8xAAxCQkB/eTJ453MmfnMnDcwe+dlZo4uBECCmGvggnaBABAAAkBAXwJmkyBPDnmgWVb+z+5WVpb69hvKAwEgYDoC1uMs09b3HVfcdYE7wcbCdG1B5IEEQIIMZDIyOSBBdJnrQhkgMCgBkCAjM0xBK0AACAABIDB8AuaRIBNsLfC/MzPIE4d/GxABCAAB4xKgU/oXg/BosE/NuHS/Eg0kyFcAmezySEgQCs2eylC9XemDziS1ZNq50klUhh2FNlQZO4qqgAGRhwoI+UBAdwIgQUw2MkFgIAAEgAAQMDIB80gQLm08LkGMfEMQDggAAWMQcCJNaDzVd2pPykwnY4SEGLoSAAmiKyljlzNMgkxfmbj2wHF7KoNIprpyvBk8P7q3D4nG1Jg9urhztpy4kP6ovqBFUtgivV4nTNx3xE5NhTjQ3WYnJtO8fdx8AnamZv5e9vBIXknEvMV2rnQy2yvlVGpOfUdJ1x+ZVS0R8xZpBKd7++xKy7xeJ7wpVOQ1dh3MLqZ68jTKwMfvgYAjh+/I4ZvlTkGCGHtAgnhAAAgAASBgKgLmkSALQuyRBHl0kGOqO4O4QAAIDIOAjbXVoeV09Ht6cR19GJGgqt4EQILojcxIFQyTIIUtkgrZu5mr152+efdGu0Ig6SkVvc6sagmKn43PRR0Z7plVLeXSnjLxm5KuP0q6XpWJ35Rjbxdu2o6XmbY8oUL2Lqe+o7hNJugtWSbprsDe7rqYVdAsRnVLRa8Fku5PrXCCwvCK3LDIolapQNItkHSXid+gREGzxFOtDF4YEt8wAWffkOi8mpj8OnJA+MjfJkgQI41DEAYIAAEgAARMTsA8EmTTdEc0ucrd5m7yW4QGgAAQMIhAUnzfY2IeHOR6eXlNmDDBoDBQSW8CIEH0RmakCoZJkCuPG3q9Q4/KU4he5zV0qSyGpPtmx0tOUCiaiy77eY9A0n361j2PgBC0ZiRqwbJS0R+pdyrxyWr0vaIvCwAAIABJREFUohXlvSKjXNqz90quh3/wnKRNKqkh7RFIe86U3OcEhtK8+Gn3ngkk3SknL6CKzm7sjKdNAkl3frM4etFKXljk9JVJhb1O5EzJfTw4JEY/AbfZy8POFFGnTDO4qy4B4TH5dbEFDZTQGIODGFwRJIiRxiEIAwSAABAAAiYnYB4Jcmhp3+TqXBLD5LcIDQABIGAQgbjJfSu2Os5z0YvD4VhawjHGBtHUpxJIEH1oGbOsYRLkYq+VEEi6z5TcZ/InE8lUZxYn/VG9QNKduPcImlKeKblfIXsXPnchPsNkcH2L22QFLWIy2wtlRsxbJJD0CCTd2bXtjgwWkUz9dHTI1cpmgaT7ep3Qga7KIZKpc5I2VWBv0x/WoY/Ri1eo1oYIFd6hEXjwyVHTSkWvy8RvvMMi8UxIjHICHks3xhbUM2LnD6efzr7Bzr7Bw4lgcF2QIMYcjCAWEAACQAAImJKAeSTI4c8S5Gwi05R3B7GBABAwnECg+wS0YqvzPK/PgvT+j+ERoaZuBECC6MbJ+KUMlSDVAkl3Sdcr9S0qO1KvlkvfnigsR1NKfkTM3HWb0QkgTm5sOtd3f2a+QNJd/Byj8/xQGVyCTFue8HkiSjuaXyqQdP/8e/rnHGrQtNkV2NviNjnKOVYgKJf2HMsvY/D8GFxfmhef5s2nevKu1wlvy/+ck7QRrwgJ8xKwZ7g7evo4evk6evqS3PvMF5FMtaMyVJlevp4rt8YW1LvNXII+Onr52lH7TpaxZ3o4evkSKXSSG6c3gg9+Cd2UgwcPr+Xo6atxp6gJewbbjsp09FS1Zc/00ChDJFMd2N6OXr4OHD6RQkMBiUOfwjuwOkgQ4w9JEBEIAAEgAARMQwAkiGm4QlQgMPYJDCVB3N1hF5tpv12QIKblO3R0wyRIVvVzgaQ7q+a5+mNZVu/6rUL27kzJA3yuSHb3TD5y5uK96tyGzrLeoz0Eku5bHa88Avq2zCAJUtAicXJjf65FO1YgEEi6N5/o2/xCJFP54dFlkjclna/oPNVcFy0VUZ0wIu0RiFX5JV2vSjpflYpe35b9OXft5s+hVKtI4G0uArSoOVOvPowpbIgtaowtbIzKrvRctRV1hhwYEVfcFFvUFFPQoNrMoiqj+hhb2Oj6eWuM55qf44qbmTOXRl57ElvYGFPQMOV8iYPH57NvKbQp50tUkXvfMXm1djQ39TslB06NK272WvNz2PlbqviFjZGZj+ix89TL8JL3R+dUxxY1xuTX+e+9GHq2OCa/jsTqlzXqhQdNgwQZemiBK0AACAABIDC6CIAEGV3fB/QGCGgnYGNjExAQcPLkyc7OTmXv68OHDw8ePEhISGCxWNrr6nsVlyAdX64E4XK51tbW+kaD8roTAAmiOyvjljRMguQ1dgkk3efLn6jPDFfu3F8he/e74CHKjJi7qKTzVYXsnWrNSOervEbR4dxbtzpfDZQg16pa8Ifg2lFoJ4pvCyTdWz6fAEIkUyfHTBdIe0o6/2D5BX16Hk1+k6g35h+3Ol+WiV6jd6no9a2Ol4dzbqHzR9Q7BumRJ2DPZEdmPoq89pgeM48cGEEJjg49UxR3oxWd3GFPZ1GCoyjBUdwN+2IK6j2WJqOPlOAoe2afDvNcvS06r3bK+VJ63E/koKn8jb/F5NeFninC78XFN5QcOJXsHx56uig659kACRKByvM2HiAHRrj/lBidWx19vcqB7Y0i0KLnxBTUR1y6Qw2fTgmKCjycGZn1NDrnGUgQ444wEA0IAAEgAARGCQGQIKPkixil3bC1tR2lPfv+uuXq6lpZWYnEB/r3zZs37e3t6jk9PT2nTp0yFhstEsTFxcVYrUCcgQRAggxkMjI5hkmQwhbVk1lOFPXtfEGzyvUHT1Vgb0/fuoc+XqtqEUh7dqZmcgJDKR6qmac9lZFV0zaIBHnWakeh45PbfRmqXTN70nPwnIDYGeXStzeFCuRKzgkelWNvNxw+TWZ7ufkG9L19/F3cOaTep/biFSFhLgIufiGxBQ28jb/hHbBnerhMDiOxPPEcIpmq5UwQz9XbYoua3GYvx8sHHcyIzqvtXwzyeZlP8PGc6JzqQSVIwIHLeHXP1dtiChron88fCdiXFp1X6+Sj0mqqN5URcfkuSJCRGXagFSAABIAAEBh5AiBB+pk7ODi0tLRcuXKlP+v7Tvn5+XV3d1+9evX7xmD+u7ezs2toaFAqlX///feVK1fIZPKgfZo5cyYq9qlkUlLSoGX0ytQiQbhcrl6hoLBeBECC6IXLiIWHI0F+u1aIzzCJFNqvF7PKpT0Hs4uJZCo3LFIg6S5skfYXIFOjFi4rFb+51dl/kgjaDnPtSwmy53KOSoJcycXrhs1ecFv2Z9FzGcpZ/etvqrNUa9ocme54GQbXN69JdKvjJdvfPGdk4j2BBJFMJbE8o7KeTL1ynxIc7eDBs2f0f1PqfL4iQQobnLj+eHnOii2xhQ3OPprf71ASJLagnrO8f28UNWJ6TEE9a/ZKFDD4aHbU9SqSG+dzfFrIqQKQIEYcWyAUEAACQAAIjCoCIEH6vw4/Pz+xWFxXV9efZaTUrl27Tpw4YaRgIxcmJCREoVA8efJk5JqElgYQmDNnzocPH5RK5fLly8eNGzfgumYGhUKpqKhQKpXt7e3DXMgDEkQT7kh9BgkyUqQ12zFMglyvFQok3fsy8j9PIKl2FPrB7Bvl0p4dF64SyVS2f0hp12uBtCdg2qy+Oef0uTeFL3ofrNsd9DkzdOZ8gfhNXmMXOj8VldxzJVdDgsQsXnlb9i63oRMVYPkGoifyHrp+U7XAxJVO8+Kn3qkSSLoLmsX4M2XwvkHCLATcZi2Lzq2JLWyIzqudmvEg+Oh1Z/7nZRefF3F8RYIUNDjxAvDO27txnHiBRFcGnoMSWiSIx5JkvLDrlPhBJAh+WiqFFnq6ECSI5gABn4EAEAACQOBbIQASpP+bdHR0bGhoyM3N7c8yUqqjo0MqlTKZY+xROMHBwSBBjPQjYGCYNWvWKJXKrq4ufc/gmDFjhlKp/PDhw48//mhg2wQCSBCD0Q2zIkiQYQI0uLphEqSgWSKQdG8/cwmfYdq70k/duFMu7dl84jzKPFZQJpD2FDRLDmQWXLj9tEzyRiDpyaxsLpf2ZNe0bzurqhs4bXap+E1hi8S5/2BU6u5L2eXY273p/StBZqxMqpC9u/KkAW9u3vqUcuxtubTnZseLvEbVESECac+tzpdRC5bhZSBhdgIkFocSHO0+f03QoasxebXReTXqUuPr22G+lCBD3Y5hEiToSLZKebjj23NoISBBDB5HoCIQAAJAAAiMegIgQUbiK2psbMQwzOjnVpq660iCPHr0yNQNQfxBCSxZskSpVD558sTCwmLQAtozWSzWf/7znzdv3tjY2GgvOdRVkCBDkTF1PkgQUxMeKr5hEmTvldybQoV/zHT1eemCjdvyGrsC4maiTBd3zskbt8vEbwSS7jLxm5vCF7MTk1m+gQUt0jLxm9Ml94lkGs2Lf722/XzFYxKt78GoRDKVExi2Jz2HGxaJB2dPDsp69jxp31E8h0imhs9dWPQcw+OnP6rzCp6iXgDSo4oAPWZubFGj58q+B8Sgvum1EmSo2zFMgvikHInJr2fOXIrCkty9orIrYSXIUAMF5AMBIAAEgMBYJzCWJIilpeWsWbN4PB6BQPjhhx+io6OXLl0aFRWlMcdbs2bNtWvXJk6c6Ovru3bt2pkzZ+JfkoWFRVRUVEZGRkNDw+3bt5OTk8ePH49fJRAItra2GjsOLCwswsPD09LSqqura2pqTp486ebmpl6FQCA4OzsfOHDgQe+ruLg4JSXFwcEBlbGwsLC0tGxtbe3s7HR2dtYIrhFn0I+Ojo7bt29/8OBBS0tLfn7+rFmzNKbEXC73xx9/tLS0/PTH/02bNiUnJ0dGRqIyNBpt5cqViYmJc+bM0bhTHo83e/ZsCwsLKysrHo+3ePHin376ydnZWb0PSIKUlpaqZ1pYWERHR1+7dq2urq68vHzdunVWVlZ4gXHjxllaWuIfUcLCwkLjxn18fI4dO1ZZWdnY2Hjx4sXAwECNKgQCgUgkbty48fbt262trbdu3Vq0aJF6QwQCgUQibdiw4ebNm83NzY8ePTp58qSvr+/AOGM0x9nZ+X//+59QKNTS/4iICKVSqaUAg8FQKpVNTU1aymi5BBJECxyTXgIJYlK8WoIbJkGGmo4OzGf7B/tFxXPDInHN4cRkcwLDjPIMF0eGOz8i2i9qmkdg3zN3B3YAcsxCwHXKtLDfb7AXJOGt02PmxRY1cZZvwXOIZCpr3urYggbmzCXqmSitOhhVx5Ugx3oPRv3yTFxyYERsQb2W7TCO3r5R2VUxebUhx3OCDmVGZj2JSL8HEkTLWIFf+heeggQQAAJAAAiMHQJjSYJMmzZNKpXm5OQkJycLhUKZTIZhmEwma2hoCAkJQcytra0fP34skUiKi4tRga6uLjqdjq6mpqZiva8XL16gqzk5OfjUmkQiNTc337lzB//6rKysLl26hDeE6kokkkWLFuFlnJ2da2pqMAyTy+UKhQIV7uzsjIqKIhAIiYmJcrkcVZTL5SKRCEkcvLr2xLx58zo7O9Ft4t3IysrCN0cEBARgGFZdXX379m1UABXOyso6ePCgVCpFTSNKuL6xtraura3t6OiYOnXqw4cP8YpisfjAgQN4l+Li4hQKRVlZGZ5jbW2dkZGByiOGMpns2rVrSHz4+flJpdIzZ87g5VFiy5YtXV1ds2fPRh93796NOibrfWEYJpVKt27dql4rJCSktbUV54ZuqqSkBFc5M2fO7OjoQAVevHihUCgwDJNIJOrOSz3gmEvL5XKlUqkh+DTuYtmyZdolCIFAQGVWrFihUVeXjyBBdKFkijIgQUxBVZeYppYgAye3kPM9EHDg8KNUT5ytDj1VEHjoasjx3KjrVVE5z0ifn1CLILj4hcbk10Veexx6qiD0dEHI8RwSq++kUu0SxNHTJ+jQ1cBDVwMPXo28+ig6rzbocGbgoatBhzMZ0xYQydSvShAimerED1AdhppbE3H5DjViOhyMqsuIAWWAABAAAkBgjBIYSxIkIiJCKpXiU9+amppr1641NTVhGNbZ2Umj0QgEgo2NTXV1NT7zb21tPX36tK2trYWFxfHjx9FU+cSJEzNmzNiyZYtIJJLJZBs2bEBfHpPJ7OzsbG1txddx7Ny5E03Rs7Ky1qxZk5KSUldXh2FYR0cHao5AIFy9ehXDsLa2toSEhLlz5yYnJ1dXV0ul0oaGhkmTJs2ZM6eurk4sFkulUpFI1Nzc7OHhoePPCpvN7urqwjCspqZm48aNiYmJeXl5UqlUJpMlJyejICEhIehm0b9VVVXIyOB+QSgUZmVlNTQ0YBimvqajsrJSKpWi+J2dnQUFBXfu3MEwTKFQbN++HQWPjY3VkCAnT56Uy+USieT48eMzZszYunWrWCzG+xMcHCyXy+vr69Vv0MXFRSgUSqVSpCeWLFkil8tlMplAIEhKSkpOTn706BHqfHBwMKpIJpOFQiGGYS0tLdu2bVuzZk1GRgbSTGfOnLGwsLCzs0OKpL6+PiUlZebMmfPnz7916xaGYd/G5p3Y2FilUjl9+nR1kgPTukgQAoHQ2dn57t07XPYNjDNUDkiQociYOh8kiKkJDxUfJMj3oCTMco+Onj6Td52Lynwcc70qOutJ4MErTvzAgT1xDY8PTy2Lvl4Vfb0q8upDkrsXKsNZviUm95n602HU6zrxAqKvV8X0vlHdvo851eyfEohkqot/ePT1KvbCtXgt17C4mJxnbp/3v+D5nxO0kNMFKk3Tf0pI76NzP5/h+rnYF5n0GcvQb5Cnnz/3y9eYOxNtqCEC8oEAEAACQODbIDCWJEhgYKBEIkGLAo4cOYJ2WEyYMOHBgwcYhp0/fx7tZ0FaRCKRxMXF4Vsz/P39kYmYP38+/s1t3rxZoVC0t7fb29sTCAQGg9HZ2dnS0kIikQgEgqura1dXl0wm27t3L16FRCJVVVVhGLZr1y4CgeDp6SmVSuVyufraEFdXVzSHj4uLQxXb29sxDHNzc8P7gwfUksjOzsYw7NmzZ6h7BALBwsJiz549crm8oaEBzWn9/PwQE7lcfvDgQQsLCxsbG4FAgLRCWVkZiUSysLDw9vZG9sTPzw+1+PDhQ1SmtrbWxcUFbZ9Zu3atTCbDCWhIEB8fH0nva+7cuXi3169fL5PJmpqarK2tyWQyWrfC5/PxArt378Yw7P79+9bW1pMmTUIWKT09HS9gY2NTUlIik8lyc3PRTZ06dQoZEAqFghdbunQphmHPnz+3s7Njs9kYholEInWjFBwcLJPJxGIxjguvO+YS6Ifqq93WUYKwWKxPp6vOmjXrqwE1CoAE0QAyYh9BgowYao2GQIIMOrmFzO+OgCtjyoXSqVcfDvU030GBgATRGE/gIxAAAkAACIxaAmNSgjQ0NEycOBFnOn/+fLRcYty4cba2tkiCZGZm4gU+nSGSlpaGYVheXp56JoFAqK2tVSgU6E/uDAajo6Ojra0NHY2xbt06pEiIRKKlpaXF59fPP/8sl8sFAgGBQEhKSlIoFE1NTerPIrW0tMzLy5PL5WvWrEHNISei18GoTk5OIpFIoVAsW7ZMvXUWi4X2kiDR4OvriyRIZWUlvnUCiQmpVOrp6Ynf74MHDxQKxcqVK1EOkiCfdujgu1QIBMKkSZOam5sxDIuOjiYQCBoSJCsrSyaTZWdnq6ucCRMmtLS0KBQKtNCjrKxMoVBs27YNtTJx4sTW1laFQrFgwQICgcDn89GyHSaTqX5ToaGhGIbV1dWNHz9+4sSJ6BzZrVu3qpext7d//vy5VCqNjIykUCgikQjDsPz8/IiICCsrKwsLC2tr640bNyYkJOC3PEYTTCbz04Nd8AVKWu5CRwlCIBD+3fvSEmrQS8ORILBNelCkOmaCBNERlNGLgQQZdHILmd8DAdewuIB9F3vfaSEn82MLG3y2HtPrxkGCGH1EgoBAAAgAASBgIgJjUoKoL80gEAhcLlckEn3a00GlUnEJsnnzZnVkLS0tcrk8PDxcPROXI+ggDBsbm7a2ts7OTldXV0tLyytXrqCdLw0NDZWVlXc/v6qqqmQyWVVV1adDT8+cOSOTyQa6lUmTJoWEhOAnmKLlD3pJkIiICLR5p7GxsaGh4XPjqv8Vi8UKhSIiIgJpBYlEgm82QXcXHx+vUCgaGhrUb/bq1atyuRxHhySIxtYVAoGAVpEglaAuQezs7IRC4afdLqhd9cjXrl2Ty+U7duwgEAgrV65EW13QOp3Zs2fLZLLq6mpUfsuWLRiGicXihoaGmpoa/KZQZ1pbWydMmECn09GanaampoaGhnv37uHF0OYdtJYnJSXl5cuXaFnQp2NfioqKVq1ahQNX796YS//yyy9fPekD3ZTuEiQpKUnHmOq4hiNB1ONAWl8CIEH0JWas8iBB9Jr0QuFviQBzxpKY/Dr0jsqu9Fyx1c6VodcNggQx1kAEcYAAEDCcAPwVznB231dNM0uQM4kM3Xnj22HUFzgQCIQff/xRKBSKxWIWi4VLkPXr1+ORmUwm2seBn5CKXzp9+jSGYceOHUPniSAJQqVSLS0tr1+/jjaMDPrvli1bLCwskCi5du0aHhBPqE/Inz59KpPJ9DoSNTY29sWLF4M2jWHYw4cP0VoYPp8vkUja29vxc0wIBMKcOXM+WRINwZGZmSmTyX7//XfUMeQd0B4ivM8EAiErKwvDMLSUQ12CcLlcDMO6urrwM1nxWmlpabheYbFYYrG4s7PTycmJQCAUFhZiGLZz505UeNeuXfghrBq3JpfL09LSrKysWCyWxiX8o0wmq6+vd3FxQdFCQkJyc3PRwS7oxBChUIjOo8X7NhYTGIa9f/9el57rLkHQjpjIyEhdwuJlQILgKEY4ARJkhIHjzYEE0WvSC4WBgDoBkCD4SAIJIAAEgAAQGOUExp4EEYlEDMYX6oRKpXZ2dnZ1dTEYjEEliJubm0QiEYlE6mdMoC8GqQG0b8XGxqahoUEsFnt4eFhaWl69elUmk33a37Fw4cKkpKR1n1+rVq0KCAhA1Xfu3CmXy6uqqjS+5l9++aWpqQk/gKO0tFShUEyZMkWjmJaPU6dOVSgUIpFo7dq1K1eu/Nz4uqSkpJkzZ06YMAHVRRKkpaVF/Rm0SIJoPF0V3em5c+fUJcimTZs0+pCfn/9pEr5u3TqN7TA8Hg/DMI2YqG5BQcGLFy+SkpIIBIKlpeXt27cxDFu/fj06ElUkEnl5eaGSW7duRRuXlixZkpCQgN9UQkLC1KlTUccYDIZYLBaJRCkpKcuXL8fLrF27du7cuUQiUb3DFhYWtra2MTExBw8eFIvF6KAQvDn1kmMorVQqCwsLdemw7hLExsZGqVSeOHFCl7B4GZAgOIoRToAEGWHgeHMgQdTntJAGAnoRAAmCjySQAAJAAAgAgVFOwMwS5HTCFzpDOyx8JYjGX/vnzp376aiIxsbGiRMn2traohMl1FeCEAiE58+fy2QyDQ0xfvz458+fy+Vy9IRdXIJwOBwCgZCcnIzO+8DP2kDd8/b2vnLlire3N4FACA0NRc86CQsLwztvZWX19OlTDMOQFyAQCJmZmS9evJgxYwZe5qsJdOyFQqHQOM9y/Pjxhw4dSkxMRBEGlSARERGfmuvo6FBvJTMzUy6Xp6SkoEy0EiQ/P1+9zIQJExA91ChaCYLWuTg7O3d2dn7a2xIaGqpehUKhoMNQ/f39UX5iYqJMJnv8+HF0dDSGYY8fP8YXj/j7+yOTgtaJ4HEcHR0vXboUExOD1vWgU13wE1VQsXHjxu3sfaHDUwMDA+Pj49VPJ/nxxx9bW1vlcvmRI0fwyGMxoVQq8bUz2vuvuwT59LTmv/76S/3xQNojo6sgQXShZIoyIEFMQVWXmCBB9Jr0QmEgoE4AJIgugwyUAQJAAAgAgdFAYExKkEePHuEHkVpaWqrv7LCxsUFPb9E4VzI9PR3DsJKSEnxC/mnZAjrRo7q6Gi2j0JAgFApFIpHIZDL15RI//PADEhxnz55F3x9a+FBRUYG7EnRGiVQqnTx5Mipz5swZhUKxZMkSvb5ytCjj3r1748ePxyuiHSUdHR2oz0iCtLW12dnZ4WWmTp06UILcvHlToVDgWBC0T8eRqp+TkpycjB7Lgh6wMnfuXJlMhh8xm5ubK5PJiouL8YetflqIceHCBY0H0+LPiEGPONmzZw/esUmTJiHBcfz4cTzTwsLixo0bMpmsoqICfTvnz5/HMKy6ulp93cfChQvRfhwnJydHR0d01uxPP/2Ex7Gysqqvr8c35uD5Yy6hVCpxyaW98wsXLlQqlW1tbepPyRmqyh9//FFZWTnU1UHzQYIMimUEMkGCjADkQZsACaI+p4U0ENCLAEiQQUcVyAQCQGBsEYBDRcbW92Vwb8ekBMEwrKCggMfj+fn5oaerikQid3d3dK7Hs2fPMAwLCgpSh+Ll5dXR0YEqBgcHT5kyJS0tTSaTSaXSOXPmoJIaEoRAIJw8eRLDMKlUunHjxsDAwJkzZz558gTtueByuajW5MmT0YGd169f53K5ERERaDFFaWkpfizI1q1bZTJZRkaG+qYV9e4Nmvbz80NbPAoLC8PCwsLDw0+fPo3O1ECHmBAIBDabLRKJhEIhlUrFgwwqQSorKxUKBb68Apcg7e3tM2bMcHd337Rp06fHuCCJgHquIUHc3d3RM4Nzc3NDQkLCwsIuX76MGMbHx+OtEwiEs2fP4gd54CtEUIHNmzej8zuOHTsWGBgYFxeHvkGZTIY/ZpjFYqGTPh48eBAZGRkaGnrgwAFZ7ys3N3dc7wsd4CoWi9etW8flcn18fNDxLp8eKozW9aj3Z2yllUolOmVWl27v3bv33//+t1KpxDBM+6Ez7969u3Pnji4x8TIgQXAUI5wACTLCwPHmQILoNemFwkBAnQBIEHwkgQQQAAJAAAiMcgJjSYJwOJyuri70bFR8jo0kxbx58xBoa2vrp0+fyuXygRPCefPm4adyosTLly937dqFf0MDJciECRPQM1/RU0hQo5/qogeU4BUTExPRk1zwXnV2dqo/C8bPzw9d0th+gkcYKrF+/XqN41Ffvnx56dIlfG0InU7v6uoSi8Xqh8X6+fm9evVK4/yO6urqV69ezZ07F7VVUlKCdqbgTJCbSE9Px/eYzJs3T6FQXLlyBe/ekiVL5HI5zgHDsJcvX+7cuRPXPagkm81G+ubp06d4XZSwsrK6ePEiwoU3LZfLN27cqF5y9uzZOExUTKFQFBQU4I9GJpPJT58+1cCuUCj0PfZCvdFRklYqlUVFRbp3Zty4cQkJCcrel1AoRJu5NKrb2Nj873//0xcOSBANjCP2ESTIiKHWaAgkiPqcFtJAQC8CIEE0xhP4CASAABAAAqOWgLklyBq67mg8PDy6urra29vj4+MLCgpaWloaGxuzsrLw80dRqMDAQI0DQfAm3N3d09PTm5qaamtrs7Ky1A/yQKtImpqaRCIRm83GqxAIhB07dtTU1IjF4qampkuXLrm6uqpfRenIyMjy8vKOjo7nz59nZ2cPfAzNTz/99Pjx4+zs7IF1tedMmTKltLS0s7NTKBRWVFQsWLBAo/yOHTt+/fVXfIsKujp16lQmk6leMiIi4tdff8X37Ny6dQvDsISEhCNHjtTU1LS2tt67dw8/xARVtLe3379/P1pig4fy9PS8evVqc3NzbW1tZmamxoobvFhFRQWGYfv378dz1BMJCQlPnjwRi8UtLS05OTkaq0VQSV9f38LCQqFQ2NHRcf/+/YSEBA3VMm7cuE2bNt29e7etrU0oFN67d2/58uXqrYzRdHt7+4cPHwzo/M6dO//sfQ2s6+bmplQqh/qyBpZHOSBBhiJj6nyQIKYmPFR8kCApNxNRAAAgAElEQVR6TXqhMBBQJwASZKiBBfKBABAAAkBgtBEwswQ5pY8E8fT0RBLE0dHR0tLSpvelMTH+Kl8LCwsbGxtra+uBFW1sbNAjcgdqDmtra1tbWxsbm4G18BatrKy0lxk3bpyGqsDrak/gkQ2rPmhwtBIEHVNibW1tY2Oje3AtDFFbRCKxqalJIpFonKKq3pNx48Zpx4WeNWPb+9KyjcjKysrGxsbW1lb3/qt3YxSm169fr1QqDesY+lEZWDc5OdmAmCBBBpIcmRyQICPDeWArIEHU57SQBgJ6EQAJMnBIgRwgAASAABAYnQTGkgSZOHGiUCjs7Owkk8mmoEkmk4VCYUtLi/oho6ZoaDTEvHbtGoZhK1asMEVnIiIi0KNw8YUnpmjlW43p6ur6aWuL+nG8w7/Tv/76648//tA3DkgQfYkZqzxIEGOR1DcOSBC9Jr1QGAioEwAJou+AA+WBABAAAkDAXATMLEFOrtZjO8yECROEQqFIJBq42WSY+Ozs7IqLi5ubmzEMe/DgwTCjaa/OZDIPHTqUl5d3Y8BLIBBUV1c/ffoUPSxWe5xhXkUSRMenkOjeFolESkpKQk9pOXTokO4VoaQ6gY6OjpcvX6rnDCft6empVCoN+KECCTIc7MOpCxJkOPSGUxckiPqcFtJAQC8CIEGGM/hAXSAABIAAEBhJAmNSgtBoNOMy8vPzk0gkcrm8ubk5KirKuME1om3dulXe+1J8fsnlcumXr61bt2rUMvrHzMxMuVyekJBg3Mi//vqrXC6XyWSPHj364YcfjBv8+4kWERGhVCpnzpxplFvu7Ozs6ekxIBRIEAOgGaUKSBCjYDQgCEgQvSa9UBgIqBMACWLAmANVgAAQAAJAwCwExpIEsbS0nDNnzqxZs7QczGEYRAsLCzKZTKPRbG1tDYugey0rKysajUahUCYM/cKfz6J7WH1Lstns1atXOzg46FtRe3l7e/sVK1bExMTARhjtoL56VSaT/fe//x3+j/rKlSuVSuXixYu/2uLAAiBBBjIZmRyQICPDeWArIEHU57SQBgJ6EQAJMnBIgRwgAASAABAYnQTMLkGMvKZjdFKGXgEBfQk4OTm9f/++o6NjOEaMwWAolcrHjx/r2zoqDxLEMG7DrwUSZPgMDYsAEkSvSS8UBgLqBECCGDbsQC0gAASAwOgi8K/R1R0T9QYkiInAQlggMFwCkydPViqV1dXVhgWi0+n//POPRCLR8mwd7ZFBgmjnY7qrIEFMx1Z7ZJAg6nNaSAMBvQiABNE+vMBVIAAEgAAQGD0EzCxBTqyClSCj54cBejLqCERERHz48EGhUJBIJL06N2/ePKVSiWGYXrU0CoME0QAyYh9BgowYao2GQILoNemFwkBAnQBIEI3xBD4CASAABIDAqCUAEmTUfjXQMSCgIuDh4aFUKv/73/9u2bJFRyJVVVVKpbKqqsra2lrHKoMWAwkyKJYRyAQJMgKQB20CJIj6nBbSQEAvAiBBBh1VIBMIAAEgMBSB72PfyVB3b+Z8M0uQ47ASxMw/AND8GCBgY2Pz7NkzZe9r586drq6uAzttbW3t6+v78OFDpVL5/v37TZs2DSyjb853K0HM/t8kkCD6/qwaqzxIEL0mvVAYCKgTAAlirIEI4gABIAAEgICpCZhZghxbSTX1HUJ8IPBtEGCz2Y8fP0Yq5P37911dXXW9r4aGhpcvX6L8Dx8+pKSkGOvhxN+tBDH7DwxIEHN9BSBB1Oe0kAYCehEACWKugQvaBQJAAAgAAX0JgATRlxiUBwJmJhAZGVlQUNDc3NzV++rs7Hz27Nlvv/02adIk4/YMJIhxeeoeDSSI7qyMWxKXIGSeP5nrB28gAAR0J8CYuRz9Bnn6+XO/fDGZTOP+qkI0IAAEgAAQAALDIWBuCbICVoIM5+uDukDAhARAgpgQrtbQIEG04jHhRZAgus94oSQQ0CAAEsSEYxOEBgJAAAh8QcDsW7e/6M1Y/AASxBzfGvzcmoM6tKkvAZAg+hIzVnmQIMYiqW8cXIIQXRl6bQSAwkAACMB2GH0HHCgPBIAAEAAC5iIAEsRc5KFdIDDaCYAEMdc3BBLEXORBgsBMHggYTAAkiLkGLmgXCAABIAAE9CUAEkRfYlAeCHwvBECCmOubBgliLvIgQQyeAENFIDDWJQgs0jXXwAvtAgEgAARGnoCZJchROBNk5L9zaBEI6EYAJIhunIxfCiSI8ZnqFhEkCMzkgYDBBMa6BNFtkIBSQAAIAAEg8C0QMLcEWe76LVCEewAC3yIBkCDm+lZBgpiLPEiQISfAFOqQl8jGvjSSbRm9899xQJAg5hq4oF0gAASAABDQl4CZJciRZSBB9P3KoDwQGCECIEFGCPSAZkCCDEAyQhkgQUbOdHzHsuBbhQwSZITGKWgGCAABIAAEhk0AJMiwEUIAIPCNEgAJYq4vFiSIuciDBBkV83NYCTI2DRFIEHMNXNAuEAACQAAI6EvAzBLk8FKKvj2G8kAACIwMAZAgI8N5YCsgQQYyGZkckCCjQoKMTQUA6ECCjMwwBa0AASAABIDA8AmYWYJc2uAWwCbBGwgAgVFIYEWkiyiVJ0rldZzncQe8hj/6QIShCIAEGYqMqfNBgsBMHggYTAAkiKkHKIgPBIAAEAACxiJgZgnyeyKD4TQB3kAACIxCArMDSCBBjDXU6hUHJIheuIxYGCSIwRNgqAgEQIIYcSwa0VDwcOARxQ2NAQEgMCoImFmCnE1kUslEeAMBIDAKCcwIcgIJYpZxGiSIWbATCASDJYgDzW10zIFpRAptdPTE2I+MgT0yo54ASBBzDVzQLhAAAkAACOhLACQIKBggAAQGJwASRN/x1FjlQYIYi6S+cQyTIJuPnyvHekJmzDWvfXBmeZyveHr5QS2JyjBvT6D175MASBB9BxwoDwSAABAAAuYiABJk8OnfKPyzPHQJCIwwAZAg5hqXQYKYi7xhEmTPldxyaU/C3iMjPPV1ZnnMX5/iExGD2mVPDi4Tvynp+sORPkqWpXzfi0G+v2fcgAQx18AF7QIBIAAEgIC+BECCgAQBAkBgcAIgQfQdT41VHiSIsUjqG8cwCbL7Ula5tGfN7oMjLEFmJ26swN4ezrlFJKu2wDjSWYtTds5bt8UOdsSM+p0jI/yjMjLNgQTRd8CB8kAACAABIGAuAiBBBp/+jfCf3KE5IDAKCYAEMde4DBLEXOQNkyB7e1eCLNz08+BTTe1KgqLDKR5DlPGJiC7H3p6+eddex/0v2nsC4gAIDI8ASBBzDVzQLhAAAkAACOhLACQISBAgAAQGJwASRN/x1FjlQYIYi6S+cQyUIOk55dKeuGVr1CUIzZufdODYhYqnV5407rxwlRMUpn6VSKY6Md3XHzyZeqcy7d6zk8W31+w+5Objr1Fm2rI1v5zPSL1TlXbv2embd6ctT8QL2FHo01cmlWNvd13MQpl2FNr8DSlLt/6Kl0EJBs9vw+FTqXeqLj+q23bmkkYr4XMXBsTN1KgCH4GAAQRAgug74EB5IAAEgAAQMBcBkCCDT/9G4Z/loUtAYIQJgAQx17gMEsRc5A2TIMcLyzUkiM/UmBttcoG0RyDpRu+i55ibb7/jcGSwzgkeowLlqJi052bHy8kx8WjySaIyf7tWdFv+p0DSXY69rcDeCiTdFbJ301cmEclUe1d6xpPGO4p/CyTdt+V/Pur+37H8Mjcf/9KuP8rEbzyDp+Az2NCZ80pFf+DdEEi6C5olDJ4fKsDkT67A3t5ol3uHRqw9cCy3vuO27F1eoyhhz2EnJhsPAomxQsCBw4++XhWdU+3o6TPyfQYJYq6BC9oFAkAACAABfQmABAEJAgSAwOAEQILoO54aqzxIEGOR1DeOgRKkqEJdgrD9gwtbpOXSnvTHDTPXrI9dujr9UZ1A0n35YS2JxkRT003Hfi+X9pSJXi/asiNq4fKfkrddfdokkHRn17SRqKoysUtXC6TdOXXC+BWJDK6fA91t7rrNZZI3F+9XO9Dd7KmMX86lZ1a2CCTdN4Uvilqx5CNnWH6BZeI3paLXjnQWaoU7JfJGm7xc2pN2t2rm6nXTlidce9ZSLu25cPspeoIMzdvnVsdL1XGqvaLk7ou/7774+47iL4GkO+3eM0eG+8hPpL/nFl2nTOOu2+PiF2IwBEpIdEx+XWxhAzVylsFBDK4IEkTfAQfKAwEgAASAwJAE/jXkFaNcAAky+PRvhP/kDs0BgVFIACSIUQZZHYJoDvMgQXSAZpIiw5cg9q7040UVAmlP6p0qXEYweH75TeIK2bu5azcRyVQXd8/8ZrFA0r04ZQc+4WT5Bd7qeHlb9m7GqnVEMvVwzq3bsj/nr0/BC1A8vPOaREXPZS7unihzVkJyubTnSF4J+ug+OahPgjBUEsTelX6u/LFA0n361j08iJuPf9FzrEz8JnTWfCKZ6srh3mhToHUi58ufoH0xQfGzb3a8FEi6g6eb+aG/eLe/k4TH0o2xBfWMWNVXY+CbQvdcmeK5sv/HxsA4BnUAJIhJRiUICgSAABAAAiYgABIEJAgQAAKDEwAJYoIhV6eQIEF0wmSCQsOXIF4h4bc6Xt7qfOkdEq4+/1y5c79A2nOsQECk0EJmzC2TdBe1YhQPb/Uy+68WPO7534zVKgkSvWjFztSrTsz+tRiLtuwo6133QWb3SRDVmSDSntO37qGDUXEJgtabeIWEl4ne3BS+YPkFqrey/eylcmnPvoy8zxJELpB0Fz+X0bz4qJgdhZZ295lA0r32wHH1ipA2NQH2wrWxBfW0qTNM3ZCJ4oMEMcGYBCGBABAAAkDAJARAggw+/RuFf5aHLgGBESYAEsQkg64OQUGC6ADJJEWGL0HmrU8pl/acKbmvMc8MnTmvTPwms7LZjkKftjxBIOlOf1hn70rXKKb+0Z7KCJ3105Ktuw5mFxc/l92WvRNIuku6/vCNikPFuGFTVU+HudX3dBiWX2BJ75kgQdNUWyES9x0px94ezS8jfvlQmJglq9DeHAe6G53re6vzlUDS/XvZI/Wmj+SWCCTdW0+nqWdCejgEnLgBAb+lx91oiS8VTrvVNuVCGTW87/wXcuDU+DJhfKkw7kZLTH7dtJut8aWqj/GlQmr4dNSoV+KO6YJOanh86OnCaSXtccXNPilH7T7veyJSaBGXbuO14m602NHc1HtLDoqML+vwXL3NJ+XotJvPp91qCz6e48T/wo7RY+dFXLkfXyqMzq1hL1o/5UJp3I0WkruXehztaZAgJhmVvqmgmssev6mbg5sBAkBgTBEACQISBAgAgcEJgAQx12AOEsRc5IcvQVbuPCCQdP/8e7rGdDEofnaZqE+CxK9IFEi6rzyq15AgdhS6m28Aqkjn+l571iqQ9lTI3t17+c+9V++vPWspE70u6frDZ2oMKuMVHC5QnffxzKF3xsvg+d0UvigTvwnslSC70jIrZO82HD6l0ZOIeYtxCcLg+ZV2/VEu7dmZmqlebM/l6wJJ984LV9UzIW0wATsac0paeXRuDXf9Xo8lGzjLt0zNeBhb0IA0hIMHD+1hCdh/Kaag3u+XU+ij58oUR6++I2w9V2+LzqsJ+/0mL3mfx9KNwUezYwrqA367jHeJNXuFx5Jk9qJ14amCqJxnmhIkMCImvy74WHbw0SyPJcm+v5yKLWiYeuW+PdMDRSAHRETn1UbnVHsn7OAs3xxx6c7Uqw+jc56RWCBBzDUaQbtAAAgAASBgQgJjSYJ4slzu5hzcl7JY+9/DUw+tkz27Gh7kob0YXAUCQEA7AZAgJhx6tYYGCaIVjwkvDkOCvI1auIxIpq7YsU8g6d59KRufnaLE9BVJAtXWlbt2FJpKiEje3BQq3L/cqHIsv+zh6w+zEjYQydTfyx6qjlZ9WLds+57J0X1LBtIf1qpLkN79L91XnzahXTMaEmTHhYwK7G3KqVSNnqzYsa9c2nPo+k0imerm418mfiOQ9mi4kmMFAoGke2BdjVDwUUcCzr7BMfn1PluP4uVdJody1+2mBEfjOUQyVcuZIJ6rt8UWNqof9hF29kZ0bo3dZ4uBxwk+nhOdUz2IBMmrCz6eixfjpxyJKainRvStNPHbeSYmv8718+IUOyozMvMxSBATjjUQGggAASAABMxKYCxJkITF0f90FEueXqFR7IaavDGo9i13LvwtLD62a+VQZSAfCAABXQiABDHX4AwSxFzkDZMgJ4oqKrC3EfMWE8nUuKVr0ENeNB4xe+H20wrs7apdB4hkqhOTfb22XePQDUc6q7BFclv+59y1mz0CQku6/ih+LnPsPeIUTVzZk4NudbzslSCxKEdlPTpe5DWJXFgcIpmqIUHmrtsskPbgigRVsacyMnofQ7Ng43ZcgpRLe1bt+g2fHttRaKrH96rOBDmBZ0JiOAQcPPjROc/Cfr+pfWHF1yRIgxOvb6EQkUz1WvNLXHGzs2+wRseGlCD59V6rVV86etMiZ8YU1LvNXok+Bh/Njrr+jMTqO26GSKaFnCoACWKugQjaBQJAAAgAAVMTGEsSJDyQ03z73FftxtPi4/8Ii8/sS9BlmgdlgAAQGIoASBBTj79DxQcJMhQZU+cbJkEu3qsu/yxBnFns63VCgbTnl/MZ6IBSEo255eSFCuztjXYFkz8ZzTlX/LK3HHsrkHRPnb+kL2fHvnLsbVErRvXkeYdGoOe8cMOmoquuHO+rT5sFku4y8ZvI3iUn6FjTolasuE2ODljVkCBUT15hKyaQ9mw7c8mu9/AREo25MzVTIOkuaBY7s1T7IJj8yaUi1XaYRZt/Rg0RyVQ7Cu3yw1qBpHvp9t14JiSGSYCXvD+2oGHazdao61WBv11x/ymB5KZSV+rvr0iQgi8kiIt/OHvRenu3vv0seJyhJEhsQb3HkmS8mOuU+JiCetYXEqSKhK8rodBCTxeCBDH1gAPxgQAQAAJAwFwExpIEGWqqppH/tOgYSBANJvARCBhAACSIucZlkCDmIm+oBHlWjr3FdUb0ohXl0h6BpDunruNIbklB79Nwy6U989Zvwaeg9lTGqRt3VFJD9PrUzTvne59lK5D2LP9lL9IQaXeqBNKejCeNS7buWn/oVGGLtFzaU/Rc1nuI6YPFKTvsXOmfjhS58rhBIOn+LavYhcXBJQh+aAg6fEQg6c6qaTuSV6JyIpLucunbuKWrUU+Y/MllotcCSfcXfXOlZ1U/F0i656zdjHcYEsMn4DI5jLN8i+/PJyPS78YVNUdcuae28kJlQ/SSIEP1x1AJcj36ehWpd0lRb2RYCWKuQQjaBQJAAAgAgZEgMJYkCI1iFx7ICeAzNaZzLLpDqD87Iojjx6VTycQnIEHIg59zqcENPgIB7QRAgozEGDxYGyBBBqMyEnmGSZDdl7OLnss8AkLxeWncsjX5TSJBrwopl/YUtkoXqi21QMWcWR7HC8uRLul1Ez07zmfgT3KhefFV+1akPeVS1YIRgbRnb0YeLzzqVsercmlPdk0b2m4zbXlCadfrCtmfq3YdcGZxLt2vznjaaO/KwHsyb93mwlapKoJKf/TkNYlmrl6PX6V4eOc1iW4KFQx+3wGcSMEczS+70a5AT5nBC0PCiAQ8libHFTVxlm1Uj2lGCeK340x0fh0lpO+MEjs6Cw5GHYkRB9oAAkAACAABMxEYSxJk/vQg1ZkglVeYNBKavDGopCM7lr+qz/6rveifjuJ3rQXPbp5srPgdVoJon9ya+OqPJo5vfsXDcCUW7fB4eNDTy23I42m+AQggQcw0LBNAgpiLvGESxI5CJ1H7vQOa1pJozIh5ixds2h4yY54D/YvnlfbPeym0gLiZi1N2Lti03SskvD+/d5cEicqIXLB02fbd89ZtdvcLtOt90i2T7xe/IpHm7YMXpnn7zF272cmNTSRT7VXLQzR74kBzi1q4fMGm7UHxs9EOHbyuqgqVQaIy1XNUHsSVPjBTowx81J2Ai/8U/pbD+DNxVVuZQqJjixo9V/Uf0kEkU90XJsUWNNBj5w2MrDoY9cvtMAPLoBzDVoKQgyJi8usjrz3xTtzpuXLrlFQBHIxqrlEI2gUCQAAIAIERIDCWJEjC4ui/hcXizwejujMca0tP/9Ve9Lew+EVtlvhp+rvnBX+1F6mECJwJAotBhibAYdhF+DhyGIb7i0AvUucFvjiNv3iqy+iUHXQKseaYd9GOYT0jCSTICAzBgzYBEmRQLCOQaZgEGWo6CvlAABFw9g2Ozq2JvPbEY/EGt1nL3eeujki/F1PY4OI/RR2Ra1hcTEF96Nli93mr3eevZs1diT/kRbsEsWey3WYtc5u1nDlz6ZTzpdG5Naw5K91mLXebvdzZR3VyKjkwQvuZIEQylTV3VUTG/djChqjrVd5rd8HBqCMw4EATQAAIAAEgYC4CY0qCLEISJB09HebMvoS/harVH5tWTfdwc6a72gX7sbqepIMEGZ3T8tHTq2VRZNlln2VRZIO7xKAQ0zeyinew2XTDTYrBretSkU4hNp/mlu3h6FJ4qDIgQcw1LoMEMRd5kCDqc3JIG5EANXx62LmS+Ftt08s64kvawy/focf9NDC+x5LkmPza+DJhfJkw7kYLic1FZbwSd04XdDrxAwdWIZKpzj7B8WUd00s7VMFLhb1v1ccZgi7OUtVhqOSgyPiyDs7y/kNeqBEzppd1sub1nQ6Dwtq5MuyoTDsqk9h3MGo1yd1r0BYHzaTPWIZ+gzz9/LlfvphMprl+qaFdIAAEgAAQAAIDCYxRCUJkUO07H13+q73owLYl6lO4aVN9/t1W+Lew+MSvq9TzIQ0EcAJLppIlo3gRB97P4SRAggwc7MZQDkgQc31ZIEEGndxC5ndHgEIPO3sjMvORPUO1zUrHN0gQcw1c0C4QAAJAAAjoS2AsSZA1C6P+FhYpaq5xWM7hQZy3rfnvWguiQr3V54psppPoafrfwuJfNy5Qz4f0d0KASSVunu1aecSr6Qy//hQvczPLz8Me3buvh33DaV7jaX7rWb4oVfVv0+ne9xl+fKATKrMihtxyhh/KdTi4jN5wivfsmHdSPIVO6T+FJDvFvekMH73rTvC4rC9Wgviw7RtP8zbOcl0U4VJ9zLvhFO/kGqbHl6tF+Gz7jM2sxtO8+795xgc4XU5mNZ/hc1l9ndTxa3Kn2T0+7HVjJ3syh3Rjp0fTaV7Jrx7hfAe8+qASJHW9W9Np3k9TnPFi2hOwEkTf8dRY5UGCGIukvnFAgug43YVi3x4BZ36Qx5Jk9OYm74/Jrws8eFWv2wQJou+AA+WBABAAAkDAXATGkgRZMCPk321FL2qzvNjkWTGT/xYWvazLZjP7pq9oOseg2rfcPv+PsPjXTSBB+qfu2ue639LVrBR3USq/8qh36W7O3f2e7ed4z8/yvJgqVeHDtn982PvJEe/aE1xRKr/uBPfJEdXHp0e84wIcEYTEaZSuVP61Le7PjnHL93g0nOSK0/gX1rnhiM4kMkt3c0p2cxpOenec5/G+lBe+HvZdF3hp690aT6mqVx31FqfxHx30dKP2fRfebvaNJ1WtPz3iVbGP8/ws79FBL3Eqn++unwRh0+0aTno/OexVfczr3gHPB795Cc/xJGn9NmegBFkQ7ixK5aeu778X/KaGSoAEMde4DBLEXORBgug16YXC3xIB5sylcUVNsYWNsYWNMfm1gQevktw4et0gSBBzDVzQLhAAAtoI/EvbRbj23RIYSxLkpxnBuASJCvX+83nBm6ZcjSfmqiTInfN/C4tP710z1NQO8r9VAt5u9h3n+Xnb3Wmf125MD3QS7OFoHF+qZTtM4jSKJI1/fi0TRXCn2d0/wBGe43n2ahR1blc2sjovDCJBOs/zHh/yROXpFOL5tW6SNH5cQJ+q+3k+VZzG3zTLFYXisuwbT3ENliAd53nRfn36ZlawU9cFfsHPbLRuRUOC+LLtn5/lVR3x0usQE5Ag5voPA0gQc5EHCaLXpBcKf1MEKDQ7mhv+xp/WrPs9ggQx18AF7QIBIAAEgIC+BMaqBGEznWTPrv7VXvTzurnqU1M3Gun5vdS/hcVXT25Rz4f090DAk2nXdo53c5cH01XbKpilkaozQZZGDnIwKpIgYbz+fSUbZ7lKL/LVd5ogkhmbBpcgXRf4x1cxcNoRPo6SNH5iPAXlXE5mdaXyJ3P6nvFMJRNztrENliD39vefe0qjEJ8c9nzwmye6dyRBSnerCtAoxPK9nI7zvFBef7t4D7UkQILoO54aqzxIEGOR1DcOSBDdZ7xQEghoEAAJou+AA+WBABAAAkDAXATGqgShkolXjm9SPRy3Lmsyr3/OuXfLIvTQ3LzzP2uZ3cGlb5VA6no36UV+yxle+R7O7oW0KXwH9RM90F1/VYIEe/fLgpjJjufXuvmyNberaJEg2+ZRcbzB3iRJGj/pswRJT2aJLvC93fqjXd/qbrAEuasuQcjER4c0JUjbWe6D3zyfHvYSp/F/nk/De6VjAiSIucZlkCDmIg8SRGNaCx+BgO4EQIKYa+CCdoEAEAACQEBfAmNRglzzdHehkolebLK48spf7UV/NFw/sG1x8qr4qpsn/91WqJIg7UUVWQd0nOlBsW+JAI1MnBvqXLGXU3Oc2957TEb5Xs2FIV+VICFqEmQoOFokyHatEqTrwhfHoBpRgjweIEHaz/Eqj3JrjqtOITm4jD7UvQyVDxJE3/HUWOVBghiLpL5xQILoPuOFkkBAgwBIEH0HHCgPBIAAEAAC5iIwliRIXAS/pyWvvuwMjdL3SI5gP5bw4cV/Om6877jxj+pd/OfzQll15t/C4vwLvww1tYP874EAjULksuz3LKZhl3zwMzjQjZtRgpxYzRCl8iN9+w7yoJKJt/d5mm4lCNoOQ6cQ7x/w7DjPC/TqX+Giy88ASBBzjcsgQcxFHiSIxrQWPgIB3QmABDHXwAXtAgEgAASAgL4ExpIEoZKJHBwPK8YAACAASURBVJaLG63/vAYqmchwtV8yJ+x+3uHa0tPZZ7f5eNG2Js5W1GalJMzUZZoHZb4lAh4MuxlBTj5qW1cCPEmSiz6Hln+xCGLJVBftZ4KYbiVI7GTHrlR+1VGvmMmOoVyHtPVubb8bfjBq3Qlv/LkzHKZd82nu7X0cRu95KBoHowZ5kzrP8+7u52g/LUXjhwEkiL7jqbHKgwQxFkl944AE0X3GCyWBgAYBkCD6DjhQHggAASAABMxFYIxJEI1J2lAfNZ6bO1QxyP/GCAR6kaQXfaqOeEX5OQZ4kgK9SNlb3bFLPvPCnNXvNNLXUZzKz/+ZHeRNUr29SPi5Iehg1KEkCJ1C9PckBXiS/Dmk61vdO8/zpvqqGgrwJHkwVKuTeh+Ry9eyHYZGJu5eRBOe48kv+0gv8m/u8hjOwaiVR7xytroHeZGCvUnFOz2kF30OLO3TPRoShEom/raULlGdDNJ/Xok6k0HTIEHMNS5/uxJktD+nDiSIxrQWPgIB3QmABDHXfzKgXSAABIAAENCXwLcpQQad0UHm90AgKZ7y/CwPu+SD3h3n+SfXMAfe+OkEpiiVL7/sK7/sK07zwRePJMVT5Jd9hpIgkzmqU07x4HhCftl361yVXPDzsJde9FEXDcHeJPlln7XT+54Og3rCYdjx3O29WfY0MnE4Z4Lk/8z+PdFNlMqXXfIRpfKvbGLhd0qnEJ+f5ZXv7X98jBvV7ukRL1EaP4T7xVoqvMrABEgQfcdTY5X/diWIsQiZKg5IEN1nvFASCGgQAAliqoEJ4gIBIAAEgICxCYAE0fYs1YHTQsgZ/QQ8mXa9iyMcgrwd+O79z2FR7zmNTJzMIQV7OwR7OwR5968E8WDYBXs7oB0l6uVRmk4hBvVWQRXV//VkqlaC0CnEYG8HlEZVGK6qHLROZGBA9Ihc4Tkup3chyaAFBs1k0+0aTnrf2adyHH4eqhtRf+wuqhLkRdLI5LLsNbo3aHA8EySIscdbXeOBBNGVlLHLgQTRmNbCRyCgOwGQIMYekCAeEAACQAAImIoASBCQIEBgRAm4UVVaBL2j/Rzbfuc9OuiJewcdE0iCqD8iV8eKehUDCWKqcfdrcUGCfI2Qqa6DBNF9xgslgYAGAZAgphqYIC4QAAJAAAgYmwBIkBGdAOs1BYXC3ySB+CAnRbqv7JKPrHfPTv0J7zCervtTcCBsul3Tae79A3rbEzyCLgmQIMYeb3WNBxJEV1LGLgcSRGNaCx+BgO4EQIIYe0CCeEAACAABIGAqAiBBQIIAgRElwKQSfdkk9Oaz7fHHu+hiJdTL8N3tuazBN/uoFxtOGiSIqcbdr8UFCfI1Qqa6DhJE9xkvlAQCGgRAgphqYIK4QAAIAAEgYGwCIEFGdALcOyP9cTjzUqgLBEaMAEgQY4+3usYDCaIrKWOXAwmiMa2Fj0BAdwIgQYw9IEE8IAAEgAAQMBUBkCAjL0GgRSAwNgiABDHVuPu1uCBBvkbIVNdBgug+44WSQECDAEgQUw1MEBcIAAEgAASMTQAkyNiYjo7YH/+hISCAEwAJYuzxVtd4IEF0JWXsciBBNKa18BEI6E4AJIixBySIBwSAABAAAqYiABIEJAgQAAKDEwAJYqpx92txQYJ8jZCproME0X3GCyWBgAYBkCCmGpggLhAAAkAACBibAEiQwad/+B/DIQEEvlsCIEGMPd7qGg8kiK6kjF0OJIjGtBY+AgHdCYAEMfaABPHGJAHb8YRVq20Li+3u3revrCY1NDs0tsAbCAABAwk0NDtUVpPuPrAvuklMXDve3t7CWOMCSBCQIEAACAxOACSIscZZfeOABNGXmLHKgwTRfcYLJYGABgGQIMYaiCDOGCXgSrV8XGkvxpzgDQSAgOkINLY48H2shj9KgAQZfPr33f7xH24cCOAEQIIMf4Q1LAJIEMO4Db8WLkFcvH2dPfnwBgJAQHcCjJnL0W+Qp58/98sXk8kc/q8nRAACo5nAuvXjTTfrg8hAAAioExBJHc+emzTMAQEkCEgQIAAEBicAEmSYw6vB1UGCGIxumBVxCULm+ZO5fvAGAkBAdwIgQYY5/kD1sUsgZdsP6jO0ukbHvEJSYhJx1pxJgUHjvbysPEfx28vLystb9UadRGn0r7e3lXfvJZTo+5dr5T3ke5w3d5za1XHevHHc/rdVf5o/jqd6W39+o4/j+HzrL98Dcnys+T6fy6C0jzXfV/X28e291Jvwwf/1s/b1s1F9VCXQ28bXD39r5vj52fj1XkUJv8k2/W//L9P+NpP73rZ+/Wmbyf62fe8A274CAbaTe9/+AbaDvgMCbAMCtb/HBwSO7y8TZBsQND4gaHxg7zug96MqHdz3DgoeH/RlOij4h+DeN7oUFDwefez7N+SH4JC+AqoE/g79IXjAOyT0h5DPmSj9+d8JIaETPqdVZVQfw/R+h4ZN+OI9ZcKMWRNXrZmYm2/X0uao/ot2Ie3H4QwaIEEGn/7hfwyHBBD4bgmABBnO2DqcuiBBhkNvOHVxCUJ0ZWgs9YePQAAIaCcA22GGM/hA3bFLICLSGp+YdYocw6ZMcqVOnDTJ2srKaIcXjF040HMgYEQC48ZZ/LTwR/zXTYw5LV1ma3B8kCAgQYAAEBicAEgQgwfWYVYECTJMgAZXBwmifZYLV4GAFgIgQQweeaDiWCbwr9oGEpqV1TY4kBxsxvK9QN+BwBgg4OBo/VzYvyTE4B6DBBl8+vfd/vEfbhwI4ARAghg8sA6z4jcpQf41TCgjUh0kiJYpLlwCAtoJgAQZkVEKGhldBHx9rfC/SzPdfhhdnYPeAIFvlEB4xCT8927RYgPNI0gQkCBAAAgMTgAkiLn+2/FNShBzwdSrXZAg2me5cBUIaCEAEkSv0QYKfxsE0jP6FueXCEgE2P7ybXypcBejnoCDg+2jpw7Ig9wqszOsvyBBBp/+4X8MhwQQ+G4JgAQxbFQdfi2QIMNnaFgEkCBaprhwCQhoJwASxLBhB2qNaQIiad+y/OAQw88mGNMEoPNAYOQJWFtbrE/u84+NLQ6GdQAkCEgQIAAEBicAEsSwUXX4tUCCDJ+hYRFAgmif5cJVIKCFAEgQw4YdqDWmCeBr8slkqzF9I9B5IDC2CNDoE/DfPgsLQ7ZcgwQZfPr33f7xH24cCOAEQIKY678HIEHMRR4kiJYpLlwCAtoJgAQx18AF7ZqRAD4N+/FHkCBm/B6g6e+OgKOjLf7bx+MxJ02apC8CkCCjTIJQRll/yNCf75cASBB9x1NjlQcJYiyS+sYBCaJ9lgtXgYAWAiBB9B1woPw3QACfhlnbWH4DtwO3AATGCgFrawv8ty8iwpPb+7Kx0eOQ1O9egoB0AM0BBIYgABLEXP8lAAliLvIgQbRMcb+FSxTqt3AX5FF6FyBBzDVwQbtmJICmYSKpo7U1SBAzfg/Q9PdIAJcgkZF9EsTb29va2lpHFmaWIKnrmN4MO3gDASAwCgksnOIsSuWJUnkd53nIsKr/q+MQA8UMIAASxABoRqkCEgQcARAwmABIEKOMQhBkbBEACTK2vi/o7bdEYKAEQfOUf/1LpyNCzCxBLm1wC2CT4A0EgMAoJLAi0kVHCTJu3DhLS/gbiNH+ywISxGgo9QwEEsTgCTBUBAIgQXQfb3T6f+i6h4OS5iMAEsR87KHl753AUBKESqXqgsbMEuRsIhM/hRESQAAIjCoCOm6HcXd3//DhQ3t7uy4jDpTRhQCSIJ2dnboUhjJGJGCABLFzpZ+veHz5UZ2zm4cppsFOTPfMyuYzJfftXemmiA8xgYCxCIAEMeJYBKHGCgGQIGPlm4J+jjCBSZMmubq6OjgY+PxaXXo7lATx8vLSpTpIkO/32MtRNd+GzoxCAl+VIL6+vkePHt2yZcvHjx/fv3+fnp5eVFSky7gDZbQTsLe3//jxY2trq/ZicNXoBAyQID5TYwSS7jLxG6/QCGNNJtXjBE6bVY69LRO/9gyeop4/zLSdK50TGErz4g8zDlQHAjgBkCBGH5Eg4OgnMDolyLZt2+7evWtnZzf6AUIPvz0Cs2bNkkqlys+vv//+Oy8vzxS3OZQE4XK5ujQHEgQkCBAAAoMT0C5BLCwsKioqPn75+s9//jNx4kRdhh4oo4WAi4vLx48f6+rqtJSBS6YgYIAEmbY8oQJ7d0v4ksHzxWeDRkx4BYeXiV6Xibu5YZFGDBs+d2GZ+M3J4ttGjAmhvnMCIEFMMShBzFFOAJcg48ZZjJ6u3r59G8MwPp9v3C6RSKTExMQffvjBuGEh2rdE4NGjR0qlUiqV7t+/PywsbNmyZZWVlf/973/fv3/PYDCMe6cgQQafv43Cv6tDl4DA2CKgXYIQCARPT8+8vLwPHz4gE/Ly5csZM2YYd4D7PqNxOJyPHz+WlZV9n7dvxrs2QILMTky+LXtX2CKleHiZYg7sGTzFFBIkKH5Oqej1pXs1pugzxPw+CYAEMePYBU2bi8DolCC5ublyuZzNZhsXy8mTJ1+8eJGYmGjcsBDtmyFQUlKiVCoTEhI07sjFxUWpVH748EEjf5gfQYKABAECQMAkBL4qQQgEwvHjx//f//t/SIL8888/06dPH+aIBtUJBEJ0dPTHjx+3b98ONEaYgAESZPrKpArZu9z6TiKFRiRTnd08GDw/Zze2xjTY2c3DOzTCge6mnu/s5uEVEkGiMdUziWQqzYvvGTzFM2iKK4fLCQobKEHsKDQ3H3+2fwjLN8COQiOzvQ5dvxE8Y656HNWGl6CwjUfPHisoW3vguEdAiPrVsFk/lYpew0oQdSaQHiYBkCAjPF5Bc6OBwOiUIBYWFlZWVkbnc/z4cblcnpKSYvTIEPAbIODm5qZUKi9fvjzovZDJ5P/+97/G/fMeSBCTTP/G1l/sobdAwBQEdJEgxcXFHz9+zMjIkEqlHz9+vHnz5qBjH2TqRSAjI+Pjx486HuykV2QorJ2AARIEbYcpbJWGz110rvzRjXZ5SdcfN9rlR/NK2f7B+KxyV9q12/I/E/cdxXOIZOrOC1fvKP5M2n8Mz6R4eB+6fuNW58tyaU+59O3Njhc70zJLOl+pb4fhBIZevP+sVPS6TNJdKnp9raplZ2rmbfmf6Q/r8DiODNaJogpVEOwtCiWQdK/77QSRQrNzpf96KetWx8sy8ZuSzlf5TaLdl7PxipAAAgYTAAmifXiBq98kAcMkiL29PYvFsrBQ7aCxt7fncDhsNtva2lod0aRJk44cOUKn0y0tLb28vPh8/rhx4/ACtra2sbGxly9fzs7OXrp06aRJk/BLQyVsbW3Dw8PPnTtXUlKyd+/eQdeJeHh4nDhxIi0t7cKFC/PnzyeTyerRDh48KJfLlyxZop6pS9re3h49Q5DFYvn7+/v5+VEoFFRx0qRJXC6Xx+MxmUwERCOgt7f3pk2bLl68mJaWtn//fo0ujR8/3sPDQ5cHFFpZWXl7e2/btg2F2r17N4lE0mhr4EcrKysOh2NjY6NxicPh7Nmzp6io6NKlS+Hh4RrKaevWraGhoQQCgcVi+fr64vvEHRwcZsyYkZaWVlJScurUqbCwMI0vXaOVsfWxsLBQqVRq6XN5efmHDx8GwtRSRfslkCAgQYAAEDAJAV0kiPrwNH36dCKRqJ4DacMI/N///d/Hjx8Nqwu1hkPAAAkSPH1OufRtmfhNmei1SjdIum8KXwgk3eXSnptChV/UNDSl3Hc1v1zas+nY7/gM057KOFP6oFzac7xAgDI5gaEFzRLVMauS7vwmUX6zuFzaI5B09x682ncmiH/M9BvtCoGk+1bHy7zGrpsdLwXSnjLxG4Gku7BV6uLuSSRTSTTmmZJ7KD/1TtWR3JKc+g4UJ2bxCnsq41hB2S3hizLxm9Lebp8vf4z3ChLmJeDiPyXs91uRWU8js59GXa/kLNvkwPaemvEgMluVE5n1JDLzsYMHz0SddPTydZkcZkdlGBYfJMhwBh+oO0YJ4BLEykrXM0GsrKyePHkiEolYLNbly5fFYrG099XW1hYbG4uLgISEBJlMlpGRUVNTgwps2LABUaLRaHV1dVjvSyaTYRhWV1enPqXfsWNHe3s7jUbDqTKZzNraWlQF/SuVSnfu3Ik3RyAQEhISJBIJhmEoJoZhYrF41apVBALBxsamtrYWXRWLxR0dHUuXLsWDa0+EhYVJpdL8/Py0tDSpVIpal0gkGzZsWLBgQUdHB7o7qVRaXFxsa2uLR5s0adKNGzdQfxS9LwzDOjo6WCwWXiYjIwPDsBUrVtDp9OPHj1dXV386T+3UqVPq904gECZOnCgQCKRSqUwmw0M1Nzc7OzvjoVCxRYsWlZaW3r17Nzs7OyYmZseOHRiGHT58GC82fvz4y5cva5C8e/fuhAkTUBk+ny+TyR48eHD9+nV0vxkZGQQCYenSpSKRCFXECQsEAiNKAbyTZkkolcqmpiYtTQcFBb1//97NzU1LGb0ugQQxyfTPFH9Xh5hAYGwR0FeC6DVyQWEtBD5+/KjdpmupC5eGQ8AACeIzNRY5iDLxmwOZhe5+gVQvvlfwlEsPagSS7mvPWu16H217oqhCIO1Z+9txfHpp50o/kldSLn17oqgCZarMhaQ7v1HkOzXWkenu5MaesWpdqegPdQmS/qhOIOk+X/6EwfNzoLOoXvyj+aVIcJR0vmL6+BPJ1PgViSrBIXodPnchiuzIcN+bnlsu7cmuabOj0BzobtOWJ5SJ35wvf8LkT3Ziam7ewTsJiZEk4MD2jrr+LCq7MuR4Tsix6yHHc93mrCC5cYIOZ6o+HrsecfludG6NA8dUEmTyzrOxhY1OvADD7hokyHAGH6g7RgkYJkGePXsmlUrr6+tlva+6urrW1lY0Mca3FW/fvl0mk4nFYgzDFApFS0tLXFwcgUBwcnJqbm6WyWQtLS2nTp06ePBga2srhmFFRUX4eoSCggIMwxYtWoSo/vjjj42NjRiGdXZ25uTkXL58ua6uDjX3/9l777Cmlnbv/3lOe895f3+973vOiX1v0SSEEtJIQk/oCNJB7GBv2LFg3XbsDQtSFaTXhCbFXumdhJYCWKiCbpX97ONvrwwulqGICZ3Jta59TdaauWfmG5yd+5N77lmxYgWow+VyQV8PHjw4fvx4UFBQTk4O8NhNTU1JJFJ5eTmoADjC1atXB/mRrV27tqGhAbAMqVRaVVUF7AD2IZFIxGJxbm4uAAS3bt1CzZ4+fVoqlZaUlBw6dEhPT09bWzsmJkYikVy7dg2tExwcLJFIXrx4IRaL6+vrX79+3djYWF9fX1tbO2/ePFBtypQpwcHB9fX1+fn53t7eLBaLzWanpKRIpdJjx46hpszMzEpLS+vr6xsaGoCR+vp6oMBfgRtotYCAAHAzKysrKCgoKysLvI2LiwMBKY6Ojg0NDXV1dVKptLGxsaqq6ujRo8bGxgAhFRcX37lz58iRIyEhIdXV1RKJZPA4CR3D2Cx0dXUlJSUNMDZVVdWurq5BHt0ygB30EYQgEIJABaACw6IAhCDoOjuShWPHjv0FQby9vUeyU9gXUEABCELRM0yrfpMhar4Qm4J1HQ1tHEBsiImDK55M9eUjEGTT0TPYOodv3cmUtN5+hGQn1TW3Tq95mylusVm6Aq1DoNAvRPMzxS3pte8MrO2sFi0H8R3GDi5oHQbXlF8pzRA1p9W8ZZogEORqUlaGqPl8FB+tgydTwTjviZo5dk54MtVp9YZ7dU23H+Zi68Dy6CpAmb/AJbGQvWJbf8Pgep93ic8fPghieuS6c3y+uqFpfwMY+D6EIHAhnYQKKAZBnjx5Ajzn6upqS0vLadOmzZw5Mzg4GPj8c+fOxeFwFy9eBJzi/v37qqqq6F6Y2NhYiUTy6tUr9ARcMzMzQBDMzc3BRwAgyNq1a3E43JQpU27duiWVSoVCIXo8x7Rp06KjoyUSybNnz2bMmDFt2rT4+HipVPry5Us0omHq1Kn379+XSCQxMTE4HG769Ol+fn719fWHDx+eMWPGYHaggMEsXboUpQnBwcHTp0//9ddfi4qKgAJ5eXk0Gm3q1KmLFi0SiURCoVBTUxM0BHXMzMzQvytdXd2amprnz5+jASyHDx8GdiQSSVJSEpvNJpPJWVlZUqn0wYMHoNrs2bPLyspqa2vZbDZqysTEBNQBd1RVVQFLKigo8PT0dHJyunPnDsAWQCVQzdbWFnCrgwcPoqaWL18ukr04HA4Oh1u+fHljY6NEIikpKdHX1wcbXnx8fMCnhsZ9TJkyJTIyUiqV8ng81NS4LnR2dkql0gGmsGjRoq6uLiqVOkCdn3oEIciwuH/j6xd7OFqowHAoACHIT63FQ1W5oaHh69evampqQ2UQ2hm8AgpAEDyZmlrzJlPcYu+xRs5FjC2oyhS32C5bhUIQz+8hyI7Tl7KkbXce5+PJ1OU7vLOl7bwKCVkH2dKCXq7rt2RJ2hDAYWy+7uDx7Pr2mAIhSMIK6qhSGbcynmIhSEJxbYaoOb64NvJVeciDnJtpj26mPbqR8iC16nWWtM1ywVI8mWqxYHF67bsQCEEwUqOaj1ZBy9rZJbGIuWxjfwPg7hsIgtBdPObfSnGKeGobdA8hKZTvdrUQqNo6q3faBt1zing6/1YKzcUD7YXu4uEU+cwp4qlzbI5LfAEoO0U8dbz7SE2Pi1b7YQFCkMEvNbDmhFFASQiyZcsWVIpZs2ZVVlaKxWKQEezSpUsgEoROp6N1dHR0gL8td/ztrVu36uvro6OjQU0AQTZu3IjD4ebMmVNRUSGRSHbt2oXaweFwVCq1tra2rq5OS0sLrePh4YGts3Hjxvr6+tzcXOC637hxQ4HEqI6OjoDmFBYWopumT5w4Abbb6Orqgh5/+eUXsMfH2NgY3Hn48GF2djY2a8bixYtFIlFxcTHgRDgcDoUgwcHBKBlxdXUFwSAUCgWHw82aNevly5d8Ph+tgMPhNmzYUF9fX1RUBPo6ffq0RCIpKytDk5XgcLiTJ08CfJOfn4/D4aZOnRoaGgq2umAZ0F9JW0A8CNivBCDIXw3RKBscDrd9+3awl+evTC5oApd58+ZlZGRMmNN2Tp48OXAUc35+fktLC/ZTwP6xKVCGEARCEKgAVGBYFIAQRIEVWckm5ubmX79+raioUNIObK6YAgpAEBKNmVb9JkvSau6yWM5LjMqtyBC3OK3e0B8EWbX38P3693ceIRBk26kLWdK20Kc9yU2BNUu3pZniVgBBtp26iEITbF+HboZkilvQSJDUqtdIUhJJa1Z3VtQWWW7UlixpW0y+QEvXEE+mcu2d06rfhL8swdqB5VFRQJ1raRecaRecZR/6wCWhwOHuI6QcnGUfks1esxM7pAEgCPIosdDh7iPr64n2d+67JBRaX4vHa9FBcwJVe74f3yWh0P52tvX1RIewhy4Jhdz9F8FTmuNS++BMu6B7TlHPXRIK7EOy7ILu2QXdsw1I+6n8IxCCKLbswFbjWgFlIEhFRQWRSESnP3Xq1AcPHkgkEi8vLxwOByBIQUEBGpqBw+FOnTpVX1/f+4gNV1dXqVRaWFj466+/4nA4Pz8/iUSyd+9eHA5nZmYG0o5kZ2enp6cHBgb6y14BAQHV1dVisVhbWxvshQFABB0PiP7YuXMnyilOnz7d0NDws6fDzJs3D0AQ7L6PdevWSSSS3NxclHFMnz49PT1dKpWiB6xOl71mz57NZDKNjIwCAwPBPprKykr0hyJ0c4qpqSk6chaLBYI40ATzM2bMmD59+pw5c4Cp0NBQ1BTgKY8fP5ZIJDdu3ECNAH5UVVUlkUiKi4tnz549ffr058+fi8XinJyce/fuhYaGAiX9/f1fvHghkUguX76MjQTB7vvQ0tIqLi4GOlRXVz948MDd3V1dXR3b3XgvEwiET58+5ebm9ok5XF1du7q6Ll26NITThBBkyNy/MwfWrne3G45f1H/W5sHtSw/uWDZwqwPblvJvn9Blqg9cDT6FCiisAIQgQ7hSD9JUU1PT169ftbW1B1kfVhtaBRSAIIY2Dul1TZniVuw2FjyZStCi8yukmZJW6yXIT+6y9B8tXuevYX3a1d6/Zde3R+cL8GTqyj2Hsuvb44qq8Vo9YSB4MhVAkHt1TYY2DltOnMuStkXnVWCN4MnUA9cCsRAksQTJqLrN56K71/59V/33XUGu3Rdv2C5bRdYx6PZ7DbnJwobYAqEagy1nDb4dYQXUORa2/mm2AWn2IVkIgwh9YBuAvLUNTGev2o4dTH8QhKTHdY7LtbnJI9BZSH0Kw+TIDZeEQordQtCc6rjU/na2/uZDAIsQaEyb60kucXlyjOPbdhgzbKeDL0MIMrTLEbQ2LhRAIcjUqT+RGBVsh4mLi5ObY1RUlEQiOXv2LApBXr58ieYKnTZtGp/Pr6+vx+7FABZMTEzEYnFlZSXYIwMgCNhX6+zs3J2OFGzk+P6/paWlqqqqdnZ2YrG4qqpqYLf8+PHjDQ0NR48elRv2wG+tra2lUmlNTQ32YJcNGzZIJJLnz5+jbadPn56amiqVSlH7s2fPDg4OFggEICtKQ0MDiMsQCoXoOEFOkJqaGmy8zNSpU2tqahoaGtD9QSoqKmFhYUKhUM6UQCAAHAoQCmzsBhhYZmYmgCAqKiozZswoLCxEk5t8LyTybuXKlSgE+SvPK7r5CJgiEAhBQUECgaChoUEqlYJYlWvXrqEbZFApxm9h586dXV1dGRkZclMAG2HEYrHcfSXfQggyNBDE1IjeKeRLcyMU9hj7bMigEnWZGn0+6u+mlQnrQxW/vTKJRu53agwqsfrp7Q9VyUd2ufdnB96HCiipAIQgSq7OP9t869atX79+ra6u/tmGsP5QKaAABNHmmoFcHk6rkIgP9Fq970iWtC1F+JrBQTIs7Ll0U5ang4dWIGjRzkXxMsUtcYVVeDLV2MEV5De1WLAErYMnU62XeIBjbk2d3OxXrM2UtN6re2doY4/W9zY1CQAAIABJREFUUaVqB2Y9zxA18yskFD0jPJnql/44Q9R8xD8MrYMnU0l05rXk+8dDIkGiVjVtdkJJXXJlPd3IBFsNlkdRAa35ri6JRazlm/obQ38QhGq3CEkmgiEmZAt7l4QCgy2He0xp0XrKZKrRbh+XxEJ1IySJDHqZHr2B5AThfHcTffrDAoQgQ7UQQTvjSAFlIIiPj4/cTEHiz9OnT2MhyC+//AKqoZgAu4kGPLKxsZFIJPn5+YCYnDt3TiqVXrhwAYfDOTo6isXimpqamJiYxMTE7OzsLNkrIyPD398fgAk2m11bWysWi+VO7lBVVU1OTvb09AS97Nixo7GxUS5cQm4Kvd9aW1vX19eXlZWh20DAbhQQuoLGuaCzA8lKp06dyuPxQNrUvLy85OTko0ePGhgYVFZWYiEIyJBSVlaGPRyHSCSCJCkgEmTWrFkguUldXV1OTg6fzz9w4AAIfkEhSElJCUoxsFMAp8+A7TAzZswAG3bS09MjIyMzMzOBktnZ2TExMWhGW7AdBoTYYE2B8i+//MLhcO7cuQOy20okktjY2D5DJ3q3HRd3duzY8fnz566uridPnnh7ewcEBHTJXkVFRdg9REMyFwhB+iUFP+UBmnEYnUJ+fV7kT7X6YeWgC7s+VicvczH/YU20Alef2lIWX5Llj97ps1CY4fexKvn84fV9PoU3oQLKKwAhyJCs0YM0Mnv27M+fP//P//wPiUQaZBNYbcgVUACCIDlBZIlRYwurmCbdx2poc03ji2szxS1H/EOB67h4i1eGqDkmX4BGXjiv2ZRWg2RUBRAET6YG33+VIWoOuv+KRGeCVhos3duPcjNEzVnSNnOXRQQKPbZAmCFqPnknhiDzaYkU+rZTF+/JjtGNL6lVlR1uunynNzhDFz2gl0hlHA0Mz5K08iokYDuMGp0Vky9Iq36tY2b1Q+cWVhgZBWSJUYtYyz37664/CKK9ZL1LYiHLYyvaUJ1r6RJfYLC1B4LQnJbNv5XiGP4EXM4xrxDeASHIkC8i0OAkUwADQQY782nTpoFIkIiICGybqVOnvnr1Cj0uBGyHefnyJQpBcDhcaGhofX399evXsQ1xONz58+cbGhpABlMcDnfmzBkUgqirq9fU1IjFYj09PWyrqVOnrlq1ysbGBofD/frrr/n5+VKp9OTJk9g6O3bskEqleXl5IFrB3d0d2wu25gDlPiHIsmXLxGJxUVERSkZQCAJyZDg4ONTX15eXl+vr66On3qioqJSXl/eGICUlJWi2ERwOh26H0dfXx+FwixYtAqcIs1gs1BSJRKqtrUUhCPhEfH195SaSlpYmkUjy8vL+2mQ0bdq09PR0ueNpQH09Pb1t27aBrT39QRAKhYLmssXhcLNnzz5w4EC97IVN/io3gPH4lkwmx8XFAfbR1dXV2Njo7Ow8HBOBEEQegjAoRMXcv1WL5y2w4yjWtr9Wsf6HP9Wmem9Z3F8Fhe/npd/4WJ18DkKQ/uNlFNYWNgQKQAgyHEt2fzbr6+u/fv0Kfrfprw68P9wKKAhBZDk4kFiMynqvc747zlzhlUsyRM1RuRWAOODJVE22XkJJXYao+cTtaEMbB5+wOHCwLhaCzFu0PLUaSecRlVu+7uDx7T6XQBOQ4MNm6Uo8mbps+17ZiblN/pnPToRExciYCAghicmrBD4wic4EB/Sm1bw9G5n0263QmAKBrLuW9QdPgDqqNO2QhzkZouZdF66rgT0UmIgA1JeGhZFUYPggiO76vS6JhY7hT2yuJ1rLLvvQB87xBRCCDPeSAu1PeAWUgSA1NTXYyIsVK1ZIJJLa2lqQm/PQoUPguBYsBFm1ahU45wW7tURLS6uyslIikaDBCFgIMnPmzIcPH0ql0tjYWOxP8evXr5dIJJWVlWA/iI+PT319fVVVFXZfCYiziIqKAp+jjY2NVCrNysr6qY8VbIcpLy/HcoqlS5fKQZCZM2c+fvxYKpWC1CEHDhxoaGhITEzE9nXy5Elw0C96wggYYX5+PnZTCTj5pa6uDiRG9fb2lkqld+/eRU1NmTLF398fu0nnwoULEomkqKgIO0h7e3uQW+Tx48eg7a5duxoaGuRUUlNTA2Edjo6OIPSmoaFBLhIExOPk5ORgx2loaAj2xVhZWaFjg4XBKzCJIAhNi3Bkl8c8UxaVjKdTCHs9F147tXXp90EW+mzNF7wrh/pPqMGik7y3LD6y293YgDpIX3e+uc4J71Xemxcx6aQ+myxyNPHesniP50JTI7pchTBf799rUjavcpS7r/xbCEGU1xBaGFgBCEEGvxArWTMtLe3r168lJSVK2oHNlVRAMQjCK5dkilt4FdLu/KOyjKSROeV6FjZYF9p9574McUuWpDVb2p6F7Gpp8uVlodthQM2FG7enVDUi+1+QnKatmeKWxNK6tJo3IBJElmqEtuvctYy6JiTpqexKKKnlC+ozRM3Yo160dAxuP84D+2jAf1Or32w84gPiR0Bfy7bvQZKnStvkMpVgxwzLI6mA4hBk0RpZJMgWdLTqXCs0EoRAY9qFZDqEP1Fld2eEwZOpRrtOwe0wSi4XsDlU4K8EEMpAEHBmKoPBmD17tq2trVAolEqlwcHBQNiDBw/2Jg7Tpk0DOTifP3/OZDIJBIKBgUF+fj7Ir4HiEiwEweFw7u7uICXnpUuXVFVVSSSSp6dnTU2NRCKJj48HezHQw1mePn1Kp9PnzJmzf/9+sBvF2toaDAmcTVNaWoqNaPjhn4GZmRkgF2giDxwO1xuCzJo1Kzc3VyKRgBSna9asaWhoqK2tBVnSZs6cCagQGBKHwwHDBhDk1atX2GG4ubk1NDQIhUKQP3XDhg1SqbS8vByQo19++eXUqVPdeVIkEhMTExwOp6urC3KgRkZGEggEEom0fft2IJFEIklNTQX2Z82aVVpaCg7NZbPZRCLRxMTk6dOnEolEIBAAfuTo6AhACZq9FU1PCza/aGho/PrrryQSKSYmRiqVCgSCn9ITO9NJXp5EEGTrGqffa1Ki/Q6eObDmfWXSp9rUj1XJXXVpuanXufrdRGPt0vkdAl5GxOnrPlsbC6I+1aQe/gZEmDRS5I0Dn2pSPtWm/F6T8rk2LeiCF+oE0imEhrzIqqe30TtUMt7NwbjyUfAf4vTfq1OQhjUpwZd2YyNN9FmazxIvf6lL+1Sb+qk29Q9xet2LsDVL51PJeF2metTNg3Uvwj4I+VmRZ8N8va3N2Fjj/ZUN2OQ3hdFNJfFshhpaZ4mzaVrYqebSuE81qTXPQ68e9yyQbYeBkSCoRCNZoJHxJ9fQrmxmMKnygUgjOYzh7gtCkJH5v8vly5e/fv3a0tKC5kgfmX5hL70VUAyCeJ33PX03gaJndMQ/LOj+K9+kzGXb96rStFGPFC3oWlifvhsfdP/lYb/bTGNzghZt14Vr8xa7oxXwZKo6U3fH6ctB2S8Ds19sO3VRjc70S3sclVuhzUUyNbBMLXXM5zGNzbyv3DoXlWTnvppEZ15JzMgUt1xNysDaIVIZCzdtv5n++FbG013nr6ExKdg6HFuni7EpnPmO2JuwPFoKDBqCyB9bq2lu55JQYPzttBc8mcpctgndIEPU1nGMeGoXnImX7ZaSzY5mcea2S4J8JIjJkeu998gMXg2YE6T3kgLvTHgFUAgyZbB5UZGTVsGuCpC3oq6uDpyMC+I+UH8Y7JVAd7igSurp6QkEAqlUKhKJqqurJbKXQCBgsVhoHTkIAs6LARykVvYC2T1fvHiBddQtLS2Bwbq6OpBDVCqVhoSEoGZxOBwALi9evMDm4MBW6F3W1dUVi8UikQib9N3NzQ1NOAqazJo1C2zJ4XA4OBxuypQpAPdUVFQ8f/4coIe6urqsrCypVFpZWRkWFobD4UAWlfv372P7XbRoUUNDAwoXVFRUQC6PsrKyZ8+eVVRUSKVSsVgMkp5WVFTcvHkTh8N5eXmBxKt1dXW1tbUgRgPIGxkZidp3dHQEHxxWf5FItHDhQlDH3t6+oaGhtLQUbQKmA2JtJBKJSCSqrKwERqRS6datW7E1YXnwCkwiCLJphUOHgNeYH/W+MumDkF/zPPRx/MX3lUkdAl5u6nWQRnTTCvtOIa+1LKFTwOsQ8LKizlqZMJHIES3Ck4SLnUL+79UpRRl+L5N9OwS8TiH/wm8bgCepx9JoLo1rKY3XY2uCO0tdzNorEjsEvI9VydXP7rSUxXcK+R0C3u1Le1DnMyvqbIeso4dxF14lX+uQDaalNH6hg7Gtpe7v1cmgSaeQ/6Uu7fSBNWjDAQo25uwOAa+1PF6bpgqqXT+1FUzzU03Kl7p0YPN9ZdLHqkm0HYYylra9WOqrVgdya4O4q+27/1oG+ECH+5GVAenOHmbMQZ3ogzoxB3Xmc5B4JZoWPmwv65InQ5neIQQZ/EKscM3o6OivX7/++eef4Fg7he3AhkOigGIQZPBeomI1iRQ6miUkpep1prjFbUNP9gdNll5iqShD3LL/epBi9mGrMaLADyEIe9U218RC7t5z6oam6kbm6kbmqkw9JD6IxrQNvOcSn6+zaoe6oRnd1cMx6oVj9EsSGzkOGTlj6EI4cibuvgvqHHN1Y0uzY372t+/3hiA6a3e7JBZy9p5FqnEskM0y36dTHVgoCEGGZBWCRoZQgf8eQlv9mFIMgoBME4cPH87MzKypqRGJREKh8M6dO+C4VtCVpqZmSkqKoaFh757V1NR4PF5VVRVwp2NjY8EOGrQmNjEquDl9+nRvb++KigoQSVFZWXnp0qXeXzyMjY2fP38OjtQVCoW+vr7Tp09HzeJwOBsbm4KCgtraWixzwVboXZ46dWpqaiqfz0cDVXA43IwZMw4fPgz2j4AmU6ZMOX78OJ/PRzekqKurp6amAh5RW1v7/PlzY2NjMpmcm5tbXV0dGhqKw+GWLVuWl5e3atUqbL+//vprcnLyyZMn0YSjGhoamZmZwFRNTc3Dhw/19fV1dHQKCgqqqqoABMHhcE5OTjk5OTU1NeAUW3NzcxDlERAQgLVvamr64sULsFOmpqYmIyMDq8b06dNv3769Zs0abBNQtra2fvLkCUjRUldXV1JSsmbNGuwepd5N4J0BFJhEEGTdsvmABXQK+T77VwPvbp4p601hzMeq5A3utlQy3nvzYkAlov0OYd2/i0c2dgp5DflRC+y44P4ez4XvKxKbimPNOIijiEIQfRkE0aaqlj8I7BDwnvOucGUbZ2hahLMH13UK+Z0Cno25DpWMX+ho/F6Q1FIWv8y1O+8pi056knC5Q8BLDT1JJeOtzdn3Y859rEq+emLz6iXW2PEMUO6GIGXxoI77AgtAPeIDjzhaG7DopB3rXN4UxgA6AyNBBlCyv0ebnMnvIkw3OpP7q/DD+2w64dE5/aJrhia63aDqh02GqcJiK3XpbeOaIG7RdaPi60alN41czZFTk+la+NIbRvdO6SnTL4QgA6y8yj8CqdG+fv3a0dGB/d6jvGVoQWEFxiYEwXqeF2NTM0TN6bXvvK/cIrP1NVi6h26GgJwgaBpUbH1YHkcKUOa7LeCXstw39zdmAlXb6mKES2KRK6/ElVeygF+Kpj4l6RrZBqS5Jha58ktck4odwh6RLR1QO0Smnu2tFJfEwgX8EpfEImvfOOMDlxbwS+VyghDoLOtr8a5JRQv4pQv4pc4xr4gMHdTIDwsQgii88sCG41cBZSDI1q1bp0yZQiQS1dTUVFRUflYEPB6vpqaGnq6CbX7z5k2JRLJv3z7sTZAAVUNDQ11dvc9WoPLUqVP/2qmhoaHR3zeTmTNnDj4MRG4ACrwlEolkMplIJKJEY8aMGXg8Hn07SJtTpkxRVVWVMzVr1ixgytTU9PHjx+vXr586dSqRSATxONOmTSsrK5NIJOC8HmxHU6dOVVNT09TUBBlVsI8GLk+ZMoVAIGhoaKipqU2Y+F9dXd2bN28+efKk8EevvLy8hIQEJycnObg2sGj9PZ2MECQv7QZNi4B6d/7ndnYIeGG++6hk/P6tSzoEvLaKRDvLHvdPl6n+pijmQ1XyRg97tBVNi/Aw9kKnkHdszwoqGc+gEN8WxbRXJJka0qhkvIebZYeA11QcZ2WMBJKg14PY8x+rk88cXEsl4+9c2dsp5N2LOE3HDGb1YuuP1cniV+GgSVrYqc9IYtRFqIUfFuQgyKO4C2BDDbaXLasdkXCYquSzh9b90CCsIKfAekeyKJi73lFxCCJncBTfBuxk1gZybbny2WogBOlvxRwj99XV1dva2gABwf42MkaGN2mHMfYhiDpT52pSJkg+kiJsSBY0IGlTxa1HA8MJWvQfuqmwwlhWgEBjanAtido/4A7qhmYaXEtwqbL0e2ZEoYNH6kbmBFr3AUN9PDU0w2vRSGwDDa4lnsLoqQAy41IY6kbmwLgMkXx3sK585e+T6UIIMmlXzsk8cQUgCA6Hi4iIkEgku3btGibpwsLC0FNmhqmLCWbWy8tLKpXW1dVZWlqiU/Pw8GhoaKivr/fw8EBvwgJWgV9++aWkpAQ9CGbwhfb29mXLlmFNKVCedBCkU8jbttYZ63Z6rXftFPJfJvuiEKQxPwoEdIBqezwX/l6dkpd2HdsKCRvZsvj36pTMyDPgfkN+5F92wPaZqyc2dwh44lfhgee9/M/tPHd43bnD688cXPs08fIHIT/i+gEqGZ+ffuP3mpTfvJZjzdK1CHs3L1qz1AbcDL+2X3Y6zE9AEGsztozjJBjpUQx0yK8Loj9U8TeucMD2os/WfF0Q1Snke28e+nNnsB2NuzJNC7/QQv3aVu0AL9atHcz9y6ksWjfDMmAS/Hey/Heyko7o1gZxk47oBuxkIZcXy1q2hQSJ7rFUD/RicdnEdQ6a/juYN7ZpO5n2ZGahkvFHV9ICvJAmAV4svx1MXUYPjKOS8frahICdLI/5GvMMVa9v0/bfydzsosXQ6oFoVDKeScXvW0bx38m8uIlhrEM84E4N9GLJ2Rm87AE7mdUBXBNd+ROR+oQgu5dQAr1YCyyQUBG5S13115nT/2v61P8kzp1J0ZwLnsJIEAVW5B82mT59up+f31fZKz09/Yf1YYWRVGDsQxCQG3Xx5h3ReZX3ZOlReRUSd699A3un8ClUYAQUgBBkJBcr2NcYUUAxCHLnzh2JRHLq1Kkhn8WCBQtiYmJAjk9jY+Mht481aGZmtmvXrvPnz5/7/nX+/PmIiIjo6OjVq1dj64/l8ty5c/Py8kDCjjNnzqipqTGZTJCotaqqSkNDYywPfrTGNnv27K6urt9//x0c6DP4YRAIhLKysq6uLiXzoUw6CNJalgAOiEG9uFWLrd8LkiofBaEQpD4vUo+lgVYIvrjrQ1XyhSPd6T/Q++uX236uTX3BuwruNOYjWAFAkLiA38C2mt7//VSTcmy3x1/RIuJXdz/Xpm7/nsigxkHh1pkdn2pSj+5C6g/yMuMwWssS3lcmWZuzLbja7RWJbRUJBjrf5Z5gUImCxyEfqpL3bVkySLOTpNqFTQxRMLf+jnGlP6cumCsO4T67YMCgIOKb66s2hJo0hplIbxvXBnGlt40bw5C3r8NMltl0/7Vsd9OqDeJe8WQ0hJpUBXBAzcMePQcJJR7REfhzKv05VQHIxWF9Rx9MdIk1gdyrmxnVgZxqWfO6YG7MQTbtGwdh0QgPzuiDEdYEcoT+nIyTenVBXC77Ozs//LC2uGoFejEDvJhPz+tXB3JC97ICdzKRy4s5zxCJCukNQWw5pKoATtoJXfq3waC94P7r//wN8/q3f/sX8AhCkMEv6IOseePGjY8fP379+vWPP/5Aj7IbZFtYbQQUGBcQBHizJBqTaWzONrMi6/Qc+TECji7sAirQnwIQgozAGgW7GGsKoBDkpwZ2584dqVQ65BBkypQpT58+Bdk9s7KysKex/tTwBlOZyWRKJJKG71/1315S2au0tHTOnDmDsTYW6mhoaIBUrODoXJA7ViQSLV68eCwMbwyOQSQSffr06dtpzT+dgefZs2ddXV3gGGPFZjfpIMjbohhD3e82MmxaYd8h4OWn36CS8dvXOXcKeHIQJPTK3g9VfJ/98nlJd25w/b0mBeTvoJLxFQ+DPlQlu9gaUcn4u9e8OwS8gns3b53dnhF+OjvmfHbM+Qcx529f3rN9nQtwEZ8nXflYnXzl2CbUmURiAdjkuIDf0Hyrx/es+L06+cpxT2ydgcumRoyWbxDEnMNoLU9or0g0+/7wXRSCnPBeObC1SfVUn0EQ+HOyT+uhh7bsXkypvMWRS/+xyk5TFMxdaduDyVCVtrtp1QVzk46wgQULfdUCX8NyPyM2/buID2Qz1B5mdWAfEKQ6gPP8gr6jCRI/wqLhk4/p1gVz7b5tVwH2b27XBiRiyTz1Cj+OAhDk6mbtumDjumCE5tQGcUG5LthYHGKyUBboIQdBdBmEnMsG5X5GvWmLKn4WBoB0F//3f/wvKhkPIYhii7JcK3V1dQcHh8rKShD98ccff8idey9XH74dRQXGEQTpzxGF96ECo6UAhCCjuHbBrkdLAcUgiIuLS2hoKDab5lCNn06nL1++XEdHZ0hyLgw8Ki6Xu2zZMh0dHda3F5PJ1Ma8SCTSwBbG2tNZs2Zt3LgxIiIiSvYKCQkxMjIaa4McjfH0ATiMjIy6uro8PT0VHs+sWbM+fPiQk5OjsIVJB0HeVyY52RiiXiuVjP8LTHQIeDG3kEyonisdOoXyEOTc4fUfq5N5IcexrWhkPD/keKeQf2w3khPkrwNxKx8F/16dvNjJlErG7/Fc2CHklWYH0Cnfeb9uDsahV71BfZ/9azoFvLL7AdrUnuyYa5fZfKjii16GgTprllp/qEqOlo0N2/sAZSwE0aaq1r0I+1iVLHeyDINCqHwU/KGKf+3U1gFMTbZHRixiVQA3cv8PjiIeICfIdjctcQjX2axnC8yRlbS6YC44cgWr511vVp8QpCaQE+jVk0dmgYW6OMR4q5sWaBuyi1UTxLU06PmDSfxNVwEIgo5Eth2GY6wjH0giB0FC97Jqg7ju8/vgPv/x7//WG4L87W9/89qx+cZ573ePT717fOrNo1Mne702w1c/Cuzbt+/s2bMJCQkVFRUdHR2AfYDoj/379w+QjUzh/w3AhkOlAIQgo+U/w34ngAIQggzVQgTtjCMFFIMg42iCcKhQgT4VuHbtWldXV5+PBn8zLS3tw4cPg68vV3PSQZAOAe9J4iU6pdvrszRhNpfGf6xKXrccOR0GQBBpTgRbuyfxgZ2lXoeA974yaYmLGeo9LnExay1PaCmNn2+hC25iIYgVYjbufWXSjm9xH1Qy3oxDf1MY87kudY8nkuPDjMN4VxzbIeCB3THACNhHkxp6Crxd7GT6QchPD/fBZnJFx9BnAQtBqGS835ntnUK++FW4seyQGtBkg7tte3lip5AfemVvn0Ym7c2U4whTiD6gc2Yd3WO+Rp+5NgaGIKJg7jzDHkjhPl8j20cPiy2Atv1DEO5B957tM1aGqqJg7o6F3RAkdA+rNpBryOxhFjEH2cpAkEAvZnUg17TXITUAguRdMby4ieG3Q7sumBuwswfNYP88/vVf/6VPCFJTU4N677CgsAKfPn0SCoWxsbHa2tpyazd8OwYVgBBkArjicAqjpQCEIGNwTYNDGm4FIAQZboWh/bGpwMuXL5WHIPv37+/q6lLgaCSgyWSEIJ0C3oOY84scjfdtWSx5Fd4h4D1NvAzSLgAIInwSgnXz0GiRt4UxF49sXORkEnbVu7k0rlPIv3NlD1oTC0GoZHwocvgLv7U8Ifji7k0rHG6e3gb6qn0eymJ0RwpcPLLxQxW/vSIx6MIuJxvDGL+D7yuT2ioSF9hxgFlHa4MOAa/uRRg2RwnaY58FOQhiwNaU5kZ0CHjCJyHrl893sNYPvODVWpbQIeB1CngJQUf6NDJpb+rQCSfX0KoDOI2hJpLbxjWBHL8d2nJq/BCCWGMgiFxb9O0AEASbQ2TeqEKQumDu67umjaEmtUHcnd9ADDoFUPiPf/9ffUKQpYucj+12b0zd0pi6pT55S++XPXz1o8D8+fMtLCyMjIx+9uC0sfn/uUk1KghBRst/hv1OAAUgBJlUqyWcLFAAQhD4lzA5Faiqqvry5YuSc9+wYUNXV5fC26YmEQRxsjFsr0hsKo5tLUvoFPK/iNI/1aR2CvkVD4OM9Lp/afdYiBxtez/6nJynx2aoPZSdNfuxOqVLlPahit8p4KXfPcWk95wtKgdBWHRSRsTpTgHvQxX/c13qh6rkTiFP+Dhknul3uy2i/Q52CvgfqvhdovQPVfwPVck3fLahvbPopNL7AZ1CfmN+JPsbOkGf9lkwNqC2lMY3l8aju2xcbTmvC6M7hbzPdWmyXpI7BbzmkrgPCMSBkSB9Z5xlUpGUFlEH2NI7xhucvksrO4oQ5NYOZm0Q19qo568OhK70TtXR599G75sDR4KknUCinNg0QoGvYdlNIwPmd3u7gDUifmZvCPL//e9/hzlBlFzZYfPxqACEIBPAFYdTGC0FIAQZj4seHLOSCkAIoqSAsPk4VaC6uvrTp09KDh5CkL6d2N7+nvN8o/aKRPHLu862RuHX9lc9DSm4d9N7yyI0LoNKxtO0CB4LLTnfmIickVWL592POSfNiYi4vn+pa8/WGFCt6untD0K+MybhCE2L4LnSofxBYHtlUnHWrb2bF/UGGTQtwqYV9sWZt9orEl8m+65YZCXXKVefEnRx1wveFca3LTxyFXq/dbHlOM9H8rOil6Gu1rlD6+tzI/5KiVKS5b/Bw87/3M4/ROmne2V7RZtMwgJdC6/HIGBPP7HQVxWFGF/cSMeqscGRLArmrnP8Lr0uqLDdTUsUzB2+SJDV9pqyxKs6LCry4XovpQj9jYZvO8y9U3pgXkvmqYNzarA6oOWpU/4vloP867/8MzglFyZGVXJxh83HnQIQgoyW/wz7nQAKQAgigjsCAAAgAElEQVQy7lY8OGDlFYAQRHkNoYXxqACEIAp+ahfXa9UGcWqDOH7b5bcqoI5Z7wKIBBG/CtfR7slb2buawnca86M6BDwLbv9D6nW2qMJ9DUlDS5O+szwMifHxaMSOS3obbpp6XNeQSWTTCGw6wWctXXrbePu3vKRgUgssECJwbau2Dp0ALnSyP4QgiFnZhWyHCUAykoK34BRecETuANthGBR8+D6WKNj47V3ThlDjwmtG/KNKJUYdOBIEhSBUMj7cmyUK5q6x/y4oBp04WX3OrBn/PWPaf+LnzEBvQgii4AIHm41bBSAEmQCuOJzCaCkAIci4XfngwBVXAEIQxbWDLcezAgsWLFi9erWSM5g5c2ZYWJjCRibRdhgLY+3m0vhhgiA6DLXm0vjmkjgdTEZV1BscoEDBxGsMUG3gRzQtvP08PUtjCDV6gl8GVqzPpzQy3neLtvSOcV0wVxjAqQnkSm4bpx7XBfli0CYMCj71uK44xBhc1YFc9HSVgSGIqa5q5S2OMAC5qgM5NUFIL7Iyd98yCpWM/yEEAWNYYKG+wUlzlZ0Gi0YY1sSoWAhiwCSW3DAquWGor93HphhUHGwBQhCF12XYcJwqACHIaPnPsN8JoACEION03YPDVkYBCEGUUQ+2hQooo8AkgiCWMggiQSJBek5+wfpsipUZVOJL/lWQajQ//YZiRgbTap4Zq6Usvkt87x/1mf9o+P6qz/yH5N6f9ZkXjmwcjClYZwAFHE3U9i6l7F9O3becusK2j0NhqWQ8g4L3dCHvX05Fqi2jsGndXGA+h3RgObU/TKBDJ+yTNQEN0f8ecKc6miDRSTp0wv7lVGfTnkglPQbhwHJq7xN20fHHHGRXB3AMMOfFoI8GU3Cfr7F/OVWHLs81aGT83iUUT5fvtvwstlI/6E7FHgA8cBcQgiizNMO241EBCEEmgCsOpzBaCkAIMh4XPThmJRWAEERJAWFzqIDCCkwiCMLRp7SUxtfnRQ4tBGEz1FpK47+I0ioeBtmY6wzsFirzVI+pnnz7+Ktk34TAI1dPePa+zh5cZ2bEUKYL2HZ8KcCiIilLC30NsXlMxs4UIARReF2GDcepAhCCjJb/DPudAApACDJO1z04bGUUgBBEGfVgW6iAMgpMIghCJePd3Swd5ukPuZdIpxCGFqwM+QihwQmjwEJLdemd7p04r8OQw2vXOvSdp2PUpwwhiDJLM2w7HhWAEGQCuOJwCqOlAIQg43HRg2NWUgEIQZQUEDaHCiiswOSCIKPuFsIBTCIFhicPrhGLuNlVy9MFuTY4a5rpqY5ZSSEEUXhdhg3HqQIQgoyW/wz7nQAKQAgyTtc9OGxlFIAQRBn1YFuogDIKQAiiVCrNMet/woFBBUZdAQhBlFmaYdvxqACEIBPAFYdTGC0FIAQZj4seHLOSCkAIoqSAsDlUQGEFIASBEAQqABUYFgUgBFF4XYYNx6kCEIKMlv8M+50ACkAIMk7XPThsZRSAEEQZ9WBbqIAyCkAIMizu36j/CA8HABUYdQUgBFFmaYZtx6MCEIJMAFccTmG0FIAQZDwuenDMSioweSHIfyupHGwOFVBWAQhBIASBCkAFhkUBCEGUXZ5h+/GmAIQgo+U/w34ngAIQgoy3BQ+OdwgUmLwQZAjEgyagAkopACHIz7h/w5PqctR/sYcDgAoMhwIQgii1NsPG41ABCEEmgCsOpzBaCkAIMg7XPDhkZRWAEERZBWF7qICiCkAI8jMQhAwrQwWgAoNVAEIQRZdl2G68KgAhyGj5z7DfCaAAhCDjdeGD41ZCARSCWFjiR/EyH9XeR3HisOvJrACEIIP16Ibjp3JoEyowgRWAEESJ70Ww6bhUAIUgarpGamx9eEEFoAKDV4CxZAP4F6Rvam70/UtbW3tcrghw0FCBHymAQhAOdw68oAJQgZFUAEIQCEGgAlCBYVEAQpAfffkZpecwG5nywvejIQpByBxzspEpvKACUIHBK8BYshFCEOUXJ2hhfCmAQhB1jV/hNaQKzB5Sa/DTmYAKQAgyLO7fBP55H04NKjBIBSAEGV9fxeBolVcAhSB4CmMCbE+AU4AKjKQCcDuM8ksQtDDuFEAhCIWqAi+oAFRgJBWAEARCEKgAVGBYFIAQZNx9GxvGAfcTOjGMPY6GaQhBRtJnhn1NMAUgBBmNRQv2OcoKQAgykk4v7AsqgFUAQpBhcf8G+VM5rAYVmMAKQAgyyt+tYPcjrgCEIBPMLYfTGUkFIAQZ8RULdjj6CkAIgnVKYRkqMJIKQAgCIQhUACowLApACDL6X6/gCEZWAQhBRtJnhn1NMAUgBBnZ5Qr2NiYUgBBkJJ1e2BdUAKsAhCDD4v5N4J/34dSgAoNUAEKQMfENCw5iBBWAEGSCueVwOiOpAIQgI7hWwa7GigIQgmCdUliGCoykAhCCQAgCFYAKDIsCEIKMlS9ZcBwjpQCEICPpM8O+JpgCEIKM1EIF+xlDCkAIMpJOL+wLKoBVAEKQYXH/BvlTOawGFZjACkAIMoa+Z8GhjIgCEIJMMLccTmckFZh8EGRy5IsekbV3/HYCIQjWKYVlqMBIKqAABMGu2n8blXXn4nqt2iBObRDHb7v2BPYh4dSgAuNaAQhBRmV5hJ2OogIQgoykzwz7mmAKTD4IMoprFex6rCgAIchIOr2wL6gAVgEFIAh24YAQBAaSQAWgAn0rACEIdq2E5cmgAIQgE8wth9MZSQUgBJkMiySco5wCEIJgnVJYhgqMpALjG4IE7NRmU/HwggpABcagAh42GiBiqyqAY9TrJfc9AL6FCkwABSAEGUmfGfY1wRSAEGQCrIFwCj+rAIQgI+n0wr6gAlgFxjcEub2baaGjCi+oAFRgDCqwyVETQpCf/T4E649rBSAEmWBuOZzOSCoAIci4Xv3g4BVTAEIQrFMKy1CBkVRgfEMQ/x3aTAoeXlABqMAYVGC5NYwEUexLEWw1XhWAEGSYfGZtrvmB60EsU6sB7NMMjE+HJ2w64jNAHfhoLCsAIch4XfjguJVQQDEIsmXr/IAgTyaLMIDHaGpGuf/g6LHjiweoAx9BBSazAuMbgsDEqOM6cSYc/MRWAOYEUeJ7EWw6LhWAEGSYfOyDN4KzpW2X4tMGsL9w0/b7De/5gnpVmvYA1eCjMasAhCDjctWDg1ZOAQUgCJ0x9+274D/+EbN2rcUAHuzps8u/dEXVN9zS0VUdoBp8BBWYtApACNJ3TseJ7Z3C2UEFRkABCEGU+2oEW48/BSAEGSYHe8vxc4/efFy55+AA9u091mZJ21KqXjM4JgNUg4/GrAIQgoy/JQ+OWGkFFIAgNPqc6prrHz5G2NoxB3BfN2yw+tIV9eZtkJ4+aYBq8BFUYNIqACEIhCBQAajAsCgAIYjS346ggXGmAIQgP3SwiVTGD+soVsFu+SoAQehGEIJQFdNwdFtBCDLO1js43KFQQAEIMkiXdbm78ZeuaAhBBikXrDYJFYAQZFjcvxH4mR12ARUY4wpACDIUX5CgjfGkwHBAEFWa9pp9R7afvkQ14PTpoxpY263cfWjV3sMOK9b1WWGQNxkcU/ed+1btObxo0/bBoAq6kfHWUxc0WLpy9jXZeh5e+z2PnbFauEzu0bqDxwOynjOGB1JACCKn9rh7CyHIeFrs4FiHSAEIQSah7w2nPEYUgBAEQhCoAFRgWBSAEGSIviNBM+NGAcUgyOLNOwOzX9gs8TgVGpMpbnnS9Dm16vWeS36abD3vK/4Zoub79e+zpW2Z4hYPr/1Yz3bJll1J5ZKHbz7eb3j/oKHjfmNH6NMCip4RWmffVf+kMrGJk5sGU2fptt17Lt7wOudru2yVHOOwdFsamVP+CLHTAewklYv159midvBkqr7VfJ+wuKRycYqwMTKnfOeZqxdjU+7Xt+88exWtpsHSPXkn5n7D+2zZgB80doS/KOHYOqIVgh/mZEna1h08HnT/5f3697EFwt4MBa2MLazZd+Rp8+eTt6PRm+ra7K0nz0e+Krvf8D5D1Hzr3pMtJ89nSlpTql5PvEgQTVMbk8O+dBd3dPoTsgAhyOBXuv8efFVYc2wroAAEodLmlJVd/vPP+A0brFBn0tKSFhm1811T8J9/xn34GP7w0fELF1d+/gK3w6igEsHC4BXYtHlueBRh3Ya5g28yHmtCCDIs7t8Y/4keDg8qMAIKQAgytr96wdENvQKKQZAzEYkZoubU6tcZouYUYaNf+uP02ncZ4pa4wuoMUXOmuOV8FP/WvScZomZeuZhuaAwcYKtFy9Jq3mZKWv0zn63cc8h13ebQpwWZ4hbvq7dQD/l68v0MUXNA5nN+hTRT3JIhapYZbL1174kGszuCg21m9RfyyBS33H1evOXEOcdV668mZWaImq8l30ftWLktSxY2Zoias6VtDxo6gKm0mrcZombfpExQTZWmHZj1PEPckiVt41dKE0tF2dK2DFFzfHEtg2MK6oQ9K7wnak6vfZtd3x5fUrPp6GmCFg3tpb8CQYt2PDgyU9xyOT4d1GGbWkbmlGWIWzLFLfcbO7Lr25Gp1TXdEzVPSAgy70qsS0KBfegDAp3Vn0ojdZ9msPU3c59gi9PIxdl9GvRLtV9seeYO2cJemWFACDL0SxK0OOYVUACC0Blz370L/vwlauOmecDz3LzZpqMz7POXqK4/ov/8M/6Pf8R8/hL1+UvUp88QgkAI8tMKsNgqFUJSU5tacfnYTal70gfPTyMucJujDHyBEARCEKgAVGBYFIAQZMx/+4IDHGIFFIMgey/7ATzBq5Boc83wZKrHzn336poyRM1JZWKOrROeTFXXZkfmlGeIW5Zs3QX8TJ+w2Exxy4bDJ1G3U8fCOrXqdejTAvTOqdBYYDlD3BLyMGflnkMbj/gkC+ozxS0bvx0lu+7AsUxxy+nwBLSVmjY7rrCaVy6hGnDxZKqaNju+uAZEW5g4LmBwTNw2buVVSIHlkEe5oOHG307KUM6bRZ47wR1TJ7fYwqoMUfOBa4HgDnibImy0XvwTQQ0IBAlCIMil2FRg50bawwxRM79S6rFrP93IxNDGAZ3pWIMgBKq2c2yuY8QTMHLF/quzdrdLfD53/0XFmg9hK6vL0a5JxU4xr5winzlFPrO6EA6MM5d7uvKKaY5LlekLQpAhXo+gufGggDIQZM1acwpVxcyc0tp25/OXKJHo5sZN8wyN1BctNsrJPQs4CMwJooyTPB7bWlqptHeqV9WRGMyfxh/ofMMjCW9b1AJDBjqDGa08KoXoWEJTm9radUrFqkAIMizu3wj8zA67gAqMcQUgBBkPX8DgGIdSAcUgyK5zviDiY9n2PcCH1NI1lFGGFs9jZ1Cv8khAWKak9Whgt9t5OeHevbomHTMrtMK8RcvTa9/Gl9Rq6RqCmydvRwNUcTw4Eq229/KtLElrYPYLcGebz8UHjR3WSzzQCtocU16FNK3mrcE8OzyZunrv4WxpW7KgAZvLY9n2PcDy3RfFoCFgNPuvB6F28GTq0m27s6VtMQVCcBPAlMsJ3QEd2JoDlOUgiInjggxxc6ak1Wn1BrSVGoMd9qwQCaUZY9thCFRtx/Cn9rez0KGO3wJJx9AlocDcJ7j3FCAEGcp1BNqaTAooD0HOnHX/KyqkqTmEw9VA3VGusWaLjIy8eRukqwdPh1EcB6CSjpeChaVKw1tSSQWJoT2RZw0hCMdvu/YY9wPh8KACk1YBCEEm0xc5OFdEAWUgSHS+QF1bB7iXagxWTL4wQ9xi4rgAdTi3nryQJW3z5Xe700QqQ0vXUI3BohpwHFeu33X+GojO4JVL0S0z56P5Gcj2k3eGNj37FDx27b9f3x5fXINaZhiZkOhMTbbe/CUrNh8/F5VbkSFqvlfXxLVzJmjRfMLisFtRQCsyWz+pXJwhagYQxNDGHgldEbf4hMXtuxqw4/TlLSfObzlx7tDN2xmi5mRhA8jTASDI3st+aNeDKmjRjgVFZIpbwA6dtQeOZknbYgur5LbSeB47kyVp5ZWLB2WTPDTnp6iyDAw2HzI5dMXk0BXOnrNkKyRsB1y6a3ch9w/7OsfkOEW9MDl0FVQz3H4UVCDQmFzvc/pbDpN0OUa7fEwOXdH3PEj89jeAxODoG5scRCzLrqu6a3ejxkFBb4O38YFLRIaO3sZ9JoeuGO32UTPo3nmE1iRb2nH3nTc5eIXlvpmkb2xy6Apz2Ub06U8VSDpGLomFxgcu927VG4Ko6hgaH7hstMuH2GsLz1xNyow5+P+cOh03Y5aKmiZqDUaCwGV0EirQG4Jokn/95df/nj79/86ZO1WLMru3701nzH0r2w6zZ68Thary/Pmpz1+iMrIOy9WMjNr5pSuqTnSTrUOUewTfjl8F7B3nXPcjhIYTw8KJ/kGE5e5zqLRu2OF7nRAWToxNIL5tJkkaSWGyOmHhxItX8DQ6UsfUTCU0nHjCB++2aE5QCGLk7AU8W6eHlSx3n4O2Cgsn7t2HxwrF0Fa5dpMQGEw0NFLxvYH0ddOfMN+2pzmFqkKlqXhunXs7lBh6l+h9AL/MfW5YONFr90/Ha/x2FB8WTrScN2f/QfydMEJIKHHL9rlU2SzAkHpDEJcFyOB9r/9E9AqMBIGRIFABqMCwKAAhyCT8PjfJp6wMBDkbmYR6g+raOomldRniFlNnN/TmugPHsuvb7zzu3u1CpND3+wbEFVVliltlSTpasiStSCiEoEGbg+ypwZOplxPSkT015WKabGMLuOmy1jNL2sYrl2iy9cCd9YdORL7qTrGBJPWQ2ZEhGFcihe7Ly8oQtez3DUBHgidTVamM24/yUAhiu3x1dytZ2pHuPTjfymHPikAqVgSCiFt2XbiONTWY8o7Tl0D2EzyZevBGSKa4xZfXnYsEbe62cWt2/fuRhCDqHAvHqBeuScUuiUXOcXkLkstcEgv1Nx8CQ7I8F+aWUu6WUu6SUOCSUAjKbinldkEZeFkmFKK2jmPE0/kBaQ4RT10TC135JS6Jhfa3s4mMbhamaWrjHJvjHJvrHJvrklBgcToEnWx3FxfCnWNzrC5HI10nFLoiw8jVsnFBq7E8NiP3ecXOCQULkkvNTwc7x+Vx919AKwymQGToGB+8YvrbNbPjt1wSCuYHpJkc9jX97Zrpb9f0t/4GLMhDEC2a1cVI54QCqv0iuS5U1DX/+Z//5W+Y139OnQ7qQAgyydfPyTl9OQjy62wc5h/H3/7pn/6upj4L64hSqCp0xlyx1O/zlyifM8spVJXqmutfuqLPnveQq+ZzehkCQcQ32TpjN7OD3Jjh24EVcF8x53UTqbVDreW9WlMbqa1T7V0r6cSpblQhqCF9+Kze8bt6U5taU7ta52f1D7KrqFQVRIU4OM5516qWm6/6rpXU0qH2/qNac7tamUDViNsNMvYdmNvcRmpqJb1rRXKC3I34Dp+x2CpllaqieiTM5P1HtdYOpHnDW5L7ip7EHAHBhOb27kftH9WyHxKb29WC7/wEmAAK8FKITW1qj58R339AJgv6CrrdY0cOgujoqpSUq75tIa1a8xPAZRJBEJoWYc1SGwdr/Un7y/zPTtzWQnfjCnsGhfizDX9Y385Kb/VSayaN9MOasML4VQBCkMn5lW4yz1oZCOITFoe6i+ra7ITi2gxRs7nrYvTmtlOXsqRtAVnPwZ3f/JHdMffqmkKfFBwNuOu+09t2+eqkMjEWggRlv8wQNcfkC1SpDNSO28atWdK2uG+RIGv2HUHsiJqjcitOhcau9j5su3x12LMiAEEIAIKIW44E3kUt4MlUIpUBjINIEMuFyzIlrem1744G3D0TkXgz7dHN1Ic3Ux9ejE3ZfOwsimAiZKhFAQiyVXbyi3/mMzyZuvvijUxxy820R9jx4MlUt43bsuvfJwsaBnnijFxzBd4aeZ10js/XXtx9MjGRqWcbnGEbkPZ9+lKaQ/gT+xB5ZINoKIMgzjE5dNcVoHfDHcddEou4+87LDUZN39glPr9PCOKSUGB84BKBqo0nUxmuK5zj82xu8kBzIkPHIeyRU/QrLWtnpDsG2+LMHZeEgp+FIKo6hs4xrxBMk1ggAzoFrokFsreF1r7df7RyEER37W5ZzMgluYngydR//pd/xfp4oPyrqjqeTIUQZDIvnpN27lgIokn+pfe/jr///W9yjjGdMVck6YEgFZVXv3RFXbu+Vq6az5nlX7qiGhoDdPUgBPkuWkFOqHH09l4WwhT27O328xctmSNuIBUUf/f5co2R7TDFZSQQ/YGdHYAgr5tIGz0RCzq6KslpiMGrvaInXN3m9AdB3raQQsMJ2rKEI2fO4Zvb1R49JYK+uCYqje9I4gaS22IEi1jbzCkoUVUGguQWEM3Mkc9u0ZI50kaEyzi7dgMXOQhyN4rQ2oHQFjQuBjvx/sqTCII42Ri8r0wqux84fr3KkRw5nUIszvbvEPCXupgNeb+Cx8Efq5LXLbcdcsvQ4NhRAEKQSfutbtJOfKggiBqDFZ1XmSlqtlq4DHUjt56SbYfhIdthKHpGKcKG1KrXFq5L0Ap0QxN+pTRF0Mj4FgkSdB+BIFF5lWgdPJnqvtP7fn17XFE1uBnxsjRD1Lxoc3c2UyTKg6Yd8aoUQBA8mep95VampBXN/QFaqdK0o/MFsqNnEDBBorNShI2ZklZ7jzXYvtQYrMN+d9A0qICtKAlBFm/ZlV3fniJsRNkK6HHB+i33G96n1bxlmVpixzB8Ze6+C85xeRrGPWlZevc1QE6Q7kgQ/1TCN0SlyjZwjn5pcyMJr0XHmlIzMOkPgjjH5akZmHRX1qLZ3kpxjHwO9tSQ9I2d4nLNfXriR7SsHJ2RBKs/FwmCjkSVbTiY7TAaXCvn2Fxb/1QCjYm2BYU5GuTePt7f/vY3krrGrv0HD9+8ffhW6OFbocdPnzn5/evw4cOb4QsqMBEVaGr2bmr2ftfkffCgl7GxQZ//QIiq07FenBwESU7Z//lLVGHRBWwdClXlpM/SL11RTc3B+gZqco/g23GqwMOnxKY2kpNzT+RF74kMkBMEQJAnL3qgicuCOc3tag8efRfxQaGqLF7SLwRpfEcyNu2GSoZGKqJ6UlUdSU8fubN2PdIqgdcTr3H4CEJJFI4EWbmqZ6ZBIQjm2LK9GwBhIciuvXOb2kgvc1V7c5/e+mDvTCII4jzfqL0iUfA4eOx4iWN5JAwqsfxB4PvKpBWLrIZ8nCXZAR0C3qEdy4bcMjQ4dhSAEGTSsoBJO3HFIIiXLDEqNhJEjcGKzCmXgyD7rwVmSlrPRiTiyVRz18WZ4pakUhGJ3u1nEih0nzDkLJjU6jc65vOAzwmCNdADXMBNz2Nns6RtoU8LwduUqsZ7dU3YpCFbT16QJfhoBoTFZsmKTAmy48Zx5XrQhECh77l0E+x5ufrtiNxLsakZoubA7Bd/5SgF1YgU+um78VnStpCH3SfIAAiy43QfSSVAk/7+i40E0WDpgRN/D1wPQtOCkOjMm2mPwJD059n2Z2do79OclrkkFjncfczdd1533W5Ns/m93f4fQhDr64ko8iDQWFaXo819gsB+GXS0A0GQmBxVlj5ac55vnFPkc1Vt5PxjNQMT57g8o90+6FMNUxtlIAhJl4NAkIN9fHzM5Z4uSUVmJ/yNvE7Z3852innVJxuaMQffp4+npqb2Fb6gApNeAVdX1z7/gcyY8f+wnpscBPHcYvPpc+Snz5FeXvZoNSOuRm3dzc9folrb7hgYqqP3YWFcK/DbsbnN7aQaMel2KOHUGfzipXOYLPkglx9CkKwHPcjDap5KSYVqIq/nDtBnAAgirlfTN+juVFdPpbpOtfobBNm0GUEqfv49EGTP3rnKQBDsCbgXLgII0r33RwZBSIl8on8gQdxAkr4m2dr3EJNBfsoQggxLNoSx44gqPBIUgqxaPE9hI/01zE+/2QkhCHmC/+1BCDJpWcCknbhiEMTz2JkMUfPVxAzUWe0dCULQop2N4mWKW37zD0X8WwYrRdCQIWredOQ0nkylGXCvJmZkiFpkV7Pbhq1g/4tf+pMMUfPtx/moZTyZuuv8tSxJ643Uh+Dm3efFGaLmY0ERSEAHjXk0MPxeXZMsyUjzuoPHwNaSq0mZ4LzeLSfObzh8yj/jGaiQIWpGU5mYOLim1bxBOEjWC/cd3usOHvdLfwyypS7ctB30FfasKFPSunRb9yE42FENXMZCEDyZuvbAMZC69WRIlIXr4gUbtgY/yAEEJFPcYua8cGBrQ/iUardo/q0Ut5RyV36pa1KRfdhDLRtXrP2fgiDYhtjyQBAkdsxAkMTCBcllbqkVLolF9nfuE2jIDh25a46GVp8+3szZKotXrFpz7MLak5fXnrzsuX3nlu9fa9eutYcvqMBEVOD1W/fXb90b3yxfuWohna7R5z8QVdIMrFOHQpDTZ5GcIHTG3Bcvfb50RX34GH7Tb/2SJUaHDi+QSG+BI3I7Ou8acXpOjcHageVxpwCNruK9f26thNTxuzrIDCKsI7ks+M75/ykI0p8CA0GQBjkIQhohCHKpNwRRe/87kvcEZDbBZnjtb15y9yEE6dcRZdJU7Sx1bcx16FqE/pz5Ae7v8Vy4x3NhnxXoFMI8U5ajtYGF8YiebsOkqc63kM2I8t2MGBTihd/WuzkYY0eLQpB5ZmzsfR1tdexbUOYaUB2tDS2Nmb0f9XkHQpA+ZZlgNyEEmbQsYNJOXDEIsu7AsUxJ6630J6jHqErTDsh6noHx5wlatDMRCVmSth1nr4Jqm46ezhA1Z9e3p9e+e/j6Q6a4Jbaw6jf/sCxp24PGDpA65CovM1PcgnIK0HDXed8saduVb8zFcdWGv07DzZK23atretDYmSVpTRY0ep3zzZS0Zte/TyytU9fWYXBM774oyRS3ZEnbsqVtmeKWe3VNCOAQNWMTpq7ccwjczK5vz5a2Ayqx+fhZdF7+mU+zpG02S7tTYKD3f1hATn6Rtp2L6sWQwRoAACAASURBVM52gdeiHQ24myVpzZS0Pnzdeb/hfYaoOa3mLdJ7XbOe1fwfGhzyCpom1jprdznF5tjdzibQWKj9UYQgJF0j59gcy/M9yVwodgsVyAmCzmXgSBBXXgllPnKYkb7nQdekIs7ens8dtYAnU/8F5gSZtOsjnHhfCgA3rFaM7FjR0OwjJ8g//dPf5Tw3Gn1ube2NL13R6zdYgUeGRuolpZe+dEX/8Y+YP/+M/8efsV+6oj7+HvHpcySMBJFTb2K8ZeuoLPeYc9Mf39RGKi7r2d7y12lBowhBFi1GtsOkpPdEgvicwbe8V3w7jKtbD9+50BcEATlZE/mEpnY1v4Cefgf5KU86CFLz7E7geS9JTvjbopiKh0FHd3tw9ClyzieTpup3ZntLWXyHgNch4NXnRa5Y2LMlhKaFj7x5QPQyzMSQjm147dRWSU64qRFy04Ct+bogWpIT7mrHSb/r01gQfevsDpoWns1Q8zuzvakk7n0lYvl9JU/08u5PhVq4OXDflMUf270C7ZpOIaxdarPI0QS9QyXj4wN+q3l2h6PXPTUmTfWGz9bm0jgwI2luxBLnnkwf80xZHQLey2TfNUttXiX71udFblvrjEIQKxMWavnUvtVtFYk717uid1xsjQru3XxfmYRMR5BU9eT2Mldz9CkoWBhrXzq6Ufg4pCE/KjPyzLpl83PTrsNIEDmVhumttSFpiyuZRfsOew1TX3JmIQTp6wsPvDeRFVAMglD0DB1XbcBuSMGTqVp6hgbWdljvkWbAtfdYo87sPjoET6bOW7Q8IPPZvbqmyJzy1d6/kXUMVKnaXud8A7NfOsi2rrDNrJxWb0RPzAXWtHQM7D3W0gyMUeOGNvYXYlLSa94lFNd4nfNlmljgydRVew+FPMxdtaf7rBN1bfbK3YduP8q78zh/6bbdVH1OZE55hqh568nvEkwYzLM7F8VLr3mXVC4+ERJl8P3OFG1jcyu3niwn6AB+WNBg6tguW0XRM8TWtF7sfjPt0b26prSat6dCYw3m2aZVv02tek3RN8JWG76yqo6hKtsAa9/yXKhT1AtVJrIbBVyjCEEIdJZdSJZzXJ72EmQfE0mPY+OXPJwQpJjmuBRPphKojPn+KS7x+WRLR1QHtKCirvlP//TP2J+7cTN/AU9hYtSJvDjCufWjABaCUKgqc+ZMwf7r+Pvf/67e63QYClVlvi3TY4UpndFzEAaTRdi7z7m6+vrnL1Ft7aF3QreuXmP+6VPUm7dBunqkQfqEsNpYVoBKV3FbNMfJ+bv9L2WVpIa33+V8sbBCEqOWVJDAiTDYGYGcINjtMNin2LJikSBGHJX6N6TGdyRwJq7HyrlVdSRltsNs/ZYBhEJViYpFIkE8t/aRE4RrrCJuUH3TTHJb2ANNsNPprzzpIAigAO0VSe+KYzqFCIl4UxhtadITwsCgEB/FXwTVxDnhDflRHQLeu+LY+RY6wMejUwiVj4I7hXx3Nwus1yd+efdjdfLRXR5UMt7UkNZcGtdSFt9emdgp5DfmR/md2c5mqOWn3+gQ8DqF/DdFMbUvQt8WxchQSJKNebdxrME+y5tXOXYK+YUZfto0VVDhrq93p5DfXpHoYG0I7pggvce3liUAIsOgEJ/zroDJymYU2SHgNZfE2VrqgfpLXczAHMGsRS/v7ljn0huC7FzvCka7fZ0LaLjQ0bi9IlGGPxCJUG0XYoJKvDa4tlcgiKRTyP9QxQd1ADSBOUGAjMP3X20qvsDXsC6IG7Knh2QNX3dyliEE6ec7D7w9YRVQDIKg/uHYLFjI8o+EPS+i6nPQEepb2aZWvc4QNctlQkUrjEqBrKNP0f0OlAzrMKyvJ7jySxhuq4h0NpHOUudYIgfB3HlApPdEguDJ1Pn+KU7RL9U5FkQGm8hgo3lDQGJUbE4QudESaEyZZbY6x8IlPt/89G0CnQX6AjUtZUfk9pcTBEFp1s5OsTkL+GULUsoXplZw951X4IhcdFQ/igTphiB4MlXTbL5TXJ5tUAbhW84a1AgoTJs95/9NmYqbOWuOhhb6CEKQCbsywon1r4AcBKFQVbQos2f98l9Tpv6fX2fj+nPeBnnf2IQMs6IOUqtxUU1UT2rvVNvhNZeto8LWUdnoOfdNM6lc+F0kiJ6+SrWIJKon2djO0dFFjoBB84b8EIKw2IhZto7K0uWyxKiRRPCWxUbICzgiV9z/dhgKVeXgYfy7VrX3H9U7ZYf1xiYgJ+YqnBi1tELVbdEcto7KDi9kpm+aSfNtuzEHNjEqhaqyZSuSfKSgWJWl8x0kGvhjnUQQxNHaoE3msUtzI+aZsvTZmuZcxkv+1U4h/1HcBdR/C72y90MV/01BtIebpY62uh5LIyPizIcqfk7KNVCHTiHUPg/tFPDcF3wHQUQv736sSj57aC2VjJ9vodNantAh4DXkR7k5GOsyNahk/Pa1Lh+rkptK4ta72+mxNNkMNX2WZkmW/8eq5KALu9ABDFywNGa2VyQ1FceCKA+uPqVJRh86hXz/sztA231bF3cK+aXZ/uAM2uCLuzoEvNeF3TPSZ2veCz/dKeQXpN+gy46/3eBhB9hESZa/iSFdR1uNSsbLQZBjuz3eVyZ9qEq+emIz6EWfrSnJCQchJGYcuj5b09qMnZd244OQX/30NlPGaJa6mLVVIBjoVYqv50oHOyu925f2ACYCE6MO/EEPyVO6Fj7luG5jmMmRlVQFDOoxCJW3OJH7FQQoEIL0/7UHPpmYCkxICEIz4CbL8o/cfV5sZNv92/6Z8ASQhFXPcrj2nuha2Fi4LtbARL6g3vIYKZDNbZ1ic12Til3i853j8lyTilx5CBORGx7VYbFrUjHyFLmK0eNafghBLE6HOMflOcflOsflIl0gvSBl5PwXWbDJDyEIEgCiy2G4rtBeuJpsaa9haj18iVFdeT0QBE+mGu484ZJYaOR1Uk6NAd5CCDIxl0U4qwEV6A1BBnbb4NPJrMCW7XOb2tRa3qu9ayW9ayW1vFdrblfb/C04AlXm9Dl8WydS7a/jVNo61ZKSCeDYlB9CkNIKxCy4mtq6e3nXSqqVIOe/DAaCUKgqdg5zNm2e67llruuCOXu8FU+M+q5VLT6J2Nap1vT/s3ffUU1ljb/wn+f+7vO771p3rXvff16DzjiOgQQIENJJAqQAIig27L333sc+9j72Lk2xADZIxFFHR0fHXhGB0IQAzljooIAz8k5y8BBCC0hI+7rOmnU42WefvT+HZLK/nLNPoeZykoISxqq1tZc+6YUgHC718jXHd4WMPftbcFOMDYUgAT7894nnS1UK3ak6evmLS1RxbxPOenpocooAH/67xHOFybFDg2snyBDyGK+fRJenXxw7RHNTDI/lqH54uig5blBvme7AMuHakbI05cEtc9lMWt8eXoXayx82LBlPllmzaExpqiLz3gm5V+2IdPPyie9enIvcu5Tj3ujsJGQNbCZNwHHOuHO8RKUg7kkZPci/OEVBXI5xX7mXw6Rx3OnPrh4uS1NuWTGJzaT5y3gFL88XJsWO1olsPD3c8h5HFSXHBff0ZjNps7VXl5So4nTvqfHgOmfdP1mcEhfoK9i1bjpxDci+jbPJxqxbPI64yEUidic3ctzpeY81V5r0D9JclnL51OYSleKuYg9HZ16V8J2LylI1l4SsxNNhzHtuVE8ePfWo7MyKOpPCkOe62RWEIE1+82mLFzu0RSWoo+0ErDIEoTHZPYePUabkaqYgySnaEaM8fvvJL9n5v2TnL98X2sSY1pCXlu49ciOv+Pa7j7+/r/j9faXu8tub8pt/lF1TF7bbI28NabBeGTrHQzBqunjyIvHkRcKxcxheX55W++V2GKI807+PaNJCohh34FhiI53NE46fK9Deq6JXLfEjb/B4Yhe9/4omzieeqssbOlE0cQGdXfskWv7wKaIJNa/Wr9PNV/N0mBYFE7qV0Lke4smLOP2G624k1l19e4qnLGZ4+5Ev0bkeookLRBPmO3JrnhZEvtTYCkKQtvsoQk0WI4AQhBy6Y8UQgYBA6rIVtDXrNMvylbSeQQ3fADJxssPqtTXFpk6ryQ4kUurqdbT6oQl53B+W1uxC1E/+d/kqGl9A5fKoPyx1WPGjZp3YhcenLlvhsGxF7RayKmLlhyUO+UWMg4drHumi92oTPyriNYlGv/724ybYr15LW7WGpnery6TJ9qvX0QICa7svk2t6t3xlC45lcyFIiUoxQDs+J4dwfz6LKUyO9fHWBBOblk0sUSmuRm0lXyVWju9ZUpqq3LdBEwHUhiB96oQgv57ZXpqqPLb7BzIEKU6J053vI8BXkJ+omWekKDn2TtyeRdOHDOwt5TBpXkI3bt2ZSvWOrvdj1MEVJSrFuZDVbCbt9IEVpSrFb+d2FiXH/vE0hsui+8v5BUkX8l+el2qzia0rJpWlKX8985NuDMFm0s4cWVWWpiRCDSIEyX95nkAgDkeEIIXJsTfO/lSquZlFcWr/ct2W3Dy7o0SluHF2x4zxfaeN7TNuWCCxJN8M+6ePcyYPYDNpuY80gciU0b11d/T0cH3/4lypSjF5VC/d7VhvQ4FAidOsgcyZ2mXWIGZ3r5qbp4hDcN1pU4LdxvV2++ccTejjOnMgc2RPV86XRIbjTpvUz23mQOa8Ie5pIbJfNnuS9Qz011wlZOCCEMRivoWhoW0kYK0hCI3J5su77Ym9cj23ZrrTq1n5439Y6cjmNTagNXD7gEnTT95JOPTzb6uPnli+L0RvWbYvZMTsRY4sroG1oVjTApL56wdeeCoYM6vpYqZ6FSFIG30OoRpLEkAI0sRIGC9ZtACXR710xfF9EWPpihYEE0SXiRBE9xG5xqCwuRCkKDlWbwKOtwlnyRDkyqnNZWnKRTOG6A3zVswdWZqqPH1AkwI0FoKcPbKqrF4IojdLaICv4EH8/pIURal2ytWytIvqh6d0gxK94zb449QxvUtUCtWtCAHbKfXWsRKVYvH0If/MZlqcEtevp/cPM4aWqBSPLx8kUo9bF3aVpV1cPEP/OTVbV0wuS1OeObyKvBLk3Ytz5ESqbCaNCEGI22QKkmKLU+Ky7p8Uf3k0DNed/uLaUeLVBv87aVSQkM8g7gkK8te/lCD1VoQ2BAlqsIPY+PUCC4a5Z4TK0rVLVrh89iCmbp0eHPrT/dJft3hdXCfOCpe/CpNnhct/3iDmsTQBh4BNe7RXkh2h2ZgZplmyIzRLzjGfw/Nb8DwjhCCW9EUMbW0LASsOQYiBsWdA0PDZC0fMWcSXdzPVUBnHbZFA75BLg5WJg5UvBl98OVjxIuhIvCPP0EszWnSgry+MEKQtPoRQh4UJIAQxxuAWdZpKQCKj/vGOUfrBRbN81DzH98FjR6G4BfN0EC1XxmvSE4QgDXyc7ZzqnhkmywyTHZ7XgiFZgK+AmC40UGcaVDaTphuC3Dq/qzw9fua4frojRjaTtv4Hza0fIT8tYDNpXJZj9oNTxSlxQ/rW3jLDZtJCti8oTVWe3L+MzaT17CYseHmhOCVOLwQhMhQfb862lVOuRW/LTzxfnn6xLE15YFPtbSZ6h67/o/YOlwuFSbH9gyRFybF/Po2RiJi/x+4qT7+4efkkxbH1pamKw1vnETs+unSgNFU5fngPvXp2rplelnYxVDsXyeRRQSUqRWMhSNb9k/17eif9GlKiUvz04zSiHi6LnnxDc8XHi+tH7yn3pv9+LP1OpHY5flexd/uqKRwmzcebXZQcW5QcG6DzfBli99TbESUqxeyJ/fVahR/bSoDPonnx6V58+qS+bg2HIPukCQcle2fxvQV0iYfjqWXCrHD5ouE1dzZ58eneAke50DE1RHZmpdBb4EgsQm4LnjKDEKSBDy9ssmoBqw9Bvn6gixraWYA7YLRg+BRi0Ty9hfW1F+8Yr/0IQaz60xGda1gAIYiphus4rjEE+ALqzNkOc+fXLJMmO9R/SI0hxx01WlODt6TF6YkhlZNlbOhKELHA5c2zMwVJF3Sf+Sr3ZhcmxRYmxRLzdMRHbixLU65eqHnCi+7y27kd5ekXF0/XXCHCZdGTboSWpComjaxzIcMvUdtKVIq4iHUcd5qflPs+8Vz9EMRfxiMmHyErP757iWbW0qcxetvJAg2uvPw1pCzt4pkjP5aoFPeUe3ksxy3a214eXNyX8+h0cUrcyIE1T8D9NWZ7WdpF3alJ2Np5Q+4r95WmKonnvIzQPB0mrsEQpDA5tpuMx2bSpozuVZwSV/DyQu8AMdGkq1FbSlSKsJ36U7r29BcO+nKjUO7j0yUqfSg2k0aEIGsWjmmwd9jYhgLjerk2FoI83SchQw2ZJu+QX/ixzlOKMCdIw99ZsBUCjQggBDHeCBk1W70AQpBGPlew2ZoFEIKQI1IWm8pmG3fQq3ssrEPAhkIQbxHzbcJZ/RDEk1WYFPvnsxih9pEoS2cPL1Epkm6EenCdyYHo1NG9ylKV7xPPETOActw1832WqhS7180gywzoJSVmJ9ULQUZ8CSPYTNqQfvKSVM1tLLozgPQJEBMPrNWdLZWstrGVmMOr/okwSlIUZWkXt67UPI8myF9UnBJXqL1vJefRaS8PzXQPbCbth5lDS1OVqlvhoi93srCZtNGD/YuSY988P0MUI0KQt1+eOEPsyOc4pf9+XDsxqubhIBx3elzEutJU5YvrR/lszQQThFXek2jdm2j8pNw3z8+UqhS9u2uykksnNhGPj+FpdyFq7h8kKUjSPFh319rpjXUQ29tKoNEQZL/0+hYvch4QMZeedFimWFOTcBFHRwhizd+80DcjCCAEsfqBOjpoPAGEIEb4TEKV5i6AEARDcQiYSsCGQhCxwPXNc/0rQfoEepalKf94GuPB06QeQh4jXfvsld/O7ejZTegn5S6YOkjzTJlUxX6dB6Msmz28PP1i7qPTxOSjY4cGvH4STUyNoRuCFCRd0J1/pIefR8HLC6Wpyjtxu4N7ent5uPbw87geo7l+JOW3cN3YpdkB8JJZwzQhiEqRn3ieyCAEHKeUm+FEG347t4OcBtXTw5V4msyduN29u4v9JJxZE4O1zVAQd/ewmTQiBFE/PO35JTrR3LbDdky6EVqcEkd2wYPrnKN9Ju6edTPZTJpY4ELUnHQjdEAvSYCPYMyQAPUDzUNzVbcihDzNDJoDeknztXpx4Wt9vNneQrfxw3u8eX6GaOeBTXOa7SkKfKUAQhBz/waE9lmRAEIQ442QUbPVCyAEsaLPQnTFUAGEIKYaAOO4ELCpEMTlzfMzRclxAT4CcmDZs5uw4tWlzHuR5Jah/XzeJpwtS1UQD4UtVSk+ZMTfOPOTgFP7fA0e2/HljdB/ZrUoTI59r33gy4f0+HcJ50pUCoX2dhi5F+v9i3NvEs56CWuuyCDqnz0xuDgljsgvilLiSlSaGVJLVYqJI3qSDTBkJcBH8M9TcsvSlGe1z4ghdtmzfmZ5+sXy9It6tQ3sLX2XcI54Kq326Iry9PgbZ3/y0OYU2qhCUpqqTLoZymM7kkfnsuiJ10PK0pS605rMGNe3VKV4/+KczIulvbZFY0UkGsUpitJUZVmqMuPO8QCdWVeWzRlelqosVSmKU+KKtI8NJq5hKal7KQ15XKy0rQBCEEO/iaAcBL5aACGI1Q/U0UHjCSAE+epPIFRgeQIIQTAUh4CpBGwoBGEzaRuXTti8fJLeIHP80EA/KVd3o5fQLT5yQ97jqD+fn3n+y+H1S8brvkqsy73Yty/sev/iXGFybOqtiO2rpgzt55Pz8NT2VVOJAhuXTlg2Z0T9HQN8BNeitxIzd7x7ce5h/H5y/o76hZvYsmj64IhdP+heP8Jxp29eNrHBZ81oe7Qx93HU2+dnn/9yZNOyibo189lOYTsXDuvvq7vxn5k7hgX7Ht46j6+T/nDcafs2zjqybT5ZUu7Fvnl2x/sXmglQ1A9ORR1crtskotjYIQGPfj5Y8PJ8cUpc3uOo6MMr4yLWaaZxrdsMsk6stKEAQhDL+06EFlusAEIQ442QUbPVCxgegixZsuTt27eBgYEW+1GBhtucQOfOnZVKZVJSkqOjo27nEYKYagCM40LAtkKQFo0txQJXLw833Ysj9HbnuNO9hG4SEZMc9uvOu6FXWO9HscBFImJ6Cd105wfRK9PmPzbbo9YdkcOkEQ5NdJ/HcvQWMSVid7HAlc2kifguE4b3IOYWad1BsZeBAqN6aiZGnda/zhVJxCNym50TRMihJR2WXt1YZ6IQA4/LZtLwdBjdLzpYtwUBhCBWP1BHB40nYGAIwuPxSkpKqqurT506ZQufKuijdQjMmDHjb+2/UaNG6fYIIQiG4hAwlQBCkDpPgTF8gNfOJYn8op0PisNZqACHSbuzwyvxkDTxkDTpsDQzTJ50WLP+8pBUsVbEYdIMDEHYTNqJpR6vwuXZET7ZET7qYz5zBtc8Q9cQGYQgul90sG4LAghBjDdCRs1WL9B0CCKVSjdt2qRUKisrK6urqz9//rxp0yZb+FRp1z52aNejWf3B7OzsJkyYsGXLlufPn1dr/3369CkgIEC34whBTDUAxnEhgBDEXEIQDpN2IWztn8/O5CfH1l+KUuKKU+KuRW8zZPCJMjYuwGHSIhZ5nFklOrOyznJ2pWjPLD6bSeOzaRGLPfbN1qwTiweHdnKpcPs0zeOQdRcei7ZqLJuo5+wq0ciemgt5DFwQguh+0cG6LQggBLH6gTo6aDyBpkOQlJQUYhj5+fPnv/766/Pnz9OmTbOFTxX00XIF6HR6RUUF8XtLXAby4cMHLper2yOEIBiKQ8BUAghBDB3RGTjwa3Uxjjv95tkdr59EZ9yNfHrlUIPLnvWax7JggYBFCCAE0f2ig3VbECBDEDqLZ7yxImqGgFUK8IZPI95B3n7+0rr/+Hy+WCzevn37hg0bBAJBdnb233//7evra9inCi5vMMwJpYwgMH78+B07dsybNy8wMLCysrKkpOT777/XPQ5CEFMNgHHcrxdgs6lfX4kJa0AIYkaZApdF9xS4CnkMLsuxoYVuEUNfNBIChABCEN0vOli3BQEyBKEhBGGyrXKgjk4ZT6DpK0HIDxAHB4e3b99++vRJIpGQG7ECATMX6NOnz6dPn969e/fdd9/pNhUhiAnHwDi0jQsgBDGjEASDZwhYkwBCEN0vOli3BQEyBKGz+cYbK6JmCFilAG/E9JorQeS+dS8EkfL5fPIDxMnJqaio6OPHjx4eHuRGrEDAzAWGDRv2999/Z2dnd+7cWbepCEFsfByO7ptQACEIQhAIQMAoAghBdL/oYN0WBGpDEK7QKoep6BQEjCfAGzWTeAfpJSBSacMhiEAgsIVPFfTROgSGDx/+999/Z2VlIQQx4aAXh4aArgBCEKMM/6zp7/noCwRaJ4AQxDq+uqEXhguQIYiTUGK8sSJqhoD1CdC5HuTbp+kQxNXV9cOHD2VlZWw22/D3JkpCwLQCU6ZM+fz5c0JCwjfffKPbElwJojsoxToE2lMAIQhCEAhAwCgCCEF0v+hg3RYEmH2GEwM5t4Bg6xumokcQMJ6As7cfQhBb+JC02T4SIciLFy8QgrTnKBfHgkATAghBjDL8a91fzrEXBKxJACGIzX7bs9mOd3XnkQM54w0XUTMErE+AN3IG8d4RDBpn4JUgLBbLZj9q0HGLE5g2bdrnz5+fP3+OEKSJQSlegkB7CiAEQQgCAQgYRQAhiMV9S0ODv1ag0zfkvAZuPQZY30gVPYKAMQRcu/Um00OvboFNhyAsFuvTp0+FhYVOTk5f+4bF/hBoL4EFCxZ8/vz5t99+69ixo+4xcTtMew56cSwI6AogBDHK8M+a/p6PvkCgdQIIQXS/6GDdRgRcAgeQwzmGpJsxRoyoEwLWJOAsqb0Rhj9iWv0ERG9iVIQgNvJZamXdRAiiO/jEurkJsNlUc2tSO7QHIQhCEAhAwCgCCEGs7DscumOIQAcKhTuy5kmf/NGzOEMmOnl4W9OQFX2BQFsJ0HkizuAJZGjIHz3Ly9cfIYghnzMoY3ECzYYgQhEVCwQg0J4CCEGMMvxr3V/OsRcErEkAIYjFfUtDg9tEwK7zd5zhU3WHdsQ6d9hk9sBxWCBg4wLcoZPqvzv4o2Z6BgU3mIBIpVIej0e+N3ElCEmBFQsSaDYE6R5AwwIBCLSnAEIQhCAQgIBRBBCCWND3MzS1jQU6dmL1H9PASG/0LGyEAATqC3h1C2gsAdELQVxdXcvLy7Ozs6lUahu/bVEdBIwmMGXKlL///js6OtrOzk73IMQwLDObwRdQsUAAAu0pgBDEKMM/S/17vjs0INBmAghBdL/oYN0GBTp1obr1GdbgVSH1B4HYAgGbExg1UzBskrhnoxeAkLEInU7X/QCh0+ldu3bV3YJ1CJi5gJ2dnYuLi96jYSgUChmCtMMMCDgEBCCgK4AQpM2GfJYafDAhAAGjCCAEMfPvZGheuwl0+p76Lc3ZMyBIHBQs7tUfCwRsVyAo2DOwt5d/oLefv4QMOZpb0fvjebu9c3EgCBhbACGI7qAU6xBoTwGEIEYZ/iEQgQAEEIIY+8sT6rcsAU9Pz+bGengdAhBoQMCy3uloLQQMF9AOwxiZ2Yz2HPvhWBCAAItNRQiCEAQCEDCKAEIQw78GoaQtCHz33XcNDO+wCQIQaFJA714YW/isQB9tRwBXgmA0DgFTCSAEMcrwD1cBWIMAZkj5ululEILYztc49NRAAS6X2+RwDy9CAAJ1BMRisYFvLhSDgCUKIAQx1QAYx4UAQhCEIBCAgFEEEIJY4hcytNnYAh4eHnUGefgBAhBoREAikRj7/Yj6IWBaAYQgGIpDwFQCCEGMMvyzhusgvu4qAAhAACGIab9a4ehmK+Di4uLt7d3IuA+bIQABjQCLxTLbtzAaBoG2EkAIYqoBMI4LAYQgCEEgAAGjCJgwBOnQVl9PUI/tCLTvL02HDh26dOlCp9NF14QTSQAAIABJREFUIhGGvBCAACHg5eXl5OTUpUsX2/ngQU9tXAAhCIbiEDCVgGWHIEfm87nuNCwQgIAZCozs4ZIZJssMk6WFyOp/xbfx7z3oPgQgAAEIQAACNi6AEMRUA2AcFwKWHYIcWyzoLnLCAgEImKHAjGA3hCA2/vUO3YcABCAAAQhAoDEBhCAYikPAVAKWHYKELxLIBY5YIAABMxSY0gchSGNfe7AdAhCAAAQgAAFbF0AIYqoBMI4LAcsOQQ7P42P6SQhAwDwFTDgniK1/q0L/IQABCEAAAhAwewGEIBiKQ8BUAghBjDIlpHkOStEqCLSnAEIQs//2hQZCAAIQgAAEIGAyAYQgphoA47gQQAiCEAQCEDCKAEIQk32rwoEhAAEIQMDKBNr3CVZWhme23UEIgqE4BEwlgBDEKMO/9vx7O44FAfMUQAhitt+60DAIQAACEIAABEwu0A4hiLfEpXcfQe8+Hn7d3Fs62uzRkzdkqLe3xKWxHQMCOQMGegYEctkcamNlsB0C5imAEAQhCAQgYBQBhCAm/3aFBkAAAhCAAAQgYLYCrQhBOFz7c+cXX7m6ii+gcXkOY8b6zJ4TNGmyv0jspDfUHDlKlpyyt7T0dEVldEVldHl5VJxyGZfnQBbr0ZN39tziIUO9Fy3ul5F5ML/gVG7e0a3bRnO49qPH+KSo9n78GFVRGV1Scmr5ioHkXsTK9Bk9srIPf9AW+PAxSpW6b/AQL70y+BECTQvwBdTZcx2mTXcwSYiGEMQowz/z/Ms8WgWB9hRACGK237rQMAhAAAIQgAAETC7QihBE4EEvLj7xsSJqz96JpWUnK6s0AUdlVfTHitNz5/Umx5x9+3mUlZ+qqIz+48/Qh4+23r23qaDweEVl9Jq1Q8ky+/ZNqqiMLig8/rEi6mNF1J9vwso/nK6sin74aCtR5x9/hmarj2hykNKTQb345I5r1w379NeZisroDx+jiktOEG0oLjkZ3F9ElsEKBJoVWLaC9r6I8baAMXlqbTbX7F5tVQAhCEIQCEDAKAIIQUz+7QoNgAAEIAABCEDAbAVaEYLw+LTXf4YQIcWnv2IyMw/Gxi199nxHRWV0WfmpgEAOMUS8fGVVRWX0wUNThCJHYsvEif4fPp5++GgrOYbcuGkUkV9UVEav+nGwSOQ0f0Ef4uKOisroffsnC0WOQpFj4stdlVXR4RGziB179RYUFUdWVkX/dmu9Xzd3L2/G8BHSrOzDlVXRT55tJ8qw2bg7xvoFomLo+QWu02a0Pr+YNMWhqMzlz3xGcH978tey3VYQghhl+Neef2/HsSBgngIIQcz2WxcaBgEIQAACEDBYAJOyGkzVwoKtC0Fy82pCkEOHpxIjRqHIMfPVwcqqmF27JxBbUtP2lX843TOIRw4ph4+Qln84nZt3lLxxZu26YUQIcuv2BqKYh5Cem3e0olJzMQi547ZtY/76+8yz5z8RW46GTK+ojFarj4g9nckyAwaIictJ+vUXkhuxYt0CMWfpRWWMGTNbH4KY1gchCEIQCEDAKAIIQVr4XQjFIQABCEAAAhCwIYHWhSB//BlaURn99l24ROpKDiN/vbG26lPMpUsriC1+3Vj9B4hZbCqHa9+7j8es2UFZ6sMVldF/vgnz8mYQZYgQpOzDqb79PIgtPL7Ds+c7Kqtifto5jqx5ztxef/195s3bcGJLesb+isroq7/8OHtO0PQZPSZN9p802X/MWN+CwmN//312+owe5I5YsWiBYSPs58xzmDefNmeew6gxtVdq9OxlP38Bbc482o1bjgUljP2HaPPma5cFNB/fmutfxoyznzPfQSqjjhvvMHeBw6zZDnKf2ktjNFOBzNHUTCyz5zpwebWvstjUoF728xbSgnrb9+tvP0fbgAGDahtAqPIF1KnTHObNd5g63cHTmzpzlsOsOQ48fp16mvZHCGKU4Z95/mUerYJAewogBLGh73HoKgQgAAEIQAACLRRoRQjCF9De5x+rqIx++qzm0gxipHf69PxPf5359cZa4kc2x37K1MAXibs+/XWm6lMMedtLQdFxmbwmOiFCkPSMA+RYkS+gpaj2VlZFb/tpLLlx/ES/qk8xhUWRch83Fpv67n0EMdNq/f9WfYoZO86X3BErlitwKtrxfREjv5jxrsCZWLl4yZGIGFatoRWXuxSUMN4Vapb8YkZBiWYpLncZP7HmqpDL15z+fOesvORYWMp4X6RZ/nznPHpsTZAhkVLVec7vCp3fFTi/LXDO/cNZJK4TXvy42qGwlBEVQ39fpDkEUcP2nXTS01tCTUl30mwv1jTgWaJTRpZTdh7DW1KnHrJ8gysIQdovBBFwnIQ8RnuOQtvwWHy2E8ed3nSFQh5DLHBpugxetR0BhCAt/C6E4hCAAAQgAAEI2JBAK0IQzcSoJScqKqOvXP1Rd2gXFb3g019nLl9ZRWwMD59VWRXz9+ez+YXHExJ2xsYt3blrfEnpyfohSMKLnWQ9fAEtOWVPZVX0rt3jyY2z5/T69NeZgsLj3lLNs3ILCo9XVkWnpe1PfLn79R+hxJKXF/Lo0bY1a4eRe1ndiv6VCFbXwdr4YPRYe02y8MIpsAfVW0LtHkB98tyxpNyFSDH4Aqq3VLP9zHl6YRlj7jwHb4l2i5RKXtBx+ZrT2wLnO/cde/WhSqTUvQfobwucE1Oc+IKao3h5a2rw8qYmqRoOQd4XMRJTnBYudvDypi5c7PD6rfPrtwxvac3ukSfp7woZv/zq6ONLlcmpFxSOb/KdEYK0X6jRotEsn+OUcTfybcJZqdi9RTuaQ+G5kwcUp8Sd2Le0icZ4i5jvE88Xp8T5eLObKIaXbEcAIYgNfY9DVyEAAQhAAAIQaKFA60KQktKTFZXRcYqluuPwS5dXVn2K+fnyShabKhQ5FhWfKCs/vXhxMFlGJnctKDzedAjC5Tk8fLS1siqGnAaVxabOnhv06a/a22G0KUnMtu1jyJqJlf4DRHg6jJ6Jhf64cLFDURljz35a0+1vYk6Qy9ec3hU6j59Qmxw9eOL0xzvn/gNqoxai8sZCkPxixqno2ks/omLoBSWMRT9orjTh8akJSU6v3zr/E38Qlcjk1Jw/GAhBzDoEKUqO7RPgaXHD4D3rZ5alKc8eXdVEy2WerIKXF8rT40cP7t5EMbxkOwIIQVr4XQjFIQABCEAAAhCwIYGvCUEijs8mx6hcnsP9h1uqPsWcjprPYlMnT+leWRWjzjlCFmCxqccj51RURhcVn/D1cye2r9NOjKp7JYimngdb9EKQFSsH/f33WbK2Q4enaiZGzTlCPneGxaZOmty9ojK6/MOp7gE1j6fRPTTWLUsgIJD6tsA5743z9p20yVMcggfYszn64QWLTW06BPnzvXP/gbUhSNxFx7w3zoOG1G4hTBoLQQpLGes31qYw23bQCkoYy1ZotghF1ORUp1c5zp5eNa3y9KJmZuFKEKb5hiDpd45baAjiLWKOGOAnETV1DYuI7/Lm+dkPGfFjhwTYzjgfPW1CACGIDX2PQ1chAAEIQAACEGihQCtCEL6AVlB4vKIy+phOCMIX0BJe7Kz6FLP/wGTtvJL88g+nP1ZEETN0CEWOR0OmE9OCfKyIGjLEmxh/LlnWv6Iy+lXWIXKI3uCVINqnw5xVpe4livXoyc0v0ExK8uTp9r79PIJ68Rcs7FtUHFl/mhKyWqxYnMDMOQ6pGc752hk38osZr986z1ug/xSYpkOQN3VDkMYEDAxBtjcbgmQjBDEsBOG403gsRy7LsYkhXIMvaXZkO3HrzY7BZdHJKTO47vT6ZYjbYd4nnusm49Wvmcd25LW8MWQ92iM61m8VWYDNpHE0rXLkspqZ10N3lxatIwRpEZctFEYI0sLvQigOAQhAAAIQgIANCbQiBBF40IjEYeOmkeTAUuBBT03bX/XpzI4vT3W5eu3HyqqY8g+ns7IPFRefqqyKKSk9+fDR1qpPMaVlpy/9rLlrZv7CvhWV0XmvQzyEjkRVHK79jZtr//773JEj08jKd+4a//fns48ebyO3zJvfh5wV9WNFVGVVzKe/YtIzDvh3Z5FlsGLpAkIRVSqjzp7nEHaMnvOH85t8xuC613GYKgThC6iJyU65fzpLvkwR4i2hZuUgBGkuBPHgMfaun5l8M+zN8zM5j07fvrAryF+oOyIdPci/bw9PEd9l26opv8ft/u38zuVzRgg4zgKu87I5I15cP/o+8XzWg5NrFo4mUw+J0C31VsTV01vFAtcTe5e8unci/6WmzKEtc/nsmpyFz3HKvBP5PvG8n4RDHo7jTp82tveTywdfP43Jexx148x2PymXeLWHn8ft2F0jBviRhYmVn1ZPC9m+gNwo82SdC/kx827km+dnXt2LjDm80tPDlXyVWPESup3YtzTt92Nvnp/Jun/y4vENcq+WTdvRJ9DzrmLP0tnDdWv28nCbP3XQ5ZObrkdvW7t4rMyL9eb5GVwJokvUxLpM6OgrbnEG10SFZvgSQhAb+h6HrkIAAhCAAAQg0EKBVoQgbI59WPisa9fXeEs005SSy/wFfS79vFKinbtUO2+CQ1T0wnfvIz5WRhUUHr9zd1NgD65U5pr4ctebt+EHD01hsalSmesv11YfOKhZJxdfP+bGjSN0b3Xx7ca69PPKCRP9yTIsNnXgIM+EFzvLyk9/+Bj1x5+hJ07O5XD173TQLY91CxIQiTXxBznLKYtNXbeBVljKmDWnzsUgRAgyfWadjUQ3L19zMt6VICw2Nf6K47tCxr4DNA6XyuZQV66mvSvEnCDNhSDPrh4uTVWWqBTFKXElKkWJSpH/8vzA3lJiDOkn5Ra8vPA+8ZzqVkRZqrI4Ja44Ja4sTXk9ZtvD+P1laZothcmxxL7k5Bd9Az0Lk2LTfj+W8ltYqXavIu2OpanKuPC1RM0CrvPrJ9G6IQjHnX5i79IybWOI8iUqRebdSC9tirFk1rDSVIXy2Hrdwe3w/r6lqcr3ieeJpKN/kOT105hSbS+IJpWqFBl3j3uLmOReAT6CrPsn9Lr8+kl0oJ8HWabZlZ1rppemKn+P3UWWnDa27+sn0WVpGskSlaIsVfnnsxhiThDcDkMqNbYi83BMPiLNDJMN8jf904I47jQPDk3IoRMLx73mhjIPDk3A+aqbyxCCtPC7EIpDAAIQgAAEIGBDAq0IQVo0lhZ7OkmkLp5ezuScDjw+TSR2alEljRXm8hy8JS7eEhehqG0qbOxA2N7OAnv20d4XuezZr4kYWGwql089d4GeX8yYMq1O3nHoqGay0jXra2fuINtpeAiSmOKc84ezUFQbw7HYVOIRubpzgujeDsNiU3v3tc97o7lb5/Vbxus3jKxc56wcPCK38RCEy6L/fHJTaaqy4OWFpbOGBQd5TxjeQ3UrojRVkXX/hIf24bUSEfNtwlliYP/0yqGg7qKh/Xz++BI0pP1+fGg/H0+B68l9S8vSLj7++QAxyvWTcN69OEfslXX/xOjB3QN8BPMmDyxKji1Pvzh7Yn82k1Y/BFk5b2SJSlGUHLvuh/E9unkEdRe9/DW0NFURH7mRzaQN6ScvStYEK+T1Jhx3+rWoraWpisNb52kq5Dil3zleolJk3Dk+bmhgcE/vpbOHv004W5qqvHh8A9Ewrjv9yeWDJSpF7qPT08f2Ce7pPWfSgNxHUSUqxV3FnqZvn9EdwO9ZP6s0VXktejuxceTAbkUpsSUqxav7J7aumLRq3si028eI7penW/+cIKODXH/d6jWqp/4VN7piTa/7ihzTQmSvwuUjepj4icJCLv36Fk/1MZ+8SN+8SN8/TvgOC9Q0ietOUx2RXd/i1XRHmn4VIYgNfY9DVyEAAQhAAAIQaKGAsUMQclCKFQgYLtC7r/2rHOf3RYx3hc6v3zi/K2RoHlib7OQtqRNVDBpi/8c7TbGCEs3yNp/h372mQNMhyOy5Dn9oHnmrWd7kO78tYLx+o1l/m++8ao0mUmk2BGGxqXJf6tkLjtd/czoX59h/oH0GJkZtYlQW3NO7IOlCSUrcGJ2ZO8UCl8x7kWWpysmjgthMmojv8uezGE02kRLXP0hC1Hb2yCrNlRQpcf16ehNb/GW8ouS4wqRYufZxsH7SmhCkVKUY3r/2BpYDm+aUqBQ/n9hUPwQR8hh/PospS1WumDeSbHOgr+BdwrmCpAt9Ajw9uM7qh6cKtetEgaBuwvzE828SzhK3zKxbPK4s7eLb52dknrXzlQ4L9ilMuvDm+Vnihpd5kweWp8drZmMNrH0kTc9uwrcJZzVH0dlItqHBFSIEuR5TE4Lcv7ivRKW4fWGXUJscsZk0Psfp+S9HSlSK8vR4Xd4Ga7P0jVODmVnh8qnBtZfbtKJHgRKn3jLnVuzYtrvsmcnLjpAvH8XqLXcmFg+OZtYYrjst8aD0yqbaX5tWHBchSAu/C6E4BCAAAQhAAAI2JIAQxPCROUq2p4BERj10lKaId7x4ySnuotPufTSxZ50EhGjMyNH2Z2M1ZbTFHKVfnlm7ay9dEe8U2KOBXVhs6qgx9vE/a3bRWy5ddpo6XXNT1ZSpDpcuO82YVXuD1dz5mi0TJ9du0dUgng7zKsfZy7vhI+oWJteJd98rtUtwsJe07j9DPoP+ZUihNi+zc6p7ZpgsM0x2eB7f8LHZ9lVTSlSKF9dD/KRcPylX7sUmlkuRG0tTFbvWztANQY7v+YGsec3isR8y4hN/DSG3sJk09cNTH9Ljh/bzYTNpZAhy68JO3TKjB/sXp8Sl3j5WPwRZs2jsh/T4h/H7dctz3GuuVVk5b+SX6z6UP8wcSpTZtXZ6aaoiLnwdMcvp73G7S1SK8J2L/KRcXwmH7E7W/ZP/XB4ycmC3f4ayimPrS1SK+OMbtGVqu5x4PeSf22pmjOure/Qm1okQ5NczmhCkuw+/KDm2LO0icQhyr9kT+5enXyxLU/Y1OFsh9zWrFQGb5it27Obp5OfpJBHUTtvBdad183Tq5uk0b4h7Vrh8zmB34sdunk4Cds1tI0IuvZunE9edJtau+Imd+F9eIvooE2pqJhY/Tyfy3hPiVeIQYh6d607z07bBk9fARLYSgaYSH5Ejx50m9dCs69VjuGfoQkF6iKz+7CQNhiDe2uOKuA00ic2kMV3s3VyouodGCNLmH32oEAIQgAAEIAABqxFACEKOSLECgVYL9Opt//oN46XKSShGCNLQTTFnjqwipgIpTa2ZCiT/5fn8l+cLkzR3duxZP1M3BBnw5TIQNpO2Ycn4Dxnxz64c0h3gqW5FlKdfnDRSc/0IGYL8MKMmsCBKBvgK3ieez3sc5enhqns7jCbsOKG5MWfBtMG6dbKZtJ1rppWnXTyybT6bSVs5b9SH9PjfY3cTZVK1R5w4QnNEHssx7XYE2Z2i5DiiL/kvzxcla+Y6GTXIn+NOf/zzAbJMcYpumdgSlXLWhGC9ozf246alE8rSlI9/PvhP+jNuWODHjPg3z8+Q9+kQe/nLeMUpcaWpSr2JZhur0zy39+/GeLxX8ipMrj7mkx3hk3JEtnVqzVS13bycsiN81BE+WRHyjDB5Vrhcrf0x57jPyC+3xswf6p5z3GdSX7dn+6XZET5Z4fI7O7x9dCZAvbRerD7mQyyZYXKZR23IovlFEjtmR/ism8D5eYM4K1yeHeHz4qB0cr86l5ysm8BOOSLLjvDJDJOfWyU6/6Mo55iPXFinnmZtue40AZvGZ9PCNCGIvLuXJschFo72vVM/BBFy6Y/2eKcelfl7OunV7+ZC/V///Z9/af/9j//x7y6dKUQBhCBW8y0NHYEABCAAAQhAoM0FEIK0etyLHW1cYP8helaO8yu186sczZNrCksZGzY1MDtJE0o2dCXI5ZObS1SKwqQL7xPPFybHFiXHEUt+4vknPx8kpholbocpSLoQ6Fs7b+jm5RO1Ichh3bHfq7uR5ekXp4zqpRuCkBOsEiX9pNx3L869fhLjLWISIci7F+d8JRwuy/FO3O5SlXL8sEDdOtlM2k+rp5WlXdy/cTabSZOImPmJ54uSY7v78EcN8i9Pu5j94BRRnsdyVD88RczqSpT50p3Yt4nnow6u4LLoXHd68o2wElVcwcsL2nCE7HLs+5fnfz6xic/RH83qNYb8ccXckWVpyifaEGSO5oqP+My7keSrxIqvhFOknUTW8Lts9Gow+Y98Fu3RHu+Xh6ST+rr192MM7MaIWyPKPe47JEAzTQafRRvk7zLY32X1OM6rcPnqcezB2h8H+7uIv1yvMW+Ie2aY/NZ2zynBmhrWTeRkhMp/3+HFY9VcKtJT6tzfjxHsy7iwWpQWKtMLQXzFjukhsssbxPtm8/v7MaYPYKYckaWGyMmMI9iPkRkm/yemGR3kOqAb49Qyj8RD0ldhtQUMNDwwh5+jzWJehcszNYmPPOeYT84xn9xIn6HazuqFIBymJi55FS6f2NdN7xDubg5E/KH7387fdGAzaQhB2vzbEiqEAAQgAAEIQMBqBBCCNDFGxUsQaEJgwybab7873bytWa5cc5wxq86krU3sSL5kQyHIwc1zS1SKS5EbhTyGr4TTTcYjFrHAlc+uiQMaDEEWzxjyMfOS3rA/6/6JDxnxxAwgNVeCpCr0psMYOzSwOCUu485xjjudCEHynkR5Cd247vQbZ3dobkgZ3093SMlxp/+infp09pdrNK6e3lqWpty9buaRbfPL0pQhPy0kynNZ9KdXDpWqFItnDBULXLvJuERf/KRcDx6Dp30uL8ed/uuZ7SUqxa6100V8Fz9pbRkR34Uoo3v0JtZXzKsNQQb3kZWnXSxKjvPVzodC7kWEIBb9iFwfkWNmuE/oQgHZKQ8Ora+Ps+5NMWwmrYk5QeYNcVdH+MwdUjtLS+hCQUaY3N9LP286udQjvZEQRLlORDZg3lD37Aj5lOCa6OHAHH5mmHxAt9pnytzc5tWKEMRP7BTsxwj2Y0QtF6aHykYFuRI/BvsxhNq7XfRCkCnBblnh8sPz+cR1ImTz2Eza//0//1s3/iDW//3vf7PcHBCCWM23NHQEAhCAAAQgAIE2F0AIQo5IsWIJAg1PyWEJLW/gNhkbCkEmjwoqTol7l3C2m4xHjuK4LPrvF3aVpiqJGS4aDEEWTB30MePSq3t1rn3489mZ8rSLQ/rWmRPkatRWsuZ/blpRHttQolLEHFrJZtI8uM6vn0YTt8ZobntZrbnt5ffY3bqPaOkTIH6feO594vkAn5px+PSxfUpUij+exvzxLKZYFTdigGamD2IJ+WnBPxNwPLt6mMuqnaPBT8rNfRylfniKeEoucRtLxt3jAk7tHJxigWva7WNvnp8J8K0d7ZPVNriiG4KwmbTs+yfL0pQHNmkuVyGXcUMDy9KUFZnxht9lQ+5rJisCNu3pPsnzA5LB/i5yoaNQO0Vo/bY1HYJkhct7SGojj1mD3F+F+/SR18YWRIWNhSAZofK14znkQXtInLLC5fOH1qQqkT946N1Ec2aFsBUhCFm/Zk6QULmfuLbBxEtECHJ1s6ePyLGHxCn5iOz+Lm9izlRyX2Llv//zP+uHIP/617+ysrKq8e/rBFJTU3fv3t2jRw8XF5c2/+KFCiEAAQhAAAIQMK0AQhALHT+j2VYgYEMhiAfX+eWvISUqxdMrhzSXY7DofLaT8tj60lRlcXIsMZ2nkMfIfRxVrFLozu65cNqgj5l1QhAhn5GfeP6fqvoEap4hSs4JUqpSbF05meNO57jTtyyfWJqqKE1VEkGJr4TzNuEsGYJ4eri9SzhXmqqM3LuEy9KUD/IXZd6LLFEp4sLXkuNMD67zq3sniKfPZj84KdC5gaWHn0dhUmxpqjLqkPbmFxZd6umeeF3TwZTfwolrW0R8lzfPzpSqFJdPbeazHbksuqfA9Y5iT4lKoX54irgDiDxWEyt6Iciq+aOIG4umj+vLcadx3On9enjlPdY8ebci8xLxSOAmajPnl0YHuaYelWVFyNNDZU/3SS5vFPeU1uZHRMubDUF66oQgQg69u5cTeTsM2fcmQpAfx7LJYg2EIKFyic5MImdWGjEE0U4/LH8VJssIlQ3p3vDTfP/7y2wgelFIbm7u1yUA2LuOwPv37yMjI7t06WLar2s4OgQgAAEIQAACbSXQmhCE1cDftK1gRIouQKCdBWwoBGEzaYP6yApeXihNVRa8vJB17wQRIpSkxC2ZNYwYdnrwGNkPTpWqFP171Twfl82kzZs8sPLVz6/unSCHpnIvVpFmVpFYX2/NH+2J60eKUxSlKk3qkXknMvPeidJUZWmqcs96zUNn2Eyajzf73YtzeY+jxYKaweScSQOKkuPK0pR5j6My7hwnyqf/fsxLWGcizENb5palKktUitiw2nCEqHPV/FGlKkVZqvLNszPZ908SNbx7cW5wXznZ1FkTgon5St8lnCMeHFOaqixMjiVmMyGLNb2yUnM7zMU7cXuIYjyW4y9RW8u0HVTdClfd0kzRSkw3+zEjfsHUgU3XZuavenDog/wZMwYwTy3zSAuRpYfKAnVCjWZvh8kKl+uGII11tnUhyPHFHhlhdS7cOLtSZLwrQX7b7jU0wGVaf2Z6qOzqJk+ue+2FP2S/Ovx//69e/PGvf/3rv/7rf2BOkDb5hkSlUvfu3ZuRkfH582ciFPn99985HE6bVI5KIAABCEAAAhAwoUBrQhA2QhAIQKANBGwrBGEzab26i9J+P1aconmESnFKXNa9E6MG+pMjOi7L8eqpLTmPTvtJam9J4HOcDm+dN25o7SSmHHf61dNb4yM3EreiePAYfzyNKUi6cGDTnIKX54tT4ohHsSydNYx8dimf7XTjzE8n9i0lj8Vm0ob288m6f5IoX5QcGxu+tv7VGVKxe/7L8+Xp8fMmNxAuzJ7Y/92LcyUqzRGLU+LuKvb4SWueZkIeaNywwNdPootTFMXaLj//5Uiv7mLyVUNWevh5JN0MnTOxP1nYg+scumNhYdJktIxCAAAgAElEQVQF4iqVouS4uIh1mXcjNVeCfJnQhCxsuSsDujGyI3y2fXlADNGRFl0J0ljfWxeCrJ3AfqVzd4yATXu+vzUTo5Ktavp2mCubPImSe2fxssJ9Fg+vneuErIHNpP373//Wy0EcHTojBGnbL1UODg7jxo37+PEjEYVcvny5betHbRCAAAQgAAEItLMAQpB2/uM/DgcBUsDmQhBi8Navh9fQYN/e3cW6U3LojutatE6EIIXJsT27CYV8Rr+e3n17eOlOw9F0bb27i4N7epNXiOgV7u7DL0qJe5twtn4+QpQUcJwG9ZYN6ScnZxLRq0HzSF2244Be0iH9fHr6Ceu/2uotUk/3If3kQ4N9ielFBveVr108VveenVbXbJIde8mdf93qtXIMizz6QG0IsnlynVxpTC/XrHC57uynZPl5Q9wNvBLkxBKP9BCZ3pSrvmLHjFB5E7fDePHpzw9IMsPklzd6XlgtenFQem+nt/GuBCFDEJHm+biSlCOy+rOHsJk0lpvD//0///s///mf//nPf/0//+u/XZy+J0AwMaoxvksNGDAgPz+fiEIkEokxDoE6IQABCEAAAhBoBwGEIOSIFCvmKGDV917ZaAhCjlrbZEXAdc66f7IwObaXf+1zPdqkZjaTtv6HceXpF38+ubmtKjS8nvqPAjF8X0ssKeLRn+2XpIXIrm/RRAyX1ouTDktTj8pkQkfd7viInNKOSpMOS69t8bq+xevqJk8yy2g6BJF6OJ77UXRhtWZ5stc7I1SmWCu+sFoUu0Y0JVhzD1SzIYjmviqR44XVwrQQ2eM93qN6usYYc2JUMgTRXLUUwMgIk8WvFxv+W4EQxHjfnzZs2FBdXf358+dly5YZ7yioGQIQgAAEIAAB4wkgBDHHkT9uOLINAYQgDUxzoDviNWRdoJ2+tDA5NqhNQxAhj9E30FMzXYhKMWN8X0Na0tIyvQPEv0Rvu6vce//iPr3l6ZVDyTdCH8Tvl3k2fBNES49lEeUlAseDc/kJB2QpR+VJR+TnV4t6yfQnRmUzacG+zr9u8Uw5Kk85Kk88JJN/SUlmD3JPDfEJ9NZ/2ArRd1+xY9IRzS56S2qIz5KRmstPfEWOyUfky0fXXooS4O2UGuIze3Cjp+DMSqHmeTFfGtBS5INz+S8Py33FdVIeNpPGdac93itRrqtz21ToQoEqxGda/5rn9TZ7LIQgxvvaRKFQPD09ibtjIiMjjXogVA4BCEAAAhCAgDEEEIIgBIGAqQQQgrRZCFKiUvQPqp1OtdkhYrMFog6tKM+IL1EpEq4d5es8F6bZHQ0vsHHpBM1cISlxRcmxhckX6i9vE85096l9orDhNaNk+wjEr/dMPiwVcWsfk9w+xzXkKAhBjPGFSbdOBweHkpKS6urqK1eu6G7HOgQgAAEIQAAC5i+AEMRUA2AcFwIIQdogBOEwaXvXz4qLWE88mNaQ8aEhZRZOG5R5N3LfxtleQkP/9m5ItXplgvxFgb4CiYgp4rvUXzju5ji61uuCTf0YJHWKXiE8vVyzxK8XZ0XIQxcKzFMAIUj7fP0qKCiorq4+ceJE+xwOR4EABCAAAQhAoE0EEIJgKA4BUwkgBGmDEMQ8h6BolVUKDA1wyQqXZ4ZplpQj0nUTODyWmf4OIwRpk29IzVbStWvXsrKy6urqsWPHNlsYBSAAAQhAAAIQMBMBchjG5rTBIz9NNZjEcSFgiQLku69PHy9p3X+GfD78y5BCbV5m51T3zDBZZpjs8Dy+VQ500SkIWIEAQpA2/+hrrEJ7e/vPnz9XV1e7uLg0VgbbIQABCNiEQAeb6CU6aR0C5DBMKEIIAgEItKsA+e4LCPSum4FIDfl4QQhipn+Et4IhNLpg6QIIQQz5DG2rMsOHD6+urn737l1bVYh6IAABCEAAAhAwqgA5DOseYG+Jf0tHmyFgoQISKZV89/n4SBCCINGAAATaTAAhiFG/OdWv/Lfffquurl68eHH9l7AFAhCAAAQgAAFzE0jLZBAjsfETHCx0MIlmQ8ASBTZuoRFvvacJrnoJiFSKK0GYbTYatPQ/6aP9EGiFAEKQdv6y9c0331Rr/7XzcXE4CEAAAhCAAARaIbBrT82fox88drbEkSTaDAELFXieWJM/xv/sjhAEkQcEINCWAghBWvF96Ct3WbZsWXV1dWho6FfWg90hAAEIQAACEDC2gEjUkbwmf8Ag3BHTrlNCWOjoHc3+eoFp0x3I992ECSKEIG05/GvFn82xCwSsTAAhiLG/PNWvv3PnzlVVVZWVlZ06dar/KrZAAAIQgAAEIGBWAr/fcyTGY6p0hkSKFAACEDCuwLDhtQnIK7VL/QQEt8MgE4EABL5KwPAQxNPTk8vlmtWXEsttzOXLl6urq3v16mW5XUDLIQABCEAAAjYiwOXVXgzySu2yaQvdJp4UwzLuQPfrLxZADdYn4C2hhh+ryRxfqV0ys13GjhMjBPmqwZ6V/QEf3YFAmwgYGIL07t378+fPeKxJW33bc3V1ra6uTkpKaqsKUQ8EIAABCEAAAsYTGDT4W/LifGJsdv+hszLeKeK445599D17sUAAAq0V2Ec/FumouOj08LFzZnbNPCDE2+3gIW6DCQiuBEEsAgEIfJUAGYKkh8jqf8pQKJQlS5akpKQQVy5UVla+evUqOzvbeF8ybKdmTI9qO+caPYUABCAAASsQkMo6qdKddaMQrEMAAkYSyMhyWbrco/7YhNxiyEfKvwwp1OZldk51zwyTZYbJDs3jt8mfrFEJBCDQ5gIjergQ79PMsAZCEDs7u7i4OGK4Tv733bt3mMzi6z8wnz59Wl1d3blz56+vCjVAAAIQgAAEINAOAp07U+bM/c5Ioz5UCwEIEAJHQ7k9enqTeUeDK4a8300TgmydyCQGV6ELEIJ81d/q23zciwohQAqM6lkTgiQdbuAThkKhdO3addSoUcXFxUQI8uTJEzc3N0M+d1CmaYG5c+dWV1ePHz++6WJ4FQIQgAAEIAABMxSYNadLSJj9lV/cb9xi3sQCAQi0VuDGLeaVX9xjzrK3bOX7+UkaGJA0tMmQzwTThCBzBzgRIUjcGiE54sIKBCBgVgILhtVcsXXrpwY+YIjPl1u3bpGXgfz111/79+835HMHZZoW8Pf3r66uPn78eNPF8CoEIAABCEDAQgU6WGi7W9LsBr48YRMEIGBkAU9PT0PepqYJQYb4OhAhSMJ+b7Ma9aExEIAAKXB4Hp94n55f08DHFfH5snLlytzc3DFjxly4cKGsrOzo0aOGfO6gTNMCHA6nurr6wYMHTRfDqxD4KgFbGIJ8FRB2hgAEIPBVAo6Ojg18f8ImCEDAmAKOjo6GvG9NE4KImJ2JwVVmmIwccWEFAhAwKwHVUSnxPl0zuYHLz+p/vjg7O3fs2LH+dmxpqQCDwaiurn7+/HlLd0R5CEAAAhCAAATMRKBDhw6enp7GHO6hbghAoI6At7e3gW9/04Qgnb+xSw+tGV9193Iyq4EfGgMBCLCZNDGPTiaVQ3vX+XwhfjDwIwbFWiFgb29fXV2tUqlasa+17oKrFqz1zKJfEIAABKxbwNu7mUkcG/iOhU0QgEDLBby8vOzs7Az8PDFNCEKhUG5sERFDrN+2e2LMCQEImJtA3Jqad2hqiFTewMNhpAZ+xKBYKwS6du1aXV2dkZHRin2xCwQgAAEIQAAC5iNgZ2cnEolaPqDDHhCAQAsEWCxWi971JgtBpJzvyL8zLx/FMrcRINoDAVsWmDe05vlNmWGyyOUNfwC16IMGhVskgBCkRVwoDAEIQAACEDBzATs7Ow6H4+HhgQtDGv5aia0QaJWAh4eHm5tbhw4tvmLYZCEIhUK5tU1M5iDnfxR6cPCwWAhAwMQCfDbt7Coh+cbMDJP5NHQZiFSKK0GM+HULIYgRcVE1BCAAAQhAAAIQgICFC7Qi+NDtsSlDkG87UV4c8NYdbt3f5bVqLGtogMsAP0Y/XywQgEB7CPT3Ywzpzlg4zP3mVk/d92NGqGxUv0ZTWd3PEay3rQBCkLb1RG0QgAAEIAABCEAAAhAgBUwZglAolO++tftta+31ILoDMKxDAAKmFRgT3GgCgitByM9QY6wgBDGGKuqEAAQgAAEIQAACEIAAhUIxcQhCnINJveiP93iZdryHo0MAAoRAeqjs3Gqpr7ypBAQhiFH//4EQxKi8qBwCEIAABCAAAQhAwJYFzCIEIU4Ay+nbCUH0qxuEKUckGI5CAALtLHB/t3T3XOnwvlKf5uIPIh2x5c9NY/cdIYixhVE/BCAAAQhAAAIQgIDNCphRCEKeg++//76Zv0HjZQhAwKQCzs7O5BsWK20ugBCkzUlRIQQgAAEIQAACEIAABAgBcwxBOnToYNLxHQ4OAQg0I9CpUyd8hhpPACGI8WxRMwQgAAEIQAACEICAjQuYYwhCoVCcnZ2bGYThZQhAwEQCHA7Hxj83jd19hCDGFkb9EIAABCAAAQhAAAI2K2CmIQiFQuFyuSYa4uGwEIBAowJeXl42+3HZbh1HCNJu1DgQBCAAAQhAAAIQgICtCZhvCEKhUNzd3RsdiuEFCECg3QV4PF6HDh1s7VOy/fuLEKT9zXFECEAAAhCAAAQgAAEbETDrEIRCoXTs2NHV1bXdx3o4IAQgUEeAzWZ/8803NvKxaPJuIgQx+SlAAyAAAQhAAAIQgAAErFXA3EMQXfcOHTrY4R8EINCOArpvQKy3mwBCkHajxoEgAAEIQAACEIAABGxNwJJCEFs7N+gvBCBgmwIIQWzzvKPXEIAABCAAAQhAAALtIIAQpB2QcQgIQAACLRBACNICLBSFAAQgAAEIQAACEIBASwQQgrREC2UhAAEIGF8AIYjxjXEECEAAAhCAAAQgAAEbFUAIYqMnHt2GAATMVgAhiNmeGjQMAhCAAAQgAAEIQMDSBRCCWPoZRPshAAFrE0AIYm1nFP2BAAQgAAEIQAACEDAbAYQgZnMq0BAIQAACWgGEIPhFgAAEIAABCEAAAhCAgJEEEIIYCRbVQgACEGilAEKQVsJhNwhAAAIQgAAEIAABCDQngBCkOSG8DgHrFehgvV2z6J4hBLHo04fGQwACEIAABCAAAQiYswBCEHM+O2gbBCBgiwIIQWzxrKPPTQggr20CBy9BAAIQgAAEINBCAYQgLQRDcQhAAAJGFkAIYmRgVA8BCEAAAhCAAAQgYLsCCEFs99yj5xCAgHkKIAQxz/OCVkEAAhCAAAQgAAEIWIEAQhArOInoAgQgYFUCCEGs6nSiMxCAAAQgAAEIQAAC5iSAEMSczgbaAgEIQIBCQQiC3wIIQAACEIAABCAAAQgYSQAhiJFgUS0EIACBVgogBGklHHaDAAQgAAEIQAACEIBAcwIIQZoTwusQgAAE2lcAIUj7euNoEIAABCAAAQhAAAI2JIAQxIZONroKAQhYhABCEIs4Te3SSDwbtl2YcRAIQAACEIAABGxJACGILZ1t9BUCELAEAYQglnCW0EZTCCAUMoU6jgkBCEAAAhCwMgGEIFZ2QtEdCEDA4gUQglj8KUQHIAABCEAAAhCAAATMVcAsQhD8acdcfz3QLgjYiIB5fQghBLGRXzt0EwIQgAAEIAABCECg/QXMIgRp/27jiBCAAATMVgAhiNmeGjQMAhCAAAQgAAEIQMDSBRCCWPoZRPshAAFrE0AIYm1nFP2BAAQgAAEIQAACEDAbAYQgZnMq0BAIQAACWgGEIPhFgAAEIAABCEAAAhCAgJEEEIIYCRbVQgACEGilAEKQVsJhNwhAAAIQgAAEIAABCDQngBCkOSG8DgEIQKB9BRCCtK83jgYBCEAAAhCAAAQgYEMCCEFs6GSjqxCAgEUIIASxiNOERkIAAhCAAAQgAAEIWKIAQhBLPGtoMwQgYM0CCEGs+eyibxCAAAQgAAEIQAACLRPo0LLizZVGCNKcEF6HAAQg0L4CCEHa1xtHgwAEIAABCEAAAhCwIQGEIDZ0stFVCEDAIgQQgljEaUIjIQABCEAAAhCAAAQsUQAhiCWeNbQZAhCwZgGEINZ8dtE3CEAAAhCAAAQgAAGTCiAEMSk/Dg4BCECgngBCkHok2AABCEAAAhCAAAQgAIG2EUAI0jaOqAUCEIBAWwkgBGkrSdQDAQhAAAIQgAAEIAABPQGEIHog+BECEICAiQUQgpj4BODwtizQxtPP2zIl+g6BBgTwDmsABZsgAIF2F0AI0u7kOKANC+D//TZ88lvQdYQgLcBCUQhAAAIQgAAEIAABCLREACFIS7RQFgIQgIDxBRCCGN8YR4AABCAAAQhAAAIQsFEBhCA2euLRbQhAwGwFEIKY7alBwyAAAQhAAAIQgAAELF0AIYiln0G0HwIQsDYBhCDWdkbRHwhAAAIQgAAEIAABsxFACGI2pwINgQAEIKAVQAiCXwQIQAACEIAABCAAAQgYSQAhiJFgUS0EIACBVgogBGklHHaDAAQgAAEIQAACEIBAcwIIQZoTwusQgAAE2lcAIUj7euNoEIAABCAAAQhAAAI2JIAQxIZONroKAQhYhABCEIs4TWgkBCAAAQhAAAIQgIAlCiAEscSzhjZDAALWLIAQxJrPLvoGAQhAAAIQgAAEIGBSAYQgJuXHwSEAAQjUE0AIUo8EGyAAAQhAAAIQgAAEINA2AghB2sYRtUAAAhBoKwGEIG0liXogAAEIQAACEIAABCCgJ4AQRA8EP0IAAhAwsQBCEBOfABweAhCAAAQgAAEIQMB6BRCCWO+5Rc8gAAHLFEAIYpnnDa2GAAQgAAEIQAACELAAAYQgFnCS0EQIQMCmBBCC2NTpRmchAAEIQAACEIAABNpTACFIe2rjWBCwCIEOFtFKK24kQhArPrnoGgQgAAEIQAACEICAaQUQgpjWH0eHAAQgoC+AEERfBD9DAAIQgAAEIAABCECgjQQQgrQRJKqBAAQg0EYCCEHaCBLVQAACEIAABCAAAQhAQF8AIYi+CH6GAAQgYFoBhCCm9cfRIQABCEAAAhCAAASsWAAhiBWfXHQNAhCwSAGEIBZ52tBoCEAAAhCAAAQgAAFLEEAIYglnCW2EAARsSaBOCIJpaq391H/H6MoI4HgvCgrYOaJ/zPSBF2ZhgUCrBQacm9Fj/2jp8r7MYGFXNo1iZ+3vH/QPAhCAAAQg0HIBhCAtN8MeEIAABIwpUCcEMeaBULdpBfhj5SPvLJ2QuBYLBIwkMO756sDdI+w6IQsx7XsdR4cABCAAAfMSQAhiXucDrYEABCCAEMTqfwc6dfl2yOX5Rhr3oloI1BdwlDGt/m2FDkIAAhCAAAQMFEAIYiAUikEAAhBoJwGEIO0EbaLDfEv7bszjlXrD1H7Hp3TfPEy+pJ94ZqBwqn/7LdP8hdO+HG6av2had9F0zSL8skL8SP5XPL27eHqAdvmyMiNArLfMDBDrLrMCxfUWz1k9PGf1EM8KJFY8Z/XwmtXDa7Zmo+dszYpmmaOzMqeHt2bp6fVlxXtOT++5PWv+O1e7PjfIW3eZF+Q9r5e35r/ESi/veb0kmi01K5L5veosC3pJG1h6Sxf01m4nVnpLF/SRLuyj3dhburCPbGEf2aI+0kWajbJFX5bFOiuL+8rqLvLFfY24LOnnv3Fo76MTxj9frfc7xgjkmuhXHoeFAAQgAAEImJcAQhDzOh9oDQQgAAGEINb9OzDq3nJydBp8Yoqz0M3Bjf6dw/fW3Wv0rv0FqK60AdEzyF+2CYlrv3ezb/9m4IgQgAAEIAABcxNACGJuZwTtgQAEbF0AIYgV/wbIVwaTg1LhOL/OXb+z64j5Gqz4hJu4a3Yd7fgjZOSv3LBrC03cIDM9PCagNtMTg2ZBAAIQMJIAQhAjwaJaCEAAAq0UQAjSSjjz382OMuZhzY0wvQ6ORfxh/mfMClpo19Gu2/rBZA6ieWQM/kEAAhCAAARsWwAhiG2ff/QeAhAwPwGEIOZ3TtqmRQ4iBjkW/d4JNya0jSpqaVbAwY1O/uJJl/ZptjwKQAACEIAABKxbACGIdZ9f9A4CELA8AYQglnfODGux18IgYiw6WDHHsD1QCgJtINDF4fvuW4YRv3sjby9pgxpRBQQgAAEIQMCSBRCCWPLZQ9tbJoCbflvmhdKmEkAIYip5Yx93+K+LiIGo15yexj4W6oeArgCnnyd5MYjudqxDAAIQgAAEbFAAIYgNnnR0GQIQMGsBhCBmfXq+onHkKJTVT/QV1WBXCLRYwM2XS/760Wi0Tp06tbgK7AABCLRCAH+AawUadoGA8QUQghjfGEeAAAQg0BIBhCAt0bKksuQolNlDYEntRlstX6CrmwP56yfV/uPxeB06YHxm+acWPYAABCAAgZYLIARpuRn2gAAEIGBMAYQgxtQ1Zd3kKNStO9+U7cCxbU/gW/vvyF8/IgQh/mt7EugxBCAAAQhAgIIQBL8EEIAABMxLACGIeZ2PtmsNOQp19ee2Xa2oCQLNC3xD7Uz++umGICIR7sxqXg8lIAABCEDAygQQgljZCUV3IAABixdACGLxp7CRDpCjUIQgjQhhs7EEGgtBpFLp999/b6yjol4IQAACEICAWQogBDHL04JGQQACNiyAEMRaT35tCNINV4JY60k20341EYJ4eXmZaaPRLAhAAAIQgIBxBBCCGMcVtUIAAhBorQBCkNbKmft+lhuC7NmzJyQkxNx9Lad9w4cPz8/Pr/ry79ixY87OznrNd3FxKSkpWbRoUdeuXfVeasWPTYQgUqm0FRViFwhAAAIQgIDlCiAEsdxzh5ZDAALWKYAQxDrPK4VChiAufhwL6iONRktKSsrKyuJwLKnZ5ins4OCQk5NTVVVVXFwcFha2efPmx48fV1VVffz4ccmSJbptptPpb9++raqqKisr69mzp+5LrVhHCNIKNOwCAQhAAALtK9B+zyxDCNK+ZxZHgwAEINCcAEKQ5oQs9XULDUHs7e1fvnyZnZ3t6elpqfTm0e6OHTsSeUdgYKBeix4+fFhVVTVz5ky97W5ubvn5+ZWVle7u7novtejHpkOQLl26tKg2FIYABCAAAQhYtABCEIs+fWg8BCBghQIIQazwpGq7RIYgDF+2BfURIUhbnSylUllVVdXgA1ns7OySk5PLy8vrT1PapUuXqqoqtVr9Nc1oOgRxcHD4msqxLwQgAAEIQMCyBBCCWNb5QmshAAHrF0AIYq3n+CtDEHt7+5EjR65du3bOnDmurq52dna6UB07duzUqROFQvn2229pNBqdTre3tycLUKlUGo1mb29PlCG329nZ2dvbd+zYkUKhdOzYsWvXrvb29t9++y1ZgEKhECFIZmZm586ddbd37NiRyWTOnz9/1apVcrlcby/dko2td+zY0cXFZdasWZs2bRo1ahSVSm2w5Pfff9+rV68VK1YsXbpUKBTqdYFoYf/+/VeuXLl8+fJ+/fq1ySQaDbbkazZ27ty5oqLi+vXrjVVCo9H+ufllwYIF9QvMmjWrqqrqa6KKpkMQR0fH+gfFFghAAAIQgIC1CiAEsdYzi35BAAKWKoAQxFLPXHPtJkMQZzmrubL6ry9btkylUuXk5KjV6pycnKysrIMHD+rGAcePH798+XJgYODt27fVanVubm5aWtru3bu/++67kJCQpKSk7Ozs1NTU+Ph43RsrFi9erFKpRowYERgYGB8f//Lly9TU1Nu3b48dO5ZsgbOzc1paWmZmJrmFQqF06dLl9OnTRGOI/8bHx5Mpyfbt27du3apbnkKh0On08PDwgQMHEtu7dOly6tSp7OxsslPJycmjR4/W22vYsGHPnz8nyqi1/y5cuECkNkTJjRs3kjJEx1+8eNGrVy+9ekz+o0Qiqaqq8vDwaKIlVVVVKSkp9QvY29tXVVWtWrWq/ksGbkEIYiAUikEAAhCAgC0IIASxhbOMPkIAApYkgBDEks5WS9ra6hBkzZo1eXl5arU6LS3tzp07aWlpRO6wbds24vh0Oj0xMVGtVmdnZxNJAblCJgjZ2n9qtfr27dtkiHDkyBG1Wh0fH5+bm5uTk5OdnZ2VlaVWq/Py8lauXElU7uLikp6erhuCdOnS5erVq0T5mzdvXrx48dWrV2q1OjQ0lEKhuLq6ZmRkZGVlubq66vLs2LEjJydHqVQSGcr169eJaCMhIeHBgwfEcbOzs4OCgsi9hg0bRnQnMzPz7t27ycnJRMcVCsU333xDoVDWrVtHyly5ciU2NlalUqnV6qdPn5J9JGsz7UpgYGBVVVXTbUhKSmqsTHFx8bVr15revYlXEYI0gYOXIAABCEDA1gQQgtjaGUd/IQABcxdACNLoGWpi1vAmXmq0uvZ+gQxBnGQtmOSSx+NlZmb+MyXEgQMHiAksO3fu/NNPP+Xk5GRkZLBYmotK7O3tnz9/TuQFGRkZo0aNEolEsbGxxBZiXx6P5+Pjk5qampubO3XqVKLzGzZsIMtERkZ6eHgwmcz169er1eqMjAwvLy8KhVI/BNm8eTORyPj7+xP1DB06lKinR48ednZ2d+7cycvLmzJlCkns6uqampqanZ09ZMgQCoWyZMkSovz48eOJ+3pcXV1v3rypVqtv3LhBXFFCJjvXr18nniDbsWPH8ePHE2nO0KFDqVQq0etdu3aRU3uKxeKsrKycnJy+ffuSRzeHFblcXlVV5eTk1ERjysrKGpz7o2PHjpWVlUTG1MTuTbyEEKQJHLwEAQhAAAK2JoAQxNbOOPoLAQiYuwBCEHM/Q61tX+tCkP379+fk5Dx69Igc51MolE6dOj169CgvL2/hwoUUCuWbb755+PAhcTPI6tWriQb6+fnlaP9FRUWRl0UcOHAgJyfn1KlTRPRAhiC3b98m6+/UqdONGzfUajVxMYheCOLi4kLEGZMnT9aViIyMzMnJOXHihJ2d3Z49e3JzcyMjI8mJS1atWpWTk3Pjxo1vv/22S5cujx49UqvVe/fu1a1BJBK9enF4+5IAACAASURBVPUqIyODyWRSKJRJkyap1er09HQGg6FbLCoqSq1WHz582N7ePiEhgVgn5xP99ttvlUplSkpKt27ddPcy+bq9vX1FRcXx48cba8k333xTVVW1bt26+gWIq0jqP1OmfsnGtiAEaUwG2yEAAQhAwAYFEILY4ElHlyEAAbMWQAhi1qfnKxpXG4JIW3AlyIMHD3Jycn799ddt27YtWrRotvbfjBkzrl+/npub+9NPPxEtunfvnlqtvnv3LjlRCJPJzMjIyM3NHTp0KNnqwYMH5+Tk3Lx5k5jHlAhBcnNzZ8yYQZahUChbtmxRq9Xnzp2rfyXIhAkTcnJy7t+//9133+nu0r17d7Va/fjx4y5duhDrz549I4IVIq3Izc2dOHEihULhcDhZWVnZ2dkRERFbtmyZM2cO0anFixenpaWRd8RERESo1epHjx5t3bp1xYoVRJnZs2efPHmSuIWHQqHs27ePuKIkOTk5JiZm/vz5xG0yug0zn/WHDx9++PChsYtBrl27VlVVRafT6ze4oKCgsdtk6hducAtCkAZZsBECELBSAUu4OtRK6S2lWwhBLOVMoZ0QgICtCCAEsdYzrROCaK50MOQfjUYjJ8L4J0TI+/Lv9evXOTk5ubm5S5cuJeohQpBly5aR1TIYjLS0tH8CC90rCHx9fXNycp48eUJEGEQIkp6ervdElSlTpqjV6lu3btUPQY4dO5aXl7dnzx7yQMQKj8fLzs5OSkqiUqmOjo5JSUlZWVm9e/emUCjBwcE5OTkJCQlESbFYTCQXudp/r1+//tItzbwnGRkZYrGYQqH8/PPPusXIMsT0JceOHSOuiFmyZAkxSQoxlUleXt6JEyc4HI5e88zhx86dO3/48KGqqqr+01g2b95cVVV1+PBhvXZSqdSsrKyKigri1iS9Vw3/ESGI4VYoCQEIQAACVi+AEMTqTzE6CAEIWJgAQhALO2EGN5cMQRwlbgbuRKPRkpKS1Gr1M+0/IhQg/vvs2bMff/yRrOfevXvZ2dkjRowgtxATlObm5g4ePJjc6Ovrq1arnzx5QlyjQYQgRNhBlqFQKCNGjCCmUK0fgkRHR+fl5ekemthRIBBkZ2cnJCQQd6YQz475/9m7E/imqoTv4yCKyiooFJVR3Jqma9J9b2kLZWnplpZNdhAEZCtt2XEb0XEcwQUdFBAcRQFFZGvTAgqUJmyF4jIyINjiqNAC72w6zDP2nXDL7W3ahjTNfn98+nnm5ubcc8/5niTve/7ee65ww8v69esrKytXrFghlBRCkLNnzx47dkxYz1Xo0blz50pLS3NycoRiQgjy5ZdflpeXCwuvCsW+/vrrt99+W/q82AcffDA1NfXtt98+e/bs+fPnKysrv/nmm7i4OGmPnGQ7MDDwn//8588//7x3794xY8YkJia+9tprP/7449WrV5cvXy5tZO/evQsLC4XQRKPRSN+yYJsQxAI0DkEAAQQQcFcBQhB3HVn6hQACripACOKqI3ejdteHIDHmhiAeHh6lpaXnz59ftmyZUfUPP/xwYmKiuOhG4xBEoVD8+c9/Pn/+/NixY8VjhStBdDqd9EqQY8eOiQWEDWHp0x07doghyKlTp4S33nnnnfPnz69cudLokEmTJlVVVZWUlAg32qSnp1dVVX355ZcKheLkyZPnzp1LS0sTDlGr1d9+++3Zs2djY2ONKgkNDVWr1cLO1atXV1ZWbt682ajMfffdN3jwYOG2l3vuuadPnz4iwj333DNs2LAvvviiqqrK6Em6RpU49qVWq/3nP/959fq/06dPN36mb2ho6D//+c/CwkKji3QsazkhiGVuHIUAAggg4JYChCBuOax0CgEEXFiAEMSFB89k08UQxLMlIciyZcvEtTbE6h966KGjR49+//334qUfjUOQhx9++MsvvzQKQSZMmFBVVXXgwAHhCSzimiCjR48WK3/wwQeFhUvnzZsnLOFx9uzZr7/+WigwfPhw4d4W6eRcOET6YN3evXuXl5dXVVXt3r37u+++Ky8vF9cuveeee0pLS4UFTcWTenh4JCYmnjt3TrihxsPDIycnR7g7Rnpvy913371ly5aqqqqlS5d6eHi8+eab/3t0zvjx46X1vPrqq8K6J0IfpW85z3avXr38/f2DgoIefPBBO7SKEMQOyJwCAQQQQMBVBAhBXGWkaCcCCMhFgBDEXUe6PgSJbsGVIAEBAadPn66srPzTn/50//339+7d28vLS3gUy7lz58SlIkpLS6uqqqZOnSrqNRmCLFiwoKqqateuXcKVFEIIUllZWVFRERERcc8999x///2rV6+uqqr631KjPj4+Hh4eoaGh586dE0OQhx9++Pjx45WVlZs2bXrggQd69+7t6em5cePGysrKr7766pFHHhEb8PTTT1dVVVVWVlZVVa1evVrc7+Hh8fjjjwv3tsyYMeM31/4lJCQcO3assrLy4MGDwlUqDzzwgBCjHDhwwNfXt3fv3g888MAzzzxTWVn53XffTZgwwcPDQ3gM8BdffJGQkNC7d+977rlHqVQePXpUfE6N9KRy3iYEkfPo03cEEEAAASMBQhAjEF4igAACDhYgBHHwANjs9PUhSJRvi06Sm5v7/feGRUNPnTp1+PBhYYGMqqqq+fPni/WUlJRUVlYKT8wVdj700ENfffXV999/P27cOLGYEEx8/PHHwkNkFi1aJIQRwjUXJSUlJ0+eFFYYnTVrlnCUUQji4eGh0WiEpTdOnTp16NCh/12LIVQive/Gw8PDz89PWLL0/Pnz4kofQp3Cg2yFo06cOCGkKsIDccVYx8PDIzU19bvvvhPaptfrhTDo/Pnz69atE9ofHR0tnl2v15eUlJw5c6aysvLs2bNhYWFir9kgBOEzgAACCCCAgChACCJSsIEAAgg4hQAhiFMMgw0aYXEI4uHh8cQTTwgRgHBhxcmTJ8eMGSNt4xtvvHHu3DmjnQUFBZs2bRIu6BAK5+TknDp1SrjPxcPDIy8vT1jIY/fu3eJVG19//fWUKVPEyh966KHS0tIPP/xQ3OPh4ZGWlibcMiMEGceOHRs2bJi0gLC9Zs0a4TKTxm/df//9a9euFSOYqqqq4uLi8PBwo5LZ2dlCLiM07/Tp04sWLZKWCQkJ+fTTT4V6hDIVFRVZWVnSMmwTgvAZQAABBBBAQBQgBBEp2EAAAQScQoAQxCmGwQaNaE0I4uHh8dBDD2VlZY0cOXLQoEHCzSytb6MQgmzbtq1Xr15xcXEajWbgwIFmLqVx9913JyQkZGdnR0VFiUuTGjVp+fLllZWVa9asMdovvgwODh4xYsSwYcOEx+KK+6Ub9957b2pq6qhRo9LS0qQLkUjLqFSqzMzMkSNHDhgwoLnGSMvbefuRRx5ZsGDB66+//saN/r3wwgvSp/lI29mrV6+AgADpHvO3CUHMt6IkAggggIDbCxCCuOQQ93TJVtNoBBAwS4AQxCwmFywkhiCPRBnW2nCGfxMnTqyqqtq+fbstGtO7d+9Dhw599913I0eOtEX9LlFnaGio8ATc64+CMfd/n3rqKaM0Z9KkSVevXv3b3/6WkZHR0r4TgrRUjPIIIIAAAm4sQAjixoNL1xBAwCUFCEFcctjMaLQThiDCg2w///xzM5rf4iLTp0+vrKz88ssv7fMAlBa3z/YH5OTk/PLLL5cvXx46dOjDDz9szgl/85vfhIeHb9my5erVq3/+85+lh/Tq1WvYsGF///vfr169+uabb0rfuuE2IcgNiSiAAAIIICAfAUIQ+Yw1PUUAAdcQIARxjXFqeSvrQ5BIZ7kSJCMjo6qqat++fS3vjakj1Gr1uXPnfvjhh6qqqueee85UUfd9T6lUXr169dtvv7Wsi+PGjfv3v/+9c+fOxoeXlZVdvXo1MTGx8VvN7SEEaU6G/QgggAACMhQgBJHhoNNlBBBwagFCEKcenlY0zglDkMjIyLKyst/+9ret6FYTh3p7exdf+zd9+vQm3pbHLr1e/69//atPnz4Wd3fHjh3//ve/lUpl4xp++eWXS5cuNd7f3B5CkOZk2I8AAgggIEMBQhAZDjpdRgABpxYgBHHq4WlF45wwBGlFbzjUlMDdd9/9888/b9261VQhM967evWq9AnH4hHZ2dlXr14VnhMs7jSxQQhiAoe3EEAAAQTkJkAIIrcRp78IIODsAoQgzj5ClraPEMRSOdc7ztvbu7n8okWduXr16urVqxsfEhgYePXqVfOfBEwI0tiQPQgggAACshUgBJHt0NNxBBBwUgFCEHFg3OxJWIQg4si6/UZQUNDVq1cHDRrUyp5evXq1uLi4cSVeXl5Xr141/24jQpDGhuxBAAEEEJCtACGIbIeejiOAgJMKEII46cC0ulmEIK0mdJkKCEFcZqhoKAIIIICA/AQIQeQ35vQYAQScW4AQxLnHx/LWEYJYbudqRxKCuNqI0V4EEEAAARkJEILIaLDpKgIIuIQAIYhLDJMFjSQEsQDNRQ+57777Kisr77333la2f+vWrY899ljjSnr16vXtt9/6+Jj7rGVuh2lsyB4EEEAAAdkKEILIdujpOAIIOKkAIYiTDkyrm0UI0mpCKrBQgBDEQjgOQwABBBBwRwFCEHccVfqEAAKuLEAI4sqjZ6rthCCmdHjPlgKEIDfQdbNFmG/QW95GAAEE5C5ACCL3TwD9RwABZxMgBHG2EbFWewhBrCVJPS0VIARpqRjlEUAAAQTcWIAQxI0Hl64hgIBLChCCuOSwmdFoQhAzkChiEwFCEJuwUikCCCCAgGsKEIK45rjRagQ8uHjXjT4EDQeTEMSNhrZBVwhBGnDwwo4ChCB2xOZUCCCAAALOLkAI4uwjRPsQQEBuAoQg7jrihCDuOrLO3y9CEOcfI1qIAAIIIGA3AUIQu1FzIgQQQMAsAUIQs5hcsBAhiAsOmps0mRDETQaSbiCAAAIIWEOAEMQaitSBAAIIWE+AEMR6ls5VEyGIc42HnFpDCCKn0aavCLiKQMObgV2l1bTTLQQIQdxiGOkEAgi4kQAhiBsNZoOuEII04OCFHQUIQeyIzakQQAABBJxdgBDE2UeI9iHgigJk+60ZNUKQ1ug587GEIM48Ou7dNkIQ9x5feocAAggg0CIBQpAWcVEYAQQQsLkAIYjNiR10AjEECRsd75cUyB8CdhNQpYSKH7+4Rv8UCoWDvhOcFgEEEEAAAQcIEII4AJ1TIoAAAiYECEFM4Lj0W+IslBDEbpN/TiQIEIK49E8HjUcAAQQQsK4AIYh1PakNAQQQaK0AIUhrBZ31eDEE8U5Q/+aB+/hDwG4CD/g+LH78Gl0IEseVIM76m0G7EEAAAQRsIkAIYhNWKkUAAQQsFujTp09tbe2ZM2csroEDnVNAnIWqUyM8VUr+ELCbgDLCX/z4EYI45+8DrUIAAQQQsJsAIYjdqDkRAgggYJbAvffeW1tb+91335lVmkKuIyDOQglB7Db550SCACGI6/xO0FIEEEAAAZsLEILYnLhlJ+ChGi3zojQC7inw3//+98cff3TPvsm4V4QgRBKOEiAEkfEPD11HAAEEEDAWIAQxFuE1Aggg4HCBv/3tb3//+98d3gwaYF0BQhBHRQCclxDEut9lakMAAQQQcGkBQhCXHj4ajwAC7inw7bff1tbW9unTxz27J9deEYIQRjhKQNYhCNfYyvUnl34jgAACzQkQgjQnw34EEEDAYQJlZWW1tbWRkZEOawEntoEAIYijIgDOK+sQxAbfZapEAAEEEHBpAUIQlx4+Go8AAu4pMHv27Nra2rlz57pn9+Taq2shyNMTv3iGhVFJJewsQAgi118d+o0AAggg0IQAIUgTKOxCAAEEHC7AU3IdPgRWbwBXgth55s/pRAFCEKt/nakQAQQQQMB1BQhBXHfsaDkCCLizwK+//lpbW+vOPZRf3whBxDk5G3YWIASR3+9NXY9ZEUW2Q0/HEUDAhAAhiAkc3kIAAQQcJvDss8/W1tYuXrzYYS3gxNYWIASx88yf04kChCDW/jZTHwIIIICACwsQgrjw4NF0BBBwYwEfH5/a2torV664cR/l1jVCEHFOzoadBQhB5PZrQ38RQAABBEwIEIKYwOEtBBBAwJECOp2utrZ2xIgRjmwE57aegGUhiE+Yf//hg30jVCamzQq1d9oEzZAJGoXa20Qx3pKtACGI9b7H1IQAAggg4PIChCAuP4R0AAEE3FXg4Ycfrq2t/c9//uOuHZRbvywLQZ794A8llw8/t2mFiQl8XHrSrh9Liy4ejM/oZ6IYb8lWgBBEbr829BcBBBBAwIQAIYgJHN5CAAEEHCywatWq2traHTt2OLgdnN4aApaFIM9/9Mru/3ck7/UlJibw4cnRO/66v7hGlzwixUQx3pKtACGINb7B1IEAAggg4CYChCBuMpB0AwEE3FLg3nvvvXLlyq+//pqenu6WHZRVpywLQXxC/dWxIcpgXxMTeL9I9fbz+whBTBDJ/C1CEFn91NBZBBBAAAHTAoQgpn14FwEEEHCwgL+/f+21fwEBAQ5uCqdvnYBlIYg5s3d/QhCV0hwo2ZYhBGndd5ejEUAAAQTcSoAQxK2Gk84ggIBbCkydOrW2tvZf//qXQqFwyw7KpFOWhSDjFk7Z9VNp7iuLxAm8Qu09eEzG77eu3HK25OMzJcs2rxjw6JBt5z/nShCRqEUbvsnBYVP7KWMCWnSUaxUmBJHJjwzdRAABBBAwR4AQxBwlyiCAAAIOFli5cmVtbe2vv/7q6+vr4KZweksFLAtBlu9cVXxJv3zXW8KsWxns+4cdfyyu0WurdcU1emFDW6MrulhGCGJZMJG2b5bmeH7/9WM91U56OYlfSmjQyBhFqKlbokz3nRDE0m8txyGAAAIIuKEAIYgbDipdQgABtxT4/e9/X1tb+8svv8TFxbllB92+U60IQQ797pPXhVnu8x+9KgQfyza/kjouM31S9pufrb+eichuYVTvmABNeUG/t0eZjgBMvztw08Sh3yyMe0FjupgD3018Y2T2iQLffkEWt4EQxO1/XuggAggggID5AoQg5ltREgEEEHCwwLJly4T1QZ5++mkHN4XTt1ygNSHIi1tXeqqUIYkRO384oK3WTXthrnQ+vEa/UVut09bokofL6+kwypgAzfH8fmtGSzXcbztx5QhNeT4hSMu/cxyBAAIIIIBAEwKEIE2gsAsBBBBwWoGUlJT/+7//q62tPXPmDEuEOO0wNdmwJkOQRwK87lP0ecD74eam7sLtMC/vXOWpUo5bOEVbrfu06rPAuFBp+ZFzxxddLCv86WDfzP7S/a6+rQj1CRobHzIlKXRKUtDYeEWIT12P1MrgcX1DpySFz0jWlOcP2vJYyGOJodeKqTIjhDJeEX6hk5MC0sOVMQEhkxIM2xnhUhDfgSHCIcL/9RscIn3XU6UMntA3aHScZ6B30Ji40ClJgY/GGhXwVCl9k4NDJyeGPJbokxjokxgY+niST7/AxsVM7wkcERMyOVER4hOQHh4yOTFkYoIy2l96SOMQRBkTYGjSqCaaJD1Q3OZKkCa/kuxEAAEEEJCnACGIPMedXiOAgAsL3H333adPnxYuCfnkk0/8/PxcuDNyarpRCPJIgFeHTh3bXP/Xtm3b+70eFGet4sZzG5cX1+j/uP89ZbDvglXPFNfo1x3ZbPTE3PjMfjt/OOBmIYhPYmCmPldzoiDrWF7WsTzNiYIMfa5wNYQi2GfI7ieyKwqyTxRoyvM15fmG7Wt/Ca8NE+j8BoZojuUnrXo0U5ebVZ6nOV6gOZEf97ssETaiYLCmPF+sPGrxEPEtYSN936zBn0xOfn+85kSB5ni+5kR+yvbHvcLrF+YIm95feMvQvOP5MU+l55ycFzqtn1E9N3w54IPxWUfmxjybkV0xz9Cd44ZWqXKixAONQ5BA74GbJ2nK89WSMmLhJjcIQeT0S0NfEUAAAQRuIEAIcgMg3kYAAQScUyArK0vIQX799dfTp0/PmDHDOdtJq0QBoxDk9k4drgcg9f/7SICX0ST2mfdfKr5UF4I8uf6F4kuH3i77QKH2lharC0EulCVmD5Dud+FttdKQPhzLD56QoIz0V0b6hzyWqDle0P+dujtfDDuj/H0SAw07145WRhleKqP8vcLqQgpDCHI0L6N0dvDEvspIf9+BwSk7H88+OS9wdJzAogj2EWoOGh2XXVHQZAiScXB20h9HKmMCvGNV/daM1hwviHkyTTjcOzYg69DcjIOz1TlRykh/9YiY9H0zsyssDEE0x/IGb5vikxSojPIPnz0g62he2p4Z4pUvRiFI7DMZmoqCmGfSzR9fQhDxa8gGAggggAAChCB8BhBAAAEXFpgxY8b58+eFNET4v5999tmcOXMSExOjo6NDQkKC+ec0AgXfvCL8DZ6YGdE3uj75kGx17ta1wcxWrZSGIGMXTtHW6LZ+tycwrsG9G/EZ/Xb+sF9boxswMrXB4SonfdzJDRupCPZO2fF4+uczFcHXb4Fpqi8m1gQRQpD+kuVC1NlR2ScK4l/KNjp74KOxzYYgB2aLhX0SAjXH8gZ8MEHYo8qOyq4oiFuWKRaIWpCa84XlIYjfoOtjagiAxmUfz/e5vhKqNARRaSI1x/IGbXnMM6hBECY2o8kNQhAX/pWn6QgggAAC1hYgBLG2KPUhgAACdhcIDg5es2bNzz//LE1D2HZmgSNHjkiij/rN9rfdajSJlYYghoVR/2pYGHXOigXSYjNezDc8IrdaP2SC8z7iRNpgc7YTXhueXWF48kvwuPiAjHDxsgjpsTcIQY7lx7+UI5b36ReUUTq7r2SP8JaJECRl2xTxcEWob4Y+d9CmiXVHjYrL+WJ+yJQksUDI5MSck/MtvB3maJ53X7VYVcLrw7OPF/j2r3scjBCChD/RP2hMXNqeJzL1uS1deYQQxO6/ypwQAQQQQMB5BQhBnHdsaBkCCCBggUDv3r3HjBnz1ltvffzxx/v27TvAP6cR+PM/zgl/hyuOfrDxw/rkQ7J1e8fbxZmwsCENQTxVyiXrntdW64oulk168omg+LCQxIhZL883PBqmWldcrU+bVD/nN6rHFV/2e3tU5uHc7BOGtT+yKwoSXh2mCK1fksNTpWxRCNKcQKtCkMmJYrWhrQtBfG4UggiLnmjK8/uuGCqe1MwNQhALfks5BAEEEEDAXQUIQdx1ZOkXAggggIBzCUjXBHkkwOumdu0k6Ufd5v2KB4ymtc+8/1LJ5cMrCt8S9nuH+q/cu77k8iFtjb7oYlnRxTJtja740iHDRrXOna4EEfqrjPTz7qsOm5E84MMJmuP5Ca/UrXta927zj8gVFkaVXgliBCu+tCwEUQ+PyamYFy1ZTjVsRv9sS2+HyTqad8MQxH9wqDLaf/AnkzUnClRD65dNFTtiYoMQxLl+C2gNAs0I9GxmP7sRQMC6AoQg1vWkNgQQQAABBJoWkIYgnirl/V4PGoUgne7o3HgeG54cvWzTiti0+isOvIJ88l5fsvlUkRCCbD5VNPvl+Zu+KSy+pB88JqNxDS66x3D/i2TZC0WwT9qeGamFU6XdceCVID5JgVnH8lKLpipjAgzXpET5pxZNy7b46TBH83wS65+t2++tRzXNrAniNzg060jeEO10cQlYKUhz24QgTX8n2YsAAgggIEsBQhBZDjudRgABBBCwu4BRCOKpUj7k59mtR/eOXTp16d71N4/c39wMtsn9vmEBqphgVUywb5hhEh7aLyptUrYi0NQyok3W45w7FWG+GftmDSmerozyF1romxyUqcsdvOWxBg0O8s48lDvok8kNdl5bQtX8K0HUQ6OzK+ZFLTReUzZ93ywTa4J4qpTxf8jJPjlPcyw/o3R2dsW8fm+PsvjpMFnl+Ul/HOkZaFjr1H9IeIZuTmbZHK9IP6Ff0oVRPVXK2N9mak4UxD5XvyZr4+4b7SEEsfvXnRMigAACCDivACGI844NLUMAAQQQcCeBxiGI0UyVl1KB+Bc1muOG1UAyD83JPJSrOVGgKc8PHtdXWsZTpUx8c6TmeH7duiEn50XMGSgUuGEIkrLz8QzdHEPcoM/VlOdnHs4VXg7cWLf06Q1DEEP2NCVpwPvjkt8fHzyub2vWBMnU5Q54f3x2RUHW4bma4/ma8vzI/EFiT41CEM9A79TCaZryfP8hYWIZ0xuEIO70S0JfEEAAAQRaKUAI0kpADkcAAQQQQMAsAUIQ0xN143fVSlVOVNIbI5PXj01eNzbh1eG+ycHGZVRKRbB39OLU5HWGMsnrxgaNjhPK+PRV939nTPjsukyk8YEJrw4Xj5JuxL9Y9wzdpDdHNlhSJNi73+rRccuyGlcl7Al5LNFwO4xkqdTmShrtH/DB+KzDc336qqPmp/R/Z0y/VaNU2Q2W/Iicl5K8fqx3nEo80D81LHn92LgXmm2MWFLYIAQx6ytKIQQQQAABeQgQgshjnOklAggggICjBQhBjGbmbvYy/nea7BMFKk1kS/tlCEEaLoza0hpuWJ4QxNHffs6PAAIIIOBEAoQgTjQYNAUBBBBAwI0FCEFuOFd3rQLK6IC0vTMy9s00/B2ck10xb9Anj3mqlS3tBSGIG3/r6RoCCCCAgBMKEII44aDQJAQQQAABNxQgBGlpOuDk5ZWR/gM+nDBo08RBmyYO3Dgx9reZ0sfZmN/4+JdyBn44UXjKjPlHtagkV4JIflB4CKkEg00EEEBAlgKEILIcdjqNAAIIIGB3AUKQFs3bKWxFAUIQu3/dOSECCCCAgPMKEII479jQMgQQQAABdxIgBLHirJ6qWiRACOJOvyQu3BeuwnHhwaPpCLiVACGIWw0nnUEAAQQQcFoBQpAWzdspbEUBQhCn/VmgYQgggAAC9hcgBLG/OWdEAAEEEJCjACGIFWf1VNUiAUIQOf7i0GcEEEAAgWYECEGagWE3AggggAAClgpkZmYWFRX5+/tLKyAEadG8Mia/UAAAIABJREFUncJWFCAEkX4T2UYAAQQQkLkAIYjMPwB0HwEEEEDAygIKheLixYu1tbUbNmyQVk0IYsVZPVW1SIAQRPpNZBsBBBBAQOYChCAy/wDQfQQQQAAB6wj06dMnJyfn6aefPnPmzK+//lpbW7t8+XJp1YQgLZq3U9iKAoQg0m8i2wgggAACMhcgBJH5B4DuI4AAAghYR6CioqL22r9fr/+bO3eutGpCECvO6qmqRQKEINJvItsIIIAAAjIXIASR+QdAHt3nkWzyGGd6iYBjBcaNG7d3795du3Y99thjlZWV//3vfxMTE6VNIgRp0bydwlYUIASRfhPZRgABBBCQuQAhiMw/AHQfAQQQQMDKAg8//PCFCxf+85//xMXFSasmBLHirJ6qWiRACCL9JrKNAAIIICBzAUIQmX8A6D4CCCCAgJUFFArF5cuXf/nll4iICGnVhCAtmrdT2IoChCDSbyLbCCCAAAIyFyAEkfkHgO4jgAACCFhZwMvL68qVKz///HNoaKi0akIQK87qqapFAoQg0m8i2wgggAACMhcgBJH5B4DuI4AAAghYWcDHx+ef1/4FBgZKqyYEqZ+3q5X12yq2bS5ACCL9JrLtGgIs6OYa40QrEXBJAUIQlxw2Go0AAggg4LQCvr6+//rXv/7xj3+o1WppIwlBCD4cJUAIIv0mso0AAgggIHMBQhCZfwDoPgIIOIUA/8XLKYbBSo0gBHHUVJ/zNidACGKlLzfVIIAAAgi4gwAhiDuMIn1AAAEEEHAegYCAgKtXr165csXb21vaKq4EaW6Kzn5bCxCCSL+JbCOAAAIIyFyAEETmHwC6jwACCCBgZQGVSvWf//zn8uXLXl5e0qoJQWw91af+5gQIQaTfRLYRQAABBGQuQAgi8w8A3UcAAQQQsLLAjUOQtEjPQG/+ELCbgHdUgJjBxTX6p1AorPwdoDoEEEAAAQScWIAQxIkHh6YhgAACCLigwA1DkLDR8X5JgfwhYDcBVUooIYgL/pbQZAQQQAABmwgQgtiElUoRQAABBGQrEBAQ8O9///vixYuPPPKIFEGchYaMiPWJC+APAbsJ+CcHix+/RheCxHEliPR7yjYCCCCAgJGA+63fTwhiNMS8RAABBBBAoFUCvXr1SktLi4+PN6pFnIWqUyOaW7uB/QjYQoA1QYy+jLxEAAEEEJCzACGInEefviOAAAII2E+AEMQW03vqNEeAEMR+33POhAACCCDg9AKEIE4/RDQQAQQQQMAtBAhBzJmuU8YWAoQgbvETQicQQAABBKwjQAhiHUdqQQABBBBAwLQAIYgtpvfUaY4AIYjp7ybvIoAAAgjISoAQRFbDTWcRQAABBBwmQAhiznSdMrYQIARx2NeeEyOAAAIIOJ8AIYjzjQktQgABBBBwRwFCEFtM76nTHAFCEHf8RaFPCCCAAAIWChCCWAjHYQgggAACCLRIgBDEnOk6ZWwhQAjSoq8qhRFAAAEE3FuAEMS9x5feIYAAAgg4iwAhiC2m99RpjgAhiLP8CtAOBBBAAAEnECAEcYJBoAkIIIAAAjIQIAQxZ7pOGVsIEILI4AeGLiKAAAIImCtACGKuFOUQQAABBBBojQAhiC2m99RpjgAhSGu+uRyLAAIIIOBmAoQgbjagdAcBBBBAwEkFnC0EUaiU5syfKeMGAoQgTvqjQLMQQAABBBwhQAjiCHXOiQACCCAgPwFnC0HcYG5PF8wUIASR3+8NPUYAAQQQaFaAEKRZGt5AAAEEEEDAigKEIGbO2ClmdQFCECt+kakKAQQQQMDVBQhBXH0Eab+bCvR0037RLQRkLEAIYvW5PRWaKUAIIuMfHrqOAAIIIGAsQAhiLMJrBBBAAAEEbCFgnxDEK8jH8BfoY+b0WCymUHsrg3wVzR+oUHt7BflaULN4CjYcJUAIYotvNHUigAACCLioACGIiw4czUYAAQQQcDEBy0KQ/sMGL3lnmW9YgKdKGRAVGJwQEZwQ7huuMppOe4f4TXs+d+3hTVvO7t763Z4t35Ys27TCJ9RfLKZQe2umjohJTQiICip448k/7v/Tyt3rJiyZ5h3i5xMWMP353A1fbN/1Y+lHZ4ofe3qGQu0tHuipUvpFqPJeW7Lhi+3bzn++9bs9q/a/F5/RT1qAbTMFfBLUymjDUNr5jxDExX4saC4CCCCAgC0FCEFsqUvdCCCAAAIIXBewLAR55/Dm3VcO572+9PmPXtn63d6i6rKii2Ufny6esGSadCL9WvGa4hp90cWywp9Kd/14oPDCweJL+uc+XO55Pc6IGBhbXKPf8df9m08VCiWLLpaVXDr0+p517x7/pO7YCweLLpZpq3WaqSPEyv0iVO+Wbymu0WurdcK72mpd4U8HM6cME8uwYY5A+MzknJPzMvW59s9BCEGufwv5XwQQQAABBDwIQfgQIIAAAgggYA8By0KQ329dqa3Waat1hpyiWvfJ2d2fnN0j7Bk+a4ww9+43dJC2Wr/pm119s/oL14zEDEnYVvXZJ+f2BEQHCWXCk6MLrwUcxTX6tYc3xwxJGDQ6fecP+7U1hso3/nlXUs5AVXTw85tf0dbo1uo3eQUZbqhRBPos3/WWtlq364cDjz01Iz6j35DxWR98uUN7rSUBUYHmTP7do0z8SzkpW6d4xxtfg2N+7yILBuecnKcpz/eOs7wS808nLUkIYo9vOOdAAAEEEHARAUIQFxkomokAAggg4OICloUgz21cLkQeG/+8K3JQnKdK6RXo8+KW17XVutdK1goT3cVrl5VcOTzrD/PFea93iN/7J7cVXjgo3rcSmhRZeOGgtlq346/7g+JDhZIv71xl2PPD/pCECGFPxMDYwgul28/v8480BBwRA2IMR13UDZ05WqxcFR300Smttlo3InecuNPNN9TK5HfHaY4X+CS1IvcJ9PZPCW1VDZbeR0MI4uI/HjQfAQQQQMCaAoQg1tSkLgQQQAABBJoTsCwEWbZphXAfysjc8WLQ8GjehGuXbxQKe0ISIyY/PdM33LDYhE+of2B86JwVCw23xlw4OHBUmlCmLgSp0S1Z97xYz+yXF2irde8c+Ui47sNTpVRFB39a+VnhhYPq2BBPlTJ/5dLiGv2HX+2IGBgTkhgRFB8m/K0ofFtbo1/yTn1VYp0uuqGM8vdJUPskBPr0VXtF+Im98Ar3M+xMCEx+f3z28YKA9HDhpU+C2lNdt7SHd0yA4aVKeW0j0Dte7RnYYNUPn77Xar5Wj3dfQ0npn+EUiYGeQd7XzqX26atWBDda11at9I5X+SQEescariLxSVC36HISQpDmvpVuv59nzbn9ENNBBBCwQIAQxAI0DkEAAQQQQKDFApaFIK9qVwuXb6jjDKmE8Jc8MlVbo/votFbc4x3i9/hzs98++MGmbwp3/XhAWMJDW12WPW2kUEYIQf63VkjUYMPlJMJf7opF2mrdav2HYgjiF6necqak6GLZoNHpnirlS9ve1F5basRQYY1u14+lwl/hT4aLSpaue0GsyqU3ohcPydTlZlcUZFfM05woyCidHTSmTslwD8sX87JPztMcz9eU5xvKnLz28lj9XS0D3huXdSw/amFq1pG52RXzssrzB3wwQRFSF2R4hflm6nOzK+YJf+kHZhlZRS0ekvPlgojcgZkH5wgNSNs7w29Q/XB7Gq5DGZt1LN9Q+ZG8mKfSs47mpe6calSPiZeEIC3+unIAAggggID7CsghBCEEd9/PLz1DAAEEXEfAshBkddmH2mrdlm9L/CLqF5JIHpFSXKP/+EyxMO+NGBCz5duS3VcOF9foC38s3Vq599XiNZ+c29M4BNn51/2B1++FMVzo8fpSbbVujX6jGIIERAVuPben6GJZ2sRsT5Vy5d51wjKoO384UHThoPi368cD75ZvCeobbmLi7Spv+Q0MyTqWl1o0TZUTFZAeHjg8Ov3ALHHlDu84lSorMiAzYuDmSZry/OBx8aqsSGGPZ1DdM3SS3x2beSh38NbJ6qHRAZkRA94fl32ioO+KoXUCaqX/kLCA9HD/lLD0A7PSPp9hJBO1MFVzomBI8fSIvEEBaeGxy7I05fmphdMU1+uPXjpEc6Jg0EeTArIiA4fFpOx4PPPw3JRtjxvVY+IlIYjr/E7QUgQQQAABmwvIIQSxOSInQAABBBBA4IYCloUg7xz5SFut23yqUFjxVJjoDh6boa3WffSXuitBXtGuLr6kX3Xg/fjMfmLG8VrJ2huGIJOfmamt1r1/8lNlsK9Qc0B0kOEZNBfLhFVCnlz/QvGlQyv3rvOPCgztFxnWP0r4U0UHiYeYmHu7xFuhU/tpjucHjY0XW+vdV+2fEipeymHYb3JNkOR3x2ZXFPinhtXVEKhM2/1ERtkcMcUQa07fP7O5ECSyYLBYLHn92Kyjeb4DgoU9Q0qeyCybI7bHd0CI5ng+IcgNv3EUQAABBBBAoEkBQpAmWdiJAAIIIICAlQVaE4K8f3KbT6i/OEkeM/+xa+HFNsMqHjHBW7/bU3jhoPRSkeiU+O1/3aet1g2dUbegqXA7jNGVIBOXTNdW6zZ8sU1MNNSxITv+ur/wp7o1QTKnDNNW6/53GUjEwFjx7Mog37cObtDW6DLc4im5/kNCNcfyBn862W9AsHdsgJg1iP01bNwoBMk8MtcrrC5I8lQp+78zJutonld4/doiQm3NhSDZFfNUOVHiGWOezdSU5wUMqUtVMg7MGvzpZPFdRahv5qFcQhArfz+pDgEEEEBANgKEILIZajraCgFuqWoFHocigECdgGUhyMq967XVuvdObPWWhCDTluUaFjQ9vNlTpfSPUH/8bXHxpUOTnnxCmCeHJEZsOrXL8EyZGv0Tv8sTdgYnhO/8YX/hT6XBCfX3sEx68gmjECSob9iuHw/s+rFUFWO4DME3XLXhi+3aat2fTmwNiAryCvTxDvV/8RPDs2l2/VgandJXnJm78IZaGfu84Q6U7BMFWUfmpu2d0f+dMV4R9ZGToWstDEG841S+/eseTiyVMRWCaCQhyDMZxiHIJ4Qg/JIggAACCCBgHQFCEOs4UgsCCJgWIEgy7cO7chCwLARZe2iTtka3RrdRvFjDU6XMe22xtlr31sENwgTb8AyXS/qdPxx4eeeqNz9fv/OHA8WX9O9VfGpYTOTs7leL1/iGBQTFh20//3nhhYPRg+vv+xi/aGpxjV56JUhIYnjhhdIdf93vH1X3LNgETfLOH/YbVhu5cPCj09r/La0qLJI646UC6fTe1bd9EgJV2VFRC1MHfzpFc7wg7fOZ0mfEtDQEaU7DkhBErUw/MCu1cJpYp+FKkMNcCSKH3wz6iAACCCBgEwFCEJuwUikCCCCAAAJGApaFIFOX5e76qXTC4vo5sOFui+EpH5/WTn66bolNryCfxWueK7xgeGLLtXVMSwveeDIgOujd8k+Kqss2nyryjwpUBvutOvD+5r8UBfW9vnSFSukXoX5mw0uaqSPECbZPWMBbpRuW71zlFVR/c0dcetLGr3cWXSwTHta75duStAnZ4gNixWPdZiPu+SzN8XyVJrK+Ry28EqT+wOsP4hH2WBKCqJSDtkzWHM/3TwkVKgkaHcuaIEZfLl4igAACCCBgvgAhiPlWlEQAAQQQQMByActCkOam0433hyRGJA0dlKBJDoiuuxHDK8gnJrWvb3j9Y2UaH2X+nrj0pH7DBsWmJYqPkjH/WGcuGb1kSMq2xwMyIsRGxr+YrTlRoMqShCAqZdKqRzXHC3yT6xYrFQt7qgzPrzVaE0T6rnQ7fV/TC6Ma1gRp/naYwJExmvL8TH3ugA8mDNo0ccieGRk6rgSx/JvIkQggYEMBLv21IS5VW02AEMRqlFSEAAIIIICACQFbhyDSyTbb5guoc6KyjuVl6ucM+mjSgA3jB386JetoXtreGYrguifgClWFTE7MrpiXtnfG4K2TB2+dkvzuWM9AySNyGy6MKj170Oi4ARvGD9gwPvn9cZmH52Yenpv8/jhhj9/AEE+VMmphqukQxFOlDBwRk7bniayjeYM/neKXEsrCqCa+aLyFAAIIIICAaQFCENM+vIsAAggggIB1BAhBpNGAU237DwkbuGliln5u1qG5GQdmJ7w2XBndcGHUa3e1hM9MTt83y1BMP3dI0TTPoLoQpP+a0RkH50ifDiPtneERvIfzsg4ZKheOFbY1h/MC0g2L1EYWpGiO5Adk1V+KEr00LUs/V7z/RVqbp0p5/ekwU4z2m3ipjPAXP35xjf4pFArrfMSpBQEEEEAAAVcQIARxhVGijQgggAACri8gzkLVqfXTXRMTV95CoEkB7zhV1tG5ye+Pb/LdJncSgrj+74dRD7jlwAiElwgggEALBAhBWoBFUQQQQAABBCwWIARpcn7OTnMEIuYMTH5njPA3RDs9+0RB2Iz+5hwolCEEsfhry4EI2EGATMsOyJwCAakAIYhUg20EEEAAAQRsJUAIYv6knZJGAn1fztGU52uO5WvK8zMOzAqZnNiip/MQgtjqW029CCCAAAIuKEAI4oKDRpMRQAABBFxQgBDEaGLPS7sJEIK44A8GTUYAAQQQsJUAIYitZKkXAQQQQAABqQAhiN3m/JzISIAQRPpNZBsBBBBAQOYChCAy/wDQfQQQQAABOwkQghjNzHlpNwFCEDt9yTkNAggggIArCBCCuMIo0UYEEEAAAdcXIASx25yfExkJEIK4/u8HPUAAAQQQsJoAIYjVKKkIAQQQQAABEwKEIEYzc17aTYAQxMQXk7cQQAABBOQmQAgitxGnvwgggAACjhEgBLHbnJ8TGQkQgjjmO89ZEUAAAQScUoAQxCmHhUYhgAACCLidACGI0cycl3YTIARxu58TOoQAAgggYLkAIYjldhyJAAIIIICA+QKEIHab83MiIwFCEPO/p5REAAEEEHB7AUIQtx9iOogAAggg4BQChCBGM3Ne2k2AEMQpfgJoBAIIIICAcwgQgjjHONAKBBBAAAF3FyAEsducnxMZCRCCuPuvC/1DAAEEEGiBACFIC7AoigACCCCAgMUChCBGM3Ne2k2AEMTiry0HIoAAAgi4nwAhiPuNKT1CAAEEEHBGAUIQu835OZGRACGIM/4i0CYEEEAAAQcJEII4CJ7Tuq9AT/ftGj1DAIHWCBCCGM3MedlyAa+WH6L0VCkJQVrzzeVYBBBAAAE3EyAEcbMBpTsIIIAAAk4qQAhi2QSeo1ovQAjipD8KNAsBBBBAwBEChCCOUOecCCCAAALyEyAEaf1knhosEyAEkd/vDT1GAAEEEGhWgBCkWRreQAABBBBAwIoChCCWTeA5qvUChCBW/CJTFQIIIICAqwsQgrj6CNJ+BBBAAAHXECAEaf1knhosEyAEcY3fCFqJAAIIIGAXAUIQuzBzEgQQQAAB2QsQglg2geeo1gsQgsj+5wcABBBAAIF6AUKQegu2EEAAAQQQsJ2AGIKEjY73SwrkDwG7CahSQsWPX1yjfwqFwnYfe2pGAAEEEEDA2QQIQZxtRGgPAggggIB7CoizUEIQu03+OZEgQAjinr8p9AoBBBBAwCIBQhCL2DgIAQQQQACBFgqIIYg6NaL1NzhQAwLmC3A7TAu/rBRHAAEEEHBnAUIQdx5d+oYAAggg4DwChCDmT9opaV0BQhDn+R2gJQgggAACDhewOATp6fCm0wAEEEAAAQRcSIAQxLoTe2ozX4AQxIV+KGgqAggggICtBSwOQWzdMOpHAAEEEEDArQQIQcyftFPSugKEIG71U0JnmhXgv9E2S8MbCCAgFSAEkWqwjQACCCCAgK0ECEGsO7GnNvMFCEFs9a2mXgQQQAABFxQgBHHBQaPJCCCAAAIuKEAIYv6knZLWFSAEccEfDJqMAAIIIGArAUIQW8lSLwIIIIAAAlIBQhDrTuypzXwBQhDpN5FtBBBAAAGZCxCCyPwDQPcRQAABBOwkQAhi/qSdktYVIASx05ec0yCAAAIIuIIAIYgrjBJtRAABBBBwfQFCEOtO7KnNfAFCENf//aAHCCCAAAJWEyAEsRolFSGAAAIIIGBCgBDE/Ek7Ja0rQAhi4ovJWwgggAACchMgBJHbiNNfBBBAAAHHCDh/CKJQe5uee9+wgOnDeddRAoQgjvnOc1YEEEAAAacUIARxymGhUQgggAACbifg5CHInBULt363N2Py0CYn6sog31eL13z41Y7QpKgmC7DTmQUIQdzu54QOIYAAAghYLkAIYrkdRyKAAAIIIGC+gJOHIGv0G7U1uunP5wqTeb8I1biFU/oNHSS8DEmM2PnDfm2NLnlkqjPP9mlbkwKEIOZ/TymJAAJ2EOhph3NwCgSaFyAEad7Glu/wzbelLnUjgAACzijg5CFI5pTh01+YG5wQLsyi+w0dVHxJv3Lveq8gH0+VUhHoPWHx1ElPPtHkHJudTi5ACOKMvwi0CQEEEEDAQQKEIA6C57QIIIAAAjITsDgEabASh1rp2eqVOwwVqpWm5+19s/oX1+jfOrhBGeRruqThXUOrblDhjStRUYOtBAhBZPZjQ3cRQAABBEwJEIKY0uE9BBCwlwBXR9lL2lrnYcRaLmlZCPJo3oQNX26PTUuIGZK45J3nN3yx/cOvdixZ97x4yYY0XHh07oQVRavfP/np63vWjZgzTvqWp0oZnBA+e/mCVfv+9MGX29foNs7/49MhiZFimeQRKXOWL4gaFOepUnoF+mimjSy+pH951yqxwIg545743VyfsABxj6dKGZ3Sd9Ga59Yd/XjdkY/mvflUQFSQ9F3NtJGJ2QOke9h2iAAhSMu/rxyBAAIIIOC2AoQgbju0dAwBBBBAwKkELAtBXitZW3L58JK1y4ouHtRW68S/T87tCetXv0apT1jAiqK3d185rK3WFdfotdW63VcOP/G7PHHKnTF5qHisUEBbrdvx133hyTFCmTc/f1dbrZv72hJPlXKNfuPevx3VVutKLh8+8O+Tb+xdr44N2f795yWXD2mmjRTrHDpztPbauYSai2v071V86h8VKBSIS0/afeXwR6eLo1P6Lnjr2U/O7t595fDGbwqnPDtLGWzG1SVud2GIelj00K8WDNFOVwQb7jCy5x8hiFP9FNAYBBBAwJQA/53JlI513iMEsY4jtSCAAALuIsD/22urkbQsBHlu44q6iOGSftX+94bPGTcqf+LGb3Zpq3Ur964XJtIKtfcLW17TVusKLxyc9Yf5WVNHzHvzyeIa/a4fSwc+OsRTpQxJitx+fl9xjf79k9smPTk96/Hhw2eP/fCrHcWX9C9ufV243Wa17kNttW7WH+Z5qpQL3np2w5fbr6Uk+7dVfrbw7WeD+4bv/GF/8SV9ythM4aSp47IKfzpYcunQyr3rh88eOyp/4pazu7XVuuc3vyIUiBwYV3ThYNHFsl0/lWqrdZ/949ievx3d/f+OaKt1L21/054RgFXOFTYzOe65TGWkv8W1RT+Zln2iIOfkPJ+kBtfLWFyh+QcSgtjqW029CCCAAAIuKEAI4oKDRpMRQAABBFxQwLIQZNmmuhBk3dGPxElvYvaAootlhT+VhiRGeKqUKeMytdW6nT/sHzgqTSwjHLhyzzpPlXLQqPTiS/pdPx4IiK6ffk99bk5xjf6Dr3b4hBom9tIQxFOlTNAkF1/Sv/HZeiEiCUm4FoLU1IUg3sF+71Vs1VbrXvj4VfGMA0amFl44WHShLPLaPTVh/aN2/nDAkODU6F7f/U5ceqKnSvlo3oSii2X/S0akl7GINTjvhlqZ/O44zfECn6S661wsaKoi1Df2ucyw6f0tOLaVhxCCuOAPBk1GAAFXE+C/IrnOiBGCuM5Y0VIEEEAAAVcWaE0IUnSxbPjssdKZ8PsnP919+fCYeZM8VcqVe9eXXD60dP0L0gKxaQmFF8q2f78vICowapDhogxttW79sY8nLp0urCfiE+o/umBS/2GDhaOEEGTmSwXCy6ScgcU1+rfLNgi3roghyOAxGZ4q5YCRQ7TVui3flqhjQ6QnfbV4bcnlQ7mvLPJUKcUQZNM3hcIjZjxVSt9w1ZYzxSWXD41fNFV6oPNv91s3Jvt4gXe8yvmb2riFhCCu/MtB2xFAAAEErCxACGJlUKpDAAEEEECgSYHWhCBbz+31i2gw/X55xx9LLh+a++qikMTw7d/vK7pQFjEwVjr79Qry+ei0trhGP+ja5SHjFz2+80fDdRnFl/Sf/ePY5lNFU5/PFS4kEY5atf99bbVu3h+fFl4KT4d5+2BdCBLUN2z7958XXzr0aN4ET5VyybrnSy4fevaDl6Rn9FQpp/x2VvEl/YrCtxWBPlGD47UXy7TVuuc2rZAW+9OJrbuvHH78udnSnY7dVg+NTtn++NA/Lxx2alHOl/MHbpro27/ukpmo+SnD/7J42KlF2RUFmvL8Yd8Yygw7tWjolwvEQGTgxok5X84PGhWX9vnMYacWZR3Lj1qUKj4uxyvMV3O8QDhq2KlFmfpco85GL00bfmZJ8ISEgR9OGPrNopwv5if9caQyqsF9N5H5g7OO5A07tSh936ygsfHZX8wfUjzdqB4TLwlBmvxKshMBBBBAQJ4ChCDyHHd6jQACCCBgbwGLQ5DiGv3qsg+MFhN9buPyksuH5q96JjYtsehi2dbv9jSeA2/8ptAQgoyuu0cmKD5s6nNz1h39+LN/HCu5bFhCdecP+8ctnCIcuKLwbW21bv6quhAkZkiCtlr3bvkW7xDDbDwgKvCTs7tLLh8adS0EWbHrrd1Xjkx5dpbRSScsnlpcUxeCCDUY1hl5eb602Brdxt1XDs/6Q4Od0gJ23vbuq87U52aUzYlemhZZMCj2mYysI3MzyuZ4RfgZOp4REbM4LXrRkNTCaZry/LhlWTGL0wx7FqYqwuqWd01+d2ymPje1aFrMk+lRC1PTdj+hOV4QtTi1riNB3hG5AyMLBkfkDswom5P2+QyjDkYtTNWcKEjdNTVp1aie8dLcAAAgAElEQVTIgsEDNkzQnMgfuGmiZ6C3UDJ0ej/N8YL0z2dGLRwS81R62mczMvW5KdseN6rHxEtCEHt/2zkfAggggIATCxCCOPHg0DQEEEAAATcSsDgE0dbo1x7aZBSCvHVwQ8nlw9NfmBuT2rfwwsFtVZ+Llx4Ik+GQpIjt3+/b9WOpKibYaHrsHeo/Ycm0dUc/FpY+DUkyLCxiFIJEDIjZ9VPpxq93Cs/ENQpBXt65yvD0mRfzjWp+cv0LJZcPC5eTxGckCY+qeezJJ6TF3qu4diXIb53lSpDQKUma4/khkxLERgZPSox9LlO80MOw3+SaIMnvjs2uKFAPjxZqUIT6ZBycnX5gltGIeKqU6ftnNheCxC7LEhswaMtjmYfneifWrT+SsnNq1tG53nF1lwIFZEZojhcQgrjRbwNdQQABBBCwqwAhiF25ORkCCCCAgGwFLA9BqnU7vt8fNThenCTHpiYYHrlyUZegSVYG+275tqT4kn7EnHFiAU+VcsKSadcWAdniqVIqg32XbX7llaLV3iGGqxuEv+CEa/fRXCwbNnN04xAkMD502/nPt57b4xehbnwlyBO/yzesGHJwg1dQ/cNu1bEhn1buLa7Rp0/K8VQphRBEW60bt6DuYhNPldIryGfzqSLDmiCLnWVNEHVOlKY8r9/bj5p6cu2NQpDMI3O9wuttB7w3TlOeL90jmDcXghgylBF1zyr2VCljn8vSHMsLGBImHJVxYFbKjvrrPhShvpmHuBJEtj8kdBwBBBBAoLUChCCtFeR4BBBAAAEEzBFoTQiirda9vmed8BgX33DVG3vXa6t1a/QfCpPkua8uLq7R/y8Kibr2WBbheTE7/rpfW62buHSap0ppuKzjx9LiS4eWrntBXKN0yARN0cWDhT+V9hs6qHEIEhAd9PGZ4u3f7wvqa5iKG10JEtovcue1+sW7WnwjVK8VrxHuoBFaFZuWKDzc99G5hmVEhL+AqKBPzu0uvnRoxOwGkY1YwP4bimCf5PfHZ1cUDP16QXrprH5vPxr6eJJxIGJOCHL97hhPlTJodFxE7kDF9ftZxE41H4LMU2mixGIxz2RoyhuEIIM/mSy+SwhizteNMggggAACCDQnQAjSnIxL7+cBTS49fDQeAQTcU8CyEGTJ2mVClKCt1n10WvvStjc/PlOsrdYVXjiYlDNQmBj7hav+dNzwwNpdP5a+VvLOu+VbhPtQVh14X7yJZsaL+SWXDxke6XKm+KVtb775+btFF8uKa/RvldYtffrKtTVB8lcuFSfbaw9t0lbrlu96KzA+VAhBii/ph80cIxR4/Leziq9V+F7Fp68Vr93+/T5DA34qFR83U3clyMWynCdGiXUG9w3f8cP+4kv61PH1d3+I7zpsQ60MHBkTvTSt/9oxmbo52RXzBn38mCKobkkOQ6taGII01xFLQhC1MqN0Vsp2yZUgIVwJ4p4/EfQKAQQQQMA+AoQg9nHmLAgggAACchewLATJf31JcY3+ncObt3xbIqQhxTX6j88Up03Mls60A+PDXt+9TlujE8oUXSz73ZbXhCtHxGLTX5i7rfIzbY2+LlWp0a09tEm40MNTpZz76uJtVZ8PnWG4NUb4y3p8+K6fDu6+cjj3lUXKIN839q7fdKowPLn+ro1pz+fuuJZ9CJnLh1/vTJugEQ8PSQzfdv6zLWdLhCfyCvt9w1Xrjn70ydndEQMaPMtGPMoZNvq9PUpzPD8g07BUSt2fA0MQlTJl59TMw3O9rj8vJiA9XHM8nzVB5P6DQv8RQAABBCwVIASxVI7jEEAAAQQQaIlAa0KQ5TtX+YYFDJ0xatzCxzOnDJcu7SFO1BVq75jUvhOXTh82c7Qh2lBfn8CLM3mV0ic0QDN1xORnZk566onkkamKQB/xcE+1UilZ4EPYr44NGTt/srC0qiLQW7yVRjzKJyxg+Kwx4xdP7TdsUON3lUG+0kVDhKO8An0a7xQrtP9G6NSkvn/I8Y43LH0i/EUvTdMcL1Bl19+f4qlS9lszWnO8wDuhbrFSsbCnSml4OsyRuV6S22Gk70q3LbkSRKUMm9E/+0TBkJLp0UvSYp5OH7JnBmuCtOSbR1kEEEAAAQQaCBCCNODgBQIIIIAAAjYSsCwEmfn7guJL+uU7VzUILK5P16UTbLYtExCeDjOkeHr4zOTQqUmR+YMyD+Vm6HOV0YZnA4t/kQtSsivm9Vs9KmxGcvjMAaFTksSYyXQI4ts/KHRqUujUpJDHEjMOzsk4ODvkscRre/opowM8VcqohanZFabWBLm2VGpmpn5O9omC9P2zQqf1IwSx0ZeUahFAAAEE5CBACCKHUaaPCCCAAAKOF7AsBJn8zMySS4cIQcQwwvobamXYjOT0/bOGnVo07C+Lhn61YPDWyf6pdU9mkZ6u7/KhOV/MH3Zq8bBTizN1czyvLxoycOPEnK8WeIXXPyhHelT47AHD/7J42F8MlRtOce0sw/6yaPjpxSpNpKdKGb00bfiZJeqh9ReexD2vGfbNooD0cGk9imAfw1+Qd93CqJJVQqTFmtxWRviLH7+4Rv8UCoXjvx60AAEEEEAAAXsJEILYS5rzIIAAAgjIW0CchapTJYtNSK41aHL6OvmZWcU1+td3v+MlvXXlRkc1WRU73UNAGemfeWTugA3jze8OIYi8f3voPQIIIIBAAwFCkAYcvEAAAQQQQMBGApaFIMkjUraf/3za87nmz3gp6X4CgSNiogoGC3/91ozOPlEQvXSI+d0kBLHRl5pqEUAAAQRcUYAQxBVHjTYjgAACCLiegGUhiPkTXUq6sUDC8qHZFfOEv6zDcxNeG97gCb43ujKIEMT1fi9oMQIIIICAzQQIQWxGS8UIIIAAAghIBAhB3DiksHXXDEuBhPjU/QVLnulzo/hDaBghiOSLyCYCCCCAgNwFCEHk/gmg//IQ6CmPbtJLBJxagBDE1kkB9TcnQAji1D8NNA4BBBBAwL4ChCD29eZsCCCAAAJyFSAEaW6Kzn5bCxCCyPVXh34jgAACCDQhQAjSBAq7EEAAAQQQsLoAIYitp/rU35wAIYjVv86uUiEXgrrKSNFOBBCwpwAhiD21ORcCCCCAgHwFCEGam6Kz39YChCDy/d2h5wgggABpaKPPACFIIxJ2IIAAAgggYAMBQhBbT/WpvzkBQhALvtDMGixA4xAEEEDAJQQIQVximGgkAggggIDLCxCCNDdFZ7+tBQhBXP7ngw4ggAACCFhPgBDEepbUhAACCCCAQPMChCC2nupTf3MChCDNfy95BwEEEEBAdgKEILIbcjqMAAIIIOAQAUKQ5qbo7Le1ACGIQ77ynBQBBBBAwDkFCEGcc1xoFQIIIICAuwkQgth6qk/9zQkQgrjbrwn9QQABBBBohQAhSCvwOBQBBBBAAAGzBepDkCERzU1W2Y+ALQSUkf7ixy+u0T+FQmH2p5iCCCCAAAIIuLwAIYjLDyEdQMCDJez5ECDgCgLiLDRIE22LiS51ItCcgG+8Wvz4NcpA4ghBXOH3gzYigAACCFhNgBDEapRUhAACCCCAgAmBR/fPFyaiERP7NTdZZT8CthAIGBRGCGLiu8lbCCCAAAKyEiAEkdVw01kEEEAAAYcJpPxxnDARTV832RYTXepEoDmBmBmDhM/ehIqnuRLEYT8BnBgBBBBAwDkECEGcYxxoBQIIIICAuwt4DwgSJ6LNTVbZj4AtBMboFgmfvew1UwlB3P2Xhv4hgAACCNxAgBDkBkC8jQACCCCAgFUEfqPoM+Hk08JcNHRkvC3mutSJQGMBv8S69G3iF88kjxtCCGKVrzOVIIAAAgi4rgAhiOuOnTktZ8FMc5QogwACCNhJQPPxdCEEGVf+pDLcr/F8lT0IWFdAEewz9vAS4VM3/sjSuPjGGQgLo9rp689pEEAAAQScRIAQxEkGgmYggAACCLi/QG/P+4Xp6MQvnplQ8ZQqJdy6M15qQ0AqEDAobMKJp8SPXMaL45qIQOIIQdz/l4ceIoAAAghIBQhBpBpsI4AAAgggYFuBwJEx4qR04hfPPLq3oN/TOd7RAdK5K9sItEbAK8y374KMEcV50k/aqKL8JhOQuLg4T09P237oW10717W2mpAKEEAAAQTqBQhB6i3YQgABBBBAwA4C4dP6S2enbCNga4FHd+bF9W0uA4nr06ePHT72nAIBBBBAAAEnESAEcZKBoBkIIIAAAjISeED9yIg9+bae+lI/AhMqnk4pGNZs/nHtjXvvvVdG3z26igACCCAgewFCENl/BABAAAEEEHCQwD197o1bmDZ05+yxR+qWrmTSjkDrBcaXPzlm/8Kh707vPyrFdPwhvOugjz+nRQABBBBAwDEChCCOceesCCCAAAIISAXCI8Lj+yf0HZDIHwKWCyQnxvVt6gEwJrMQ6eeQbQQQcF8BVtdx37GlZy0UIARpIRjFEUAAAQQQsIHAfffdZ3KiypsI2ERAoVDY4ONMle4twFzavceX3iHg/gKEIO4/xvQQAQQQQMD5BXr27BkZGWmTaS6VItCMQGxsbK9evZz/20ELEUAAAQQQsKIAIYgVMakKAQQQQAABywV69eoVGxvbzHSV3QhYX+CBBx6w/PPKkQgggAACCLimACGIa44brUYAAQQQcEeBu+++OyYmxvqTXWpEoJHAfffd547fIfqEAAIIIIDADQQIQW4AxNsIIIAAAgjYWcDHx4dbYxrN2dlhHYHo6Gi1Wm3njzSnQwABBBBAwHkECEGcZyxoCQIIIIAAAggggAACCCCAAAII2FCAEMSGuFSNAAIIIIAAAggggAACCCCAAALOI0AI4jxjQUsQQAABBBBAAAEEEHAWAZ6F6ywjQTsQQMCqAoQgVuWkMgQQQAABBBBAAAEEEEAAAQQQcFYBQhBnHRnahQACCCCAAAIIIIAAAggggAACVhUgBLEqJ5UhgAACCCCAAAIIIIAAAggggICzChCCOOvI0C4EEEAAAQQQQAABBBBAAAEEELCqACGIVTmpDAEEEEAAAQQQkKUAi2jKctjpNAIIIOB6AoQgrjdmtBgBBBBAAAEEEEAAAQQQQAABBCwQIASxAI1DEEAAAQQQQAABBBBAAAEEEEDAqQWavEqREMSpx4zGIYAAAggggAACCCCAgE0Fmpwm2fSMVI4AAg4UIARxID6nRgABBBBAAAEEEEAAAQQQQAAB+wkQgtjPmjMhgAACCCCAAAIIIIAAAggggIADBQhBHIjPqRFAAAEEEEAAAQQQQAABBBBAwH4ChCD2s+ZMCCCAAAIIIIAAAggggAACCCDgQAFCEAfic2oEEEAAAQQQQAABBBBomQDrmLbMi9IIINBQgBCkoQevEEAAAQQQQAABBBBAAAEEEEDATQUIQdx0YOkWAggggAACCCCAAAIIIIAAAgg0FCAEaejBKwQQQAABBBBAAAEEEEAAAQQQcFMBQhA3HVi6hQACCCCAAAIIIIAAAggggAACDQUIQRp68AoBBBBAAAEEEEAAAQQQQAABBNxUgBDETQeWbiGAAAIIIIAAAggggAACCCCAQEMBQpCGHrxCAAEEEEAAAQQQQAABBBBAAAE3FSAEcdOBpVsIIIAAAggggIBMBHrKpJ90EwEEEEDACgKEIFZApAoEEEAAAQQQQAABBBBAAAEEEHB+AUIQ5x8jWogAAggggAACCCCAAAIIIIAAAlYQIASxAiJVIIAAAggggAACCCCAAAIIIICA8wsQgjj/GNFCBBBAAAEEEEAAAQQQQAABBBCwggAhiBUQqQIBBBBAAAEEEEAAAQQQQAABBJxfgBDE+ceIFiKAAALWE+AZCtazpCYEEEAAAQQQQAABlxMgBHG5IaPBCCCAAAIIIIAAAggggAACCCBgiQAhiCVqHIMAAggggAACCLiZABeKudmA0h0EEEAAgSYFCEGaZGEnAggggAACCCCAAAIIIIAAAgi4mwAhiLuNKP1BAAEEEEAAAQQQQAABBBBAAIEmBQhBmmRhJwIIIIAAAggggAACCCCAgAUC3F1nARqH2E+AEMR+1pwJAQQQQAABBBBAAAEEEEAAAQQcKEAI4kB8To0AAggggAACCCCAAAIIIIAAAvYTIASxnzVnQgABBBBAAAEEEEAAAQQQQAABBwoQgjgQn1MjgAACCCCAAAIIIIAAAggggID9BAhB7GfNmRBAAAEEEEAAAQQQQAABBBBAwIEChCAOxOfUCCCAAAIIIIAAAggggAACCCBgPwFCEPtZcyYEEEAAAQQQQAABBBBAAAEEEHCgACGIA/E5NQIIIIAAAggggAACCCCAAAII2E+AEMR+1pwJAQQQQAABBBBAAAEEEEAAAQQcKEAI4kB8To0AAggggAACCCCAAAIIIIAAAvYTIASxnzVnQgABBBBAAAEEEEAAAQQQQAABBwoQgjgQn1MjgAACCCCAAAIIIIAAAggggID9BAhB7GfNmRBAAAEEEEAAAQQQQAABBBBAwIEChCAOxOfUCCCAAAIIIIAAAggggAACCCBgPwFCEPtZcyYEEEAAAQQQQAABBBBAAAEEEHCgACGIA/E5NQIIIIAAAggggAACCCBgLYGe1qqIehBwYwFCEDceXLqGAAIIIIAAAggggAACCCCAAAL1AoQg9RZsIYAAAggggAACCCCAAAIIINBYwLPX3YPv7ZPS+wEz/5Lv7SNUcpfCv1vU4Fb+dY8c2POBRxq3ij0WCBCCWIDGIQgggAACCCCAAAKOFuDCf0ePAOdHQFYCX3hHVfvGm//3lTJK8Ok0Ir/Nh9+3/u/m3++RFbjtOksIYjtbakYAAQQQQAABBBBAAAEEEHB5gen3K8yPP4SSVg9B2nz4vTmO3bp169KlS6dOnbp27XrXXXc1PqRHjx7drv/r2dMQJ3fv3r1z586dOnVqXLhbt26dO3fueO3fHXfc0biAdE+3bt06deokFO7UqVP37t2l7zbe7tGjR9euXTt16tS5c+du3br16NGjcZk777xTaKxQW48ePe64446OHTs2Wbjx4U3uIQRpkoWdCCCAAAIIIIAAAggggAACCBgETihbdhlItW+81UOQm1ccMD0YXbt2bdeuXZuG/2655ZY777xTemD37t3FIt26dbvlllvEl2Kxnj17duzYsW3btuJbwka7du2ajDa6d+8urUc8qn379k2mFT169Lj99tvFYuJGx44dxTYIG7feeqvwbvv27e+44w6xZJPNMDq2uZeEIM3JsB8BBBBAAAEEEEAAAQQQQEDuAo/e93BLLwOxRQjSJWu6iZHo1KmTGBA03ujWrZt4rDQEMQpNhDI9evS4+eabG1ci7Gnbtq1RACGtsPFR7dq1M7og5a677jJR/y233CI21cPDQwxBbrrpJmnlRm2QHnLDbUKQGxJRAAEEEEAAAQQQQAABBBBAQKYCn3uFOzwEuWnt1yb0u3XrJgYE7dq169y5s3DPiLjzpptuEg83kVkIZW677TbxwNtuu61Lly5du3aV7jTKKaSJxu233961a9cuXbpIy996663i2aW5Rps2bcTy7du3F08qvTFHDEHEd4UNQhApKdsIIIAAAggggIBTCbCAp1MNB41BAAEEWiAw+N4+FiQgVr8SpNOYRSYaLV7Q0a5dO2GZD6GwNBzp0qWLsNMoBOnQoYP0jpUePXqIcUOHDh2kJ+3QoYP4lnhxh7S80c0s0htexFZJb2np3LmztH4x75BGNuLONm3atGvX7obrkkgrbG6bK0Gak2E/AggggAACCCCAAAIIIICArAU+8gx2eAjS9k9nevRp9vm40lCjcUYghgji5RjS8kaxhYeHh3TZVGk44uHhIY1UxBPdddddYjIi5izCJ6Z79+7CIqnSdUzFK0TatWtn9MG68847xarE+3fE9rdp00ZMXowObOlLQpCWilEeAQQQQAABBBBAAAEEEEDA/QXC7vmNZQmIda8E6TD19yasO3bsKGYH4gUXYnnxXfHyCmkI0qVrV7HkDTekB3aVHCiun3rTTTeJ4UVztYmFb7/99sZlxI6IF4mIIUjj0KTx4WbuIQQxE4piCCCAAAIIIIAAAggggAACMhJY/ZDKGUKQHp5+JtDFmKBNmza3NPon3inTpk3d3L+5LMPoFHfccUf79u2NliMVQwppCNK5c2dxf5s2bdq2bXvLLbd06NChcSAivWykXbt2jRpb/5wa8U4csXeEIEYDxEsEEEAAAQQQQAABBBBAAAEErCbgd/e9FicgVrwS5La5b5nuUpPPppWmEuK2cHvLDUMQ009vEWqThiAeHh5dunQRL/EQTyeEMtIH9EpPLS3WeFu8ToQQxPTo8y4CCCCAAAIIIIAAAggggAACVhD4/YN+zhCC3KmONt0Z8bkqwiUYjS+vEPcIN8tIkwijLEM4kfRpL8IFHUJ6Il2zo/GBPXv27NKli9gYaa4hLiAiraHJK0HEpooPiCEEMT36vIsAAggggAACCCCAAAIIIIBAawUe7HX3eZ9Yh4cg7Z/cdMOeiEuNije8mD7EdAgifXqLUdIhjTCM3pKesWfPnl27dr399tvFa0Patm0rFJDeDtN4TVZpJeI2IYhIwQYCCCCAAAIIIIAAAggggEDLBXhstxlmi/p4tyYBsdbtMN1iUm7Y2E6dOomXXTRehqPx4aZDEHEh1TZt2hgts9pkCNK1a1fhETDiUqbiGbt27dq4YeIiIzfffLNY0sQGIYgJHN5CAAEEEEAAAQQQQAABBBBAwAoCp7yjHR6C3PzyZ+b0RJpNtGvXzui5th4eHrfddpt4d4mHh4f5IYh0OQ8PD4/bb79dDDXEK0GkoYnRqaWP1BXTmQ4dOoiVNL4YpHv37rfccov0UbiEIOZ8BiiDAAIIIIAAAggggAACCCCAgIUC0+9XtDIBscqVIF0HPGpmB6TxRNu2bTt27HjnnXfeddddXbt2FZdNFXMQ0yGINLlo166dsJxHjx49pKdo06ZNly5dhLZJI5j27dtL8wvp+iBiPnLXXXeJt8kIK6d27dq1R48e3bp1Ey9padu2rVgPIYiZnwGKIYAAAggggAACCCCAgFUFuIfCqpxU5swCJ5RRDg9B2q08bD5Rz549pY/CFS+1EDfatm3bvXt3oULTIYiHh4c0vBBrMNoQIxUPDw/pxR1t2rQRVjwVb3tp06aNtLCHh4f0NhmjaoWXt956q9h3QhCRgg0EEEAAAQQQQAABBBBAAAEErCwQcs9vWp+AtP5KkC5Z01vUsR49ejQXXtx8883SG1tuGII0+Yjctm3bdunSRcws2rdvL21e586dpdd3iMXatGnT+J4XIQdprnyHDh2kNROCSDXYRgABBBBAAAEEEEAAAQQQQMCaAhm/edDhIchNa7+2rEt33nlnhw4dhAfN3nrrrR07dhQX4xArvOuuu4SlTIW7ZsT9RhvC826Fqjp27Cjcz9KlSxfhWKOLO4Rju3bt2qFDh1tvvfWWW25p3759p06dxLtgjCoXy4uFb7/99s6dO4t3wYjlTSy8KpZp6Uablh5AeQQQQAABBBBAAAEEEEAAAQTcUiD53j5WDkGG57X58PsW/XUatcAtbZ2kU4QgTjIQNAMBBBBAAAEEEEAAAQQQQMDBAr/x6FXQx/vlB/1b+ffUAz5CT7rFpHR4/EXz/zoPy3UwgbufnhDE3UeY/iGAAAIIIIAAAggggAACCCCAwDUBQhA+CAgggAACCCCAAAIIIIAAAgggIAsBQhBZDDOdRAABBBBAAAEEEEAAAQQQQAABQhA+AwgggAACCCCAAAIIIIAAAgggIAsBQhBZDDOdRAABBBBAAAEEEEAAAQQQQAABQhA+AwgggAACCCCAAAIIIIAAAgggIAsBQhBZDDOdRAABBBBAAAEEEEAAAQQQQAABQhA+AwgggAACCCCAAAIIIIAAAgggIAsBQhBZDDOdRAABBBBAAAEEEEAAAQQQEAV6iltsyEyAEERmA053EUAAAQQQQAABBBBAAAEEEJCrACGIXEeefiOAAAIIIOBuAvxXPXcbUfqDAAIIIICA1QUIQaxOalQh/x8yIxBeIoAAAggggAACCCCAAAIIIOAYAUIQx7hzVgQQQAABBBBAAAEEEEAAAQQQsLMAIYidwTkdAggggAACCCCAAAIIIIAAAgg4RoAQxDHunBUBBBBAAAEEEEAAAQQQQAABBOwsQAhiZ3BOhwACCCCAAAIIIIAAAggggAACjhEgBHGMO2dFAAEEEEAAAQQQQAABBBBAAAE7CxCC2Bmc0yGAAAIIIIAAAggggAACCCCAgGMECEEc485ZEUAAAQQQQAABBBBAAAEEEEDAzgKEIHYG53QIIIAAAggggIBJgZ4m3+VNBBBAAAEEEGiFACFIK/A4FAEEEEAAAQQQQAABBBBAAAEEXEeAEMR1xoqWIoAAAggggAACCCCAAAIIIIBAKwQIQVqBx6EIIIAAAggggAACCCCAAAIIIOA6AoQgrjNWtBQBBBBAAAEEEEAAAQQQQAABBFohQAjSCjwORQABBBBAAAEEEEAAAQQQQAAB1xEgBHGdsaKlCCCAAAIIIIAAAggggAACCCDQCgFCkFbgcSgCCCCAAAIIIIAAAggggAACCLiOACGI64wVLUUAAQQQQAABBBBwfoGezt9EWogAAgjIV4AQRL5jT88RQAABBBBAAAEEEEAAAQQQkJUAIYishpvOIoAAAggggAACCCCAAAIIICBfAUIQ+Y49PUcAAdsLcEm07Y05Q1MCfPKaUmEfAggggAACCCDgQQjChwABBBBAAAEEEEAAAQQQQAABBGQhQAgii2GmkwgggAACCCCAAAIIIIAAAgggQAjCZwABBBBAAAEEEEAAAQQQQAABBGQhQAgii2GmkwgggAACCCCAAAIIIIAAAgggQAjCZwABBBBAAAEEEEAAAQQQQAABBGQhQAgii2GmkwgggAACCCCAAAJuIMCzn9xgEOkCAgg4VoAQxLH+nH9rOBwAAARQSURBVB0BBBBAAAEEEEAAAQQQQAABBOwkQAhiJ2hOgwACCCCAAAIIIIAAAggggAACjhUgBHGsP2dHAAEELBPggmjL3DgKAQQQQAABBBBAQNYChCCyHn46jwACCCCAAAIIIIAAAggggIB8BAhB5DPW9BQBBBBAAAEEEEAAAQQQQAABWQsQgsh6+Ok8AggggAACCCCAAAIIIIAAAvIRIASRz1jTUwQQQAABBBBAAAEEEEAAAQRkLUAIIuvhp/MIIIAAAggggAACCCCAAAIIyEeAEEQ+Y01PEUAAAQQQQMBSAZ7IZKkcxyGAAAIIIOBUAoQgTjUcNAYBBBBAAAEEEEAAAQQQQAABBGwlQAhiK1nqRQABBBBAAAEEEEAAAQQQQAABpxIgBHGq4aAxCCCAAAIIIIAAAggggAACCCBgKwFCEFvJUi8CCCCAAAIIIIAAAggggAACCDiVACGIUw0HjUHALAGW5zOLiUIIIIAAAggggAACCCCAQEMBQpCGHrxCAAEEEEAAAQQQQAABBBBAAAE3FSAEcdOBpVsIIIAAAggggAACCCCAAAIIINBQgBCkoQevEEAAAQQQQAABBBBAAIH/394dIzEIw0AA/P+vqVSgFoTtYyuPizjWXndMAgECBEIFlCChwRqLAAECBAgQIECAAAECBAgQuAsoQe4edgQIECBAgAABAgQIECBAgECogBIkNFhjESBAgAABAgSmBbyubFrY+QQIECDwtoAS5G1R5xEgQIAAAQIECBAgQIAAAQJbCihBtozFpQgQIPBMwNPZZ34+TYAAAQIECBAgkCmgBMnM1VQECBAgQIAAAQIECBAgQIBAE1CCNBBbAgQIECBAgAABAgQIECBAIFNACZKZq6kIECBAgAABAgQIECBAgACBJqAEaSC2BAgQIECAAAECBAgQIECAQKaAEiQzV1MRIECAAAECBAgQIECAAAECTUAJ0kBsCRAgQIAAAQIECBAgQIAAgUwBJUhmrqYiQIAAAQIECBCIEfDi85goDUKAwHIBJcjyCFyAAAECBAgQIECAAAECBAgQ+EJACfKFsu8gQIAAAQIECBAgQIAAAQIElgsoQZZH4AIECBAgQIAAAQIECBA4VsDvtY6N7p8XV4L8M3dTEyBAgAABAgQIECBAIEhAFxMU5ugoSpBRXocTIECAAAECBAgQIECAAAECuwgoQXZJwj0IECBAgAABAgQIECBAgACBUQElyCivwwkQIECAAAECBAgQIECAAIFdBJQguyThHgQIECBAgAABAgQIECBAgMCogBJklNfhBAgQIHC8gP9ZOz5CAxAgQIAAAQIESkAJUhJWAgQIECBAgAABAgQIECBAIFpACRIdr+EIECBAgAABAgQIECBAgACBElCClISVAAECBAgQIECAAAECBAgQiBZQgkTHazgCBAgQIECAAAECBAgQIECgBJQgJWElQIAAAQIECBAgQIAAAQIEogUufWbaNbeJlZ0AAAAASUVORK5CYII=;" vertex="1" parent="1">
          <mxGeometry x="-250" y="-1050" width="1452" height="955" as="geometry" />
        </mxCell>
      </root>
    </mxGraphModel>
  </diagram>
</mxfile>
